<svg xmlns="http://www.w3.org/2000/svg" width="471" height="178" overflow="hidden"><defs><clipPath id="a"><path d="M113 310h471v178H113z"/></clipPath><clipPath id="b"><path d="M114 311h470v176H114z"/></clipPath><clipPath id="c"><path d="M114 311h470v176H114z"/></clipPath><clipPath id="d"><path d="M114 303h470v187H114z"/></clipPath><clipPath id="e"><path d="M114 303h470v187H114z"/></clipPath><clipPath id="f"><path d="M114 304h470v186H114z"/></clipPath><clipPath id="g"><path d="M114 304h470v186H114z"/></clipPath></defs><g clip-path="url(#a)" transform="translate(-113 -310)"><g clip-path="url(#b)"><g clip-path="url(#c)"><g clip-path="url(#d)"><g clip-path="url(#e)"><g clip-path="url(#f)"><g clip-path="url(#g)"><path fill="#FF8EA0" d="M252.872 485.774c-1.395-.194-2.59-.773-3.588-1.738-.692-.669-1.048-1.216-1.185-1.825-.17-.755-.153-2.265.036-3.223.273-1.373.494-2.014 2.424-7.001 1.29-3.336 3.187-8.374 6.307-16.756 3.842-10.321 6.303-16.771 8.04-21.077l.426-1.056-.64-.052c-.351-.029-10.075-.063-21.607-.076-13.005-.015-21.387-.049-22.07-.09-.939-.057-1.182-.095-1.669-.262-2.567-.882-4.266-3.574-3.81-6.036.17-.917 2.509-6.808 6.513-16.408 1.249-2.992 2.463-5.916 2.702-6.497l.43-1.055-4.443-.044c-2.444-.025-8.066-.027-12.492-.008l-8.05.038-.571 1.193c-1.299 2.705-4.995 9.848-7.361 14.223-5.957 11.017-13.118 22.741-17.365 28.432-6.198 8.304-12.352 13.33-19.48 15.907-3.582 1.294-9.128 2.066-13.252 1.844-5.004-.27-8.541-1.339-12.447-3.763-2.21-1.371-3.507-2.395-5.11-4.035-3.02-3.087-5.341-6.958-6.807-11.349-.46-1.378-.6-1.935-.834-3.318-.76-4.503-.77-8.867-.027-13.296.884-5.268 2.872-10.336 5.73-14.603.711-1.063 2.54-3.493 3.46-4.597 5.295-6.362 12.904-11.32 22.06-14.379 4.22-1.408 9.583-2.591 13.001-2.865 3.182-.255 3.442-.26 13.493-.268 5.457-.005 10.399-.03 10.98-.056 3.176-.141 5.014-.274 7.002-.505.612-.071 1.128-.13 1.146-.13.044 0 1.534-3.05 2.24-4.584.317-.69 1.417-3.14 2.446-5.443 2.333-5.229 2.773-6.174 4.111-8.839 3.318-6.607 6.301-10.917 10.186-14.715 1.986-1.942 3.827-3.425 5.816-4.684 9.542-6.045 22.172-7.158 32.906-2.899 2.003.796 2.646 1.182 3.212 1.933.683.907.952 1.751 1.003 3.147.065 1.787-.17 2.73-1.374 5.545-1.076 2.514-2.696 6.44-4.991 12.101-3.83 9.445-5.328 13.043-7.124 17.109-.326.738-.582 1.352-.568 1.366.042.042 1.165.219 2.036.323 1.914.226 2.729.254 7.968.269 5.464.017 6.025.031 7.973.205 1.08.095 1.19.117 1.626.329.936.455 1.656 1.201 2.155 2.234.419.871.539 1.432.544 2.54.005 1.133-.137 1.821-.555 2.681-.517 1.065-1.3 1.845-2.349 2.339-1.092.514-2.137.56-12.302.534-4.475-.012-8.86-.001-9.742.024l-1.605.045-.334.602c-.55.996-1.665 3.291-2.268 4.675-.711 1.627-1.653 3.999-2.952 7.439-.79 2.09-2.27 5.842-2.485 6.305-.047.101 9.756.148 25.972.124 8.747-.012 13.26-.042 13.51-.088.448-.082.812-.26 1.05-.513.107-.113.926-1.854 2.059-4.376 3.213-7.15 4.478-9.863 6.335-13.59 2.808-5.628 5.19-9.79 8.026-14.018 1.663-2.481 2.652-3.693 4.38-5.377 3.282-3.193 7.104-5.437 11.57-6.79 1.96-.594 3.471-.844 5.49-.905 5.795-.179 11.443 1.942 15.516 5.827 1.24 1.184 2.217 2.407 3.166 3.961.283.464.634 1.038.782 1.276.97 1.569 1.802 3.743 2.226 5.816.387 1.896.517 3.319.518 5.692 0 2.862-.298 6.131-.716 7.81-.457 1.841-1.083 3.54-2.008 5.451-.74 1.529-1.214 2.353-2.22 3.857-2.513 3.759-5.732 6.936-9.724 9.597-2.275 1.518-4.32 2.596-7.011 3.697-5.786 2.367-10.952 3.336-21.432 4.02-5.643.368-10.058.707-10.128.778-.091.093-3.454 8.97-7.296 19.257-2.26 6.055-3.499 9.351-4.916 13.083a374.863 374.863 0 0 0-1.279 3.397c-.081.237-.582 1.665-1.109 3.175-1.545 4.42-2.377 6.56-3.348 8.619-.705 1.494-1.222 2.427-1.56 2.823-.337.393-.926.837-1.478 1.113-.729.364-2.006.557-2.89.433Zm-106.697-32.39c6.68-.94 12.688-4.412 17.064-9.863 3.37-4.197 7.295-9.98 11.128-16.393 2.628-4.397 4.6-7.921 10.095-18.041a1286.01 1286.01 0 0 1 2.877-5.278l.655-1.187-6.224-.054c-7.182-.062-15.596.027-17.404.183-10.706.928-19.626 4.324-26.16 9.96-2.158 1.861-4.307 4.215-5.774 6.322-2.372 3.409-4.057 7.455-4.77 11.46-.304 1.706-.394 2.74-.397 4.552-.003 2.543.26 4.487.92 6.794 1.45 5.073 5.478 9.152 10.747 10.888 1.326.436 2.395.651 4.068.815.575.057 2.234-.026 3.175-.158Zm136.337-31.068c.956-.116 2.67-.261 5.52-.464 7.604-.545 10.298-.985 14.487-2.372 3.072-1.017 5.788-2.487 8.376-4.537.97-.769 3.1-2.91 3.823-3.844 1.613-2.085 2.751-4.167 3.498-6.399 1.216-3.634 1.246-7.574.082-10.622-.287-.749-.984-2.086-1.446-2.77-.435-.642-1.386-1.62-2.09-2.149-1.084-.812-2.65-1.498-4.147-1.815-.839-.178-2.441-.241-3.286-.128-.799.106-2.434.522-3.259.829-3.34 1.241-6.435 3.879-8.936 7.617-2.803 4.19-6.564 11.302-10.224 19.329a704.62 704.62 0 0 0-3.168 7.107l-.121.281h.182c.1 0 .417-.029.709-.063Zm-55.106-30.735c1.639-.246 2.531-.738 2.954-1.625.105-.217.189-.428.189-.468 0-.1 2.08-5.236 3.87-9.559 4.945-11.942 6.787-16.533 8.338-20.787l.22-.601-.774-.079c-5.75-.583-11.306.302-15.69 2.503-3.13 1.572-6.756 4.768-9.389 8.277-2.4 3.199-4.217 6.614-7.526 14.15-1.626 3.705-2.073 4.687-2.97 6.525a92.06 92.06 0 0 0-.82 1.697c0 .046 3.51.062 12.107.054 6.612-.004 9.101-.028 9.491-.087Zm284.006 72.885c-9.24-.579-18.454-5.331-24.873-12.83-2.592-3.028-5.848-7.423-8.606-11.614-3.498-5.317-6.585-10.559-12.355-20.974-1.065-1.923-1.973-3.535-2.016-3.582-.082-.09-.247.288-2.497 5.693-2.391 5.748-4.301 10.424-8.795 21.538l-4.19 10.357a599.063 599.063 0 0 0-1.147 2.853 5.416 5.416 0 0 1-1.721 2.308c-1.757 1.392-4.118 1.684-5.852.721-1.501-.832-2.112-1.376-2.55-2.263-.445-.901-.557-1.433-.556-2.63.001-.882.024-1.109.17-1.654.097-.364.938-2.502 1.987-5.046 4.683-11.363 10.316-25.19 13.606-33.408a148.81 148.81 0 0 1 1.867-4.387c1.581-3.539 2.154-5.063 2.533-6.736l.16-.704-.433-1.03c-.793-1.885-1.69-3.763-3.83-8.022-1.168-2.321-2.342-4.697-2.609-5.277-.267-.58-.856-1.839-1.308-2.796a488.554 488.554 0 0 1-1.736-3.728c-3.282-7.144-4.893-10.018-7.281-13.002-1.707-2.132-4.233-4.493-6.241-5.832-3.26-2.175-6.844-3.466-10.934-3.94-1.194-.139-3.925-.156-5.047-.032-1.837.203-4.097.699-6.781 1.489-2.63.774-4.08.912-5.455.52-1.375-.391-2.61-1.558-3.165-2.991-.313-.81-.373-1.174-.37-2.243.002-.92.022-1.082.185-1.617.28-.921.584-1.43 1.263-2.119.545-.551.662-.635 1.357-.966 3.188-1.521 7.17-2.595 11.311-3.052 1.308-.145 4.87-.202 6.32-.101 6.289.437 12.224 2.371 17.164 5.595 2.157 1.408 3.58 2.603 5.886 4.94 3.034 3.074 4.851 5.401 6.944 8.896 1.875 3.131 3.13 5.663 6.186 12.469 1.933 4.308 2.663 5.878 3.614 7.766l.753 1.5 1.634-4.007c.898-2.203 2.53-6.203 3.628-8.887 1.098-2.685 3.223-7.939 4.726-11.676 1.502-3.737 2.883-7.137 3.07-7.553.62-1.384 1.157-2.201 1.935-2.943.403-.385.45-.41 1.017-.543 1.106-.257 1.564-.306 2.843-.302 1.018.003 1.38.031 1.91.144.774.165.972.288 1.688 1.043.6.631 1.11 1.563 1.337 2.435.298 1.153.223 2.628-.194 3.768-.196.53-1.507 3.754-6.358 15.627a2582.514 2582.514 0 0 0-4.502 11.082c-.978 2.431-2.266 5.519-2.864 6.861-1.71 3.844-2.348 5.523-2.826 7.439l-.208.842.415.906c.57 1.241 2.484 5.053 3.303 6.58.919 1.709 1.816 3.328 3.933 7.091.99 1.759 2.21 3.941 2.71 4.848 1.655 3.001 6.336 10.762 8.444 14 3.368 5.174 7.27 9.984 9.793 12.072 4.022 3.327 8.661 5.381 13.384 5.923.991.114 3.079.13 4.078.031 2.933-.29 6.021-1.64 8.491-3.713 2.539-2.13 4.525-5.156 5.492-8.361.196-.647.377-1.719.54-3.162.161-1.447.16-4.791-.002-6.169-.302-2.552-.91-4.911-1.811-7.026-.469-1.1-1.686-3.53-2.155-4.3a31.294 31.294 0 0 0-5.702-6.933c-5.926-5.444-13.815-8.943-23.301-10.338-3.126-.46-7.701-.789-11.004-.791-.812 0-1.142-.028-1.546-.132-1.646-.42-3.065-1.66-3.873-3.385-.797-1.703-.677-3.22.372-4.717.809-1.154 1.96-2.212 8.261-7.599a22036.19 22036.19 0 0 0 32.281-27.673c25.3-21.712 39.46-33.832 48.322-41.361 1.836-1.561 3.59-3.071 3.899-3.359.984-.917 1.925-1.419 3.108-1.658.686-.139 2.203-.104 2.812.065 1.289.355 2.3 1.028 2.985 1.983.615.863 1.15 2.291 1.153 3.087.005 1.417-.879 3.041-2.524 4.641-.266.259-4.622 4.012-9.679 8.34-25.108 21.49-71.174 61.006-71.197 61.074-.03.087 1.717.805 3.063 1.259.654.222 2.098.67 3.208.998 3.495 1.032 5.4 1.716 7.971 2.859 8.902 3.963 16.46 10.511 21.17 18.342.647 1.076 1.937 3.702 2.48 5.047 1.615 3.999 2.548 7.856 2.92 12.072.107 1.222.106 4.516-.003 5.674-.396 4.231-1.336 7.58-3.21 11.445-3.515 7.244-10.574 12.658-18.745 14.374-2.366.497-5.282.713-7.63.567Zm-100.44-31.536c-1.31-.027-2.62-.066-2.91-.088a5.142 5.142 0 0 1-4.236-2.844c-.42-.842-.525-1.292-.524-2.243.001-.707.03-.908.275-1.879.693-2.756 1.284-4.392 3.448-9.574 2.34-5.601 3.147-7.992 3.679-10.889.305-1.659.383-2.735.349-4.77-.03-1.729-.042-1.89-.205-2.506-.76-2.876-3.485-5.269-6.623-5.817-1.066-.185-2.418-.057-3.44.327-2.69 1.011-4.75 2.562-6.666 5.027-2.39 3.072-4.15 6.946-10.997 24.21-2.05 5.168-3.178 7.854-3.5 8.338-.646.969-1.77 1.829-2.942 2.252-1.237.447.257.414-18.297.4-17.545-.015-18.674-.03-20.377-.302-1.145-.184-2.063-.557-2.69-1.093-.567-.485-1.381-1.871-1.607-2.734-.246-.941-.194-2.199.146-3.496.224-.856.414-1.37 1.169-3.148 2.514-5.928 5.325-12.766 11.108-27.032a4449.666 4449.666 0 0 1 6.14-15.074c.4-.979.888-2.118 1.086-2.529.656-1.365 1.514-2.514 2.363-3.163.508-.388 1.225-.508 3.026-.504 1.287.002 1.386.012 1.95.185.846.258 1.322.53 1.86 1.062.377.375.55.621.903 1.288.453.856.603 1.312.68 2.049.091.891-.186 2.263-.755 3.747-.176.458-1.408 3.475-2.737 6.704-1.329 3.23-4 9.746-5.934 14.481l-5.498 13.438a477.404 477.404 0 0 0-1.98 4.87c0 .022 5.278.031 11.727.019l11.727-.021.33-.259c.294-.232.374-.357.755-1.187 1.11-2.42 2.097-4.807 4.181-10.098 2.93-7.442 4.41-10.866 6.055-14.014 2.176-4.16 5.285-7.87 8.804-10.503 1.966-1.47 4.228-2.668 6.386-3.382 1.688-.56 2.781-.745 4.775-.81 3.985-.13 8.064.925 11.548 2.988 3.431 2.031 6.096 5.488 7.465 9.687.764 2.339 1.05 4.524.975 7.458-.101 3.988-.751 7.809-2.064 12.138a75.012 75.012 0 0 1-2.603 7.125c-.216.507-.386.93-.378.939.01.009 3.208.017 7.109.017 4.504.001 7.272.026 7.583.07 2.256.312 4.222 2.17 4.69 4.43.205.986.104 2.274-.243 3.128-.725 1.778-2.82 3.289-4.965 3.581-.59.081-16.176.082-20.121.001Zm-43.718-67.154c-1.237-.139-2.28-.521-3.474-1.27-1.465-.92-2.303-1.739-3.015-2.949-1.485-2.524-1.611-5.86-.325-8.634.563-1.218 1.687-2.563 2.74-3.281.63-.43 2.069-1.162 2.704-1.376.79-.267 1.48-.371 2.455-.371 1.06.001 1.817.122 2.777.442 3.087 1.029 5.495 3.614 6.054 6.501.142.737.201 2.645.105 3.37-.485 3.635-3.478 6.647-7.382 7.431-.795.159-1.923.218-2.639.137Z"/><path fill="#FEFEFE" d="M248.959 695.161c-1.396-.195-2.591-.774-3.59-1.738-.692-.67-1.047-1.217-1.184-1.826-.17-.755-.153-2.265.036-3.223.272-1.373.494-2.014 2.424-7.001 1.29-3.336 3.187-8.374 6.307-16.756 3.841-10.321 6.301-16.769 8.04-21.076l.425-1.056-.639-.053c-.35-.029-10.075-.063-21.608-.076-13.004-.014-21.387-.048-22.069-.09-.94-.057-1.183-.095-1.669-.261-2.567-.883-4.267-3.575-3.81-6.036.17-.918 2.508-6.809 6.513-16.408a1864.58 1864.58 0 0 0 2.7-6.497l.431-1.056-4.443-.044c-2.445-.024-8.065-.027-12.492-.007l-8.048.038-.574 1.193c-1.297 2.705-4.994 9.847-7.36 14.222-5.957 11.017-13.118 22.741-17.364 28.432-6.198 8.305-12.352 13.33-19.481 15.907-3.581 1.294-9.128 2.066-13.252 1.845-5.004-.27-8.54-1.34-12.446-3.764-2.21-1.371-3.507-2.395-5.11-4.035-3.02-3.086-5.341-6.957-6.808-11.349-.46-1.378-.6-1.935-.833-3.318-.76-4.502-.77-8.866-.027-13.296.883-5.268 2.871-10.336 5.73-14.603.711-1.063 2.54-3.492 3.46-4.597 5.295-6.361 12.903-11.32 22.06-14.378 4.219-1.409 9.582-2.59 13.001-2.866 3.182-.255 3.441-.26 13.493-.268 5.457-.005 10.398-.03 10.98-.056 3.176-.14 5.013-.273 7.002-.505.612-.071 1.128-.13 1.145-.13.044 0 1.534-3.05 2.24-4.584.317-.689 1.417-3.138 2.446-5.443 2.334-5.228 2.774-6.174 4.112-8.839 3.318-6.607 6.302-10.917 10.185-14.714 1.987-1.943 3.827-3.426 5.816-4.685 9.544-6.045 22.173-7.158 32.906-2.899 2.004.796 2.646 1.182 3.212 1.933.685.908.953 1.751 1.004 3.147.065 1.787-.169 2.731-1.374 5.545-1.077 2.514-2.696 6.441-4.992 12.101-3.829 9.445-5.327 13.043-7.123 17.109-.325.738-.582 1.353-.568 1.366.041.042 1.165.22 2.035.323 1.914.226 2.729.254 7.967.27 5.466.017 6.027.031 7.975.204 1.08.095 1.19.118 1.625.329.937.455 1.656 1.201 2.155 2.234.42.871.54 1.432.544 2.54.005 1.133-.136 1.821-.553 2.681-.518 1.066-1.3 1.845-2.35 2.339-1.092.515-2.138.56-12.302.534-4.475-.012-8.859-.001-9.741.024l-1.607.045-.333.602c-.55.997-1.664 3.291-2.27 4.675-.711 1.627-1.652 3.999-2.951 7.439-.79 2.09-2.268 5.842-2.485 6.307-.047.099 9.757.146 25.974.122 8.747-.012 13.259-.042 13.509-.088.447-.082.81-.26 1.05-.513.106-.113.926-1.854 2.06-4.376 3.211-7.15 4.476-9.862 6.335-13.589 2.805-5.628 5.189-9.791 8.025-14.019 1.663-2.48 2.652-3.692 4.38-5.376 3.28-3.193 7.104-5.438 11.569-6.791 1.96-.593 3.472-.842 5.49-.905 5.796-.179 11.444 1.943 15.517 5.827 1.24 1.184 2.218 2.407 3.165 3.961l.782 1.277c.97 1.568 1.803 3.743 2.226 5.815.389 1.896.517 3.319.518 5.692.002 2.862-.298 6.132-.715 7.811-.456 1.84-1.083 3.539-2.008 5.45-.74 1.529-1.215 2.353-2.22 3.858-2.513 3.758-5.731 6.935-9.723 9.597-2.277 1.517-4.321 2.595-7.012 3.696-5.786 2.367-10.952 3.336-21.434 4.02-5.642.368-10.056.709-10.126.779-.09.092-3.455 8.969-7.296 19.258-2.26 6.053-3.5 9.35-4.916 13.081a374.863 374.863 0 0 0-1.279 3.397c-.083.237-.581 1.665-1.11 3.175-1.544 4.421-2.375 6.56-3.347 8.62-.706 1.494-1.221 2.426-1.56 2.822-.338.394-.926.837-1.478 1.114-.728.364-2.006.556-2.89.432Zm-106.698-32.39c6.68-.94 12.688-4.413 17.064-9.864 3.37-4.197 7.295-9.98 11.127-16.392 2.628-4.398 4.6-7.922 10.096-18.042 1.221-2.25 2.516-4.625 2.876-5.278l.656-1.187-6.224-.054c-7.182-.062-15.596.027-17.404.183-10.707.928-19.627 4.324-26.16 9.96-2.158 1.862-4.307 4.215-5.774 6.323-2.373 3.408-4.057 7.454-4.77 11.46-.305 1.705-.395 2.739-.397 4.551-.003 2.543.26 4.488.92 6.795 1.45 5.072 5.478 9.152 10.747 10.888 1.326.435 2.394.65 4.068.815.575.056 2.234-.027 3.175-.158Zm136.336-31.069c.957-.116 2.672-.261 5.521-.464 7.604-.544 10.298-.984 14.486-2.371 3.073-1.017 5.788-2.488 8.377-4.538.97-.768 3.099-2.909 3.823-3.844 1.612-2.085 2.75-4.167 3.498-6.399 1.216-3.634 1.246-7.573.08-10.621-.286-.75-.983-2.086-1.445-2.771-.434-.642-1.385-1.62-2.09-2.148-1.084-.813-2.65-1.498-4.145-1.816-.84-.178-2.443-.241-3.287-.128-.799.106-2.434.523-3.258.829-3.342 1.241-6.438 3.879-8.938 7.617-2.803 4.19-6.564 11.302-10.223 19.329a704.154 704.154 0 0 0-3.168 7.108l-.121.28h.181c.1 0 .418-.028.71-.063Zm-55.104-30.735c1.637-.245 2.53-.737 2.954-1.625.103-.217.187-.428.187-.468 0-.099 2.08-5.236 3.87-9.559 4.946-11.942 6.788-16.532 8.339-20.787l.22-.601-.774-.078c-5.75-.584-11.307.302-15.689 2.502-3.13 1.572-6.756 4.768-9.39 8.278-2.401 3.198-4.217 6.613-7.525 14.149-1.628 3.705-2.075 4.688-2.972 6.525a100.7 100.7 0 0 0-.819 1.697c0 .047 3.51.062 12.106.055 6.614-.005 9.103-.029 9.493-.088Zm284.005 72.885c-9.24-.579-18.454-5.33-24.873-12.83-2.591-3.027-5.848-7.423-8.606-11.614-3.498-5.317-6.587-10.559-12.355-20.974-1.065-1.923-1.972-3.534-2.015-3.581-.084-.09-.25.287-2.498 5.692-2.39 5.748-4.301 10.424-8.796 21.539-1.781 4.407-3.667 9.068-4.188 10.356a864.691 864.691 0 0 0-1.15 2.854 5.42 5.42 0 0 1-1.72 2.307c-1.756 1.392-4.118 1.684-5.851.721-1.501-.832-2.113-1.375-2.55-2.262-.444-.901-.558-1.434-.556-2.63.001-.883.024-1.11.17-1.654.096-.365.938-2.503 1.986-5.047 4.684-11.362 10.316-25.189 13.606-33.408.444-1.106 1.284-3.08 1.867-4.387 1.581-3.538 2.155-5.063 2.534-6.735l.16-.705-.434-1.029c-.793-1.885-1.69-3.764-3.831-8.023-1.167-2.321-2.34-4.697-2.608-5.277-.266-.58-.855-1.839-1.308-2.796a471.297 471.297 0 0 1-1.736-3.728c-3.282-7.143-4.891-10.018-7.28-13.002-1.707-2.131-4.234-4.493-6.241-5.832-3.26-2.174-6.844-3.465-10.934-3.94-1.195-.139-3.926-.156-5.05-.032-1.835.203-4.093.699-6.778 1.489-2.629.774-4.08.912-5.455.521-1.376-.392-2.61-1.559-3.165-2.992-.313-.81-.374-1.174-.37-2.243.002-.919.022-1.082.185-1.615.28-.923.584-1.431 1.263-2.121.544-.551.662-.635 1.357-.966 3.187-1.52 7.17-2.595 11.311-3.052 1.306-.145 4.87-.202 6.318-.101 6.291.438 12.224 2.371 17.165 5.596 2.158 1.408 3.582 2.602 5.887 4.94 3.034 3.073 4.85 5.4 6.943 8.895 1.876 3.131 3.132 5.663 6.187 12.47 1.933 4.307 2.664 5.877 3.613 7.765l.753 1.5 1.634-4.006c.897-2.204 2.53-6.203 3.629-8.888 1.097-2.685 3.224-7.939 4.726-11.676 1.5-3.737 2.884-7.136 3.07-7.553.62-1.384 1.157-2.201 1.936-2.943.403-.385.448-.41 1.015-.542 1.107-.258 1.565-.307 2.843-.303 1.019.003 1.381.031 1.91.145.775.165.972.287 1.69 1.042.599.632 1.11 1.563 1.336 2.436.299 1.153.223 2.627-.195 3.767-.194.53-1.506 3.755-6.36 15.627a2785.715 2785.715 0 0 0-4.5 11.083c-.976 2.43-2.266 5.518-2.863 6.86-1.71 3.844-2.348 5.524-2.825 7.439l-.21.842.415.906c.57 1.241 2.484 5.053 3.304 6.58.918 1.71 1.815 3.329 3.933 7.091.99 1.76 2.21 3.942 2.71 4.848 1.655 3.001 6.336 10.762 8.443 14 3.368 5.175 7.27 9.984 9.794 12.072 4.022 3.327 8.662 5.381 13.385 5.923.99.114 3.078.13 4.077.031 2.933-.289 6.021-1.64 8.49-3.712 2.54-2.131 4.527-5.156 5.493-8.362.195-.646.377-1.717.54-3.162.161-1.446.16-4.791-.003-6.168-.301-2.552-.91-4.91-1.81-7.026-.47-1.1-1.688-3.53-2.156-4.3a31.294 31.294 0 0 0-5.7-6.934c-5.928-5.444-13.816-8.943-23.302-10.338-3.126-.46-7.702-.788-11.004-.79-.812-.001-1.141-.029-1.546-.133-1.647-.42-3.065-1.659-3.873-3.384-.797-1.704-.678-3.221.37-4.718.81-1.154 1.96-2.211 8.263-7.599 6.53-5.581 14.126-12.092 32.28-27.673 25.302-21.712 39.461-33.832 48.323-41.361 1.837-1.561 3.59-3.071 3.898-3.359.984-.916 1.926-1.419 3.109-1.658.687-.139 2.202-.104 2.813.065 1.287.355 2.299 1.028 2.983 1.983.616.863 1.15 2.292 1.154 3.087.005 1.417-.878 3.042-2.524 4.641-.267.259-4.623 4.012-9.68 8.34-25.108 21.49-71.174 61.006-71.197 61.075-.029.087 1.717.805 3.064 1.259.655.221 2.099.67 3.208.997 3.494 1.033 5.4 1.716 7.97 2.859 8.903 3.963 16.46 10.512 21.17 18.342.648 1.077 1.938 3.702 2.482 5.047 1.614 3.999 2.546 7.856 2.918 12.072.107 1.222.106 4.516-.002 5.674-.396 4.231-1.336 7.581-3.211 11.445-3.514 7.244-10.573 12.658-18.744 14.374-2.366.498-5.282.714-7.63.567Zm-100.44-31.536c-1.31-.027-2.62-.066-2.911-.088a5.14 5.14 0 0 1-4.235-2.844c-.419-.842-.524-1.292-.523-2.243 0-.707.03-.907.274-1.879.693-2.756 1.283-4.391 3.447-9.574 2.34-5.601 3.148-7.992 3.68-10.889.304-1.659.382-2.735.348-4.77-.028-1.729-.041-1.89-.205-2.505-.759-2.877-3.484-5.27-6.623-5.818-1.067-.185-2.416-.057-3.44.327-2.69 1.011-4.748 2.563-6.665 5.027-2.39 3.072-4.149 6.946-10.998 24.211-2.05 5.168-3.177 7.853-3.5 8.338-.645.968-1.77 1.828-2.942 2.251-1.237.447.257.414-18.297.4-17.545-.015-18.673-.03-20.376-.302-1.145-.183-2.063-.555-2.691-1.093-.566-.484-1.38-1.87-1.606-2.734-.247-.941-.194-2.198.146-3.495.224-.857.415-1.371 1.169-3.149 2.514-5.927 5.323-12.765 11.108-27.032 1.73-4.263 3.654-8.998 4.278-10.522.626-1.524 1.462-3.572 1.862-4.552.4-.979.888-2.117 1.085-2.529.656-1.365 1.514-2.514 2.364-3.162.507-.389 1.224-.509 3.025-.505 1.289.002 1.386.012 1.95.185.847.259 1.323.53 1.86 1.062.379.375.551.621.904 1.288.452.856.604 1.312.679 2.049.091.891-.185 2.264-.755 3.747-.176.459-1.407 3.476-2.736 6.705-1.328 3.229-4 9.745-5.936 14.48-1.935 4.734-4.41 10.782-5.497 13.438a467.838 467.838 0 0 0-1.979 4.871c0 .021 5.278.031 11.728.019l11.726-.021.33-.26c.295-.232.374-.356.755-1.187 1.11-2.42 2.098-4.806 4.18-10.098 2.93-7.442 4.41-10.865 6.056-14.014 2.175-4.16 5.286-7.87 8.804-10.503 1.965-1.47 4.228-2.668 6.386-3.382 1.689-.56 2.78-.744 4.774-.81 3.985-.13 8.064.925 11.549 2.988 3.43 2.031 6.096 5.488 7.465 9.687.764 2.339 1.05 4.525.975 7.459-.101 3.987-.751 7.808-2.065 12.138a75.362 75.362 0 0 1-2.602 7.124c-.216.508-.387.93-.378.939.01.01 3.208.017 7.109.017 4.503.001 7.272.027 7.584.07 2.255.313 4.22 2.17 4.689 4.43.204.986.104 2.275-.244 3.129-.724 1.777-2.819 3.288-4.964 3.581-.591.08-16.176.081-20.121 0Zm-43.719-67.153c-1.236-.14-2.279-.522-3.473-1.271-1.466-.919-2.302-1.739-3.014-2.949-1.485-2.524-1.613-5.86-.328-8.633.565-1.219 1.69-2.564 2.741-3.281.631-.43 2.07-1.163 2.704-1.377.79-.267 1.482-.371 2.454-.37 1.06 0 1.82.121 2.78.441 3.087 1.029 5.493 3.614 6.052 6.501.142.737.202 2.645.106 3.37-.485 3.636-3.477 6.647-7.382 7.432-.794.158-1.924.218-2.64.137Z"/></g></g></g></g></g></g></g></svg>