<svg xmlns="http://www.w3.org/2000/svg" width="100" height="30"><path d="M69.96 8.324a2.403 2.403 0 0 0-.406.047l-.058.012c-.016.004-.039.008-.05.012-.016.003-.044.015-.067.02a2.94 2.94 0 0 0-1.328.82c-.102.113-.125.144-.203.245a2.8 2.8 0 0 0-.395.715 2.5 2.5 0 0 0-.14 1.242c.023.18.085.399.152.547.031.07.035.078.055.118.12.253.296.476.515.66.102.086.227.172.34.23.078.043.184.094.23.11.004.003.032.011.06.023.077.027.183.063.26.078.087.02.188.04.243.047q.02-.001.039.004.034.001.129.008c.098.008.21.004.363-.008.031-.004.07-.008.2-.027a2.663 2.663 0 0 0 .473-.133l.042-.016c.004 0 .027-.012.05-.02.184-.081.329-.16.477-.257a4 4 0 0 0 .239-.18 2.719 2.719 0 0 0 .45-.457 2.4 2.4 0 0 0 .386-.644c.004-.016.015-.04.023-.063a1 1 0 0 0 .043-.105q.035-.107.047-.149l.016-.058c.03-.11.066-.29.074-.403.011-.144.011-.332.004-.457a3 3 0 0 0-.024-.164 2 2 0 0 0-.094-.387c-.003-.02-.011-.039-.015-.05-.008-.02-.024-.063-.028-.07a2.033 2.033 0 0 0-.18-.344c-.03-.051-.03-.051-.07-.106a2.2 2.2 0 0 0-.593-.535 2.302 2.302 0 0 0-.844-.29c-.14-.015-.168-.015-.285-.015a.7.7 0 0 0-.13 0m0 0"/><path d="M8.64.012c0 .004.04.25.09.543.051.293.118.695.153.89l.125.73.363 2.13c.067.382.121.703.125.707s.227.015.496.023c.27.008.715.024.992.031.278.008.891.032 1.364.047.836.024 1.593.055 2.023.074l.656.024c.246.012.688.023.977.035.496.02 1.074.04 2.148.074l2.489.09c.261.008.593.02.738.02.148 0 .27.004.277.015a.7.7 0 0 1-.12.157c-.438.484-.993 1.214-1.497 1.984-.355.543-.918 1.5-1.289 2.2l-.312.585c-.274.52-.875 1.766-1.278 2.656-.113.254-.242.543-.289.641-.148.332-.527 1.21-.73 1.7-.125.3-.235.562-.422 1l-.082.195-1.844.011c-1.5.004-1.848.012-1.871.031-.016.012-.07.098-.125.188a64 64 0 0 1-.668 1.09c-.078.125-.195.32-.266.433l-.234.375a2 2 0 0 0-.102.184c0 .027.164.035.57.023.235-.003 1.118-.011 1.958-.015 1.375-.008 1.53-.008 1.53.015 0 .016-.155.348-.35.735-.755 1.508-1.337 2.5-2.083 3.535-1.078 1.508-2.007 2.504-2.996 3.215-.843.605-1.648.933-2.465 1.012a5 5 0 0 1-.851 0 3.6 3.6 0 0 1-1.477-.528c-.425-.273-.824-.762-.984-1.203-.102-.27-.117-.383-.117-.762 0-.386.015-.484.12-.746.118-.285.423-.664.688-.855.371-.262 1.051-.461 1.328-.383.043.012.086.02.09.016a1 1 0 0 0-.054-.18c-.04-.094-.106-.277-.153-.41s-.168-.469-.265-.746l-.328-.918c-.079-.227-.188-.524-.235-.657-.176-.488-.383-1.074-.457-1.293-.094-.27-.129-.359-.148-.359-.028 0-.493.262-.688.39-.539.356-.86.614-1.273 1.028-.52.52-.946 1.09-1.235 1.664C.188 22.371 0 23.113 0 24.06q.002 2.53 1.844 4.324c.265.258.441.398.777.62 1.168.778 2.379 1.063 4.152.981 1.563-.074 2.73-.316 4.02-.84.348-.14 1.062-.496 1.352-.664.535-.32 1.156-.761 1.644-1.168.781-.652 1.422-1.312 2.156-2.23.395-.496.602-.781 1.043-1.441.332-.5.45-.688.875-1.414a40 40 0 0 0 1.594-3.137l.098-.227.078-.011c.047-.004.887-.012 1.867-.016.984 0 1.824-.008 1.871-.016.047-.011.086-.011.098 0 .008.008-.04.07-.114.145-.382.398-.988 1.172-1.394 1.793-.45.68-.91 1.512-1.18 2.14a14 14 0 0 0-.457 1.223c-.297.969-.437 1.938-.386 2.688.039.55.09.824.23 1.222.09.25.16.39.297.586.5.735 1.254 1.07 2.308 1.035a5.1 5.1 0 0 0 1.832-.402 8 8 0 0 0 .95-.492c.242-.153.687-.473.918-.66.27-.223.8-.727 1.047-1.004.293-.324.312-.348.476-.559.078-.105.152-.195.164-.195.012-.004.027.02.031.05.02.087.164.512.207.618.02.047.055.12.07.16.18.437.567 1.008.923 1.36.687.69 1.468 1.042 2.535 1.152.312.027.984.007 1.277-.04.488-.078.762-.148 1.14-.296.512-.2.72-.309 1.18-.614 1.336-.886 2.465-2.41 3.157-4.261l.05-.125.165-.016c.195-.016.378-.043.59-.098.3-.078.695-.214.882-.308.078-.04.145-.07.149-.07.023 0-.008.109-.149.511-.078.227-.21.614-.297.856-.168.48-.351 1.008-.504 1.437l-.28.801c-.102.285-.224.629-.27.762-.329.91-.407 1.152-.38 1.168.009.004.962.011 2.114.008 2.004-.004 2.098-.004 2.121-.036a.1.1 0 0 0 .024-.058c0-.067.136-.555.234-.848.586-1.762 1.516-3.61 2.547-5.074.797-1.133 1.617-2 2.336-2.473q.303-.198.613-.297c.367-.12.79-.027.95.211.093.137.116.254.105.559-.012.355-.059.574-.285 1.312a64 64 0 0 1-.633 1.782 121 121 0 0 1-1.836 4.504 4 4 0 0 0-.149.382c0 .024.024.028.149.028 2.379.008 4.078 0 4.09-.012a2 2 0 0 0 .078-.281c.168-.696.547-1.692 1.078-2.84.414-.887 1.074-2.047 1.562-2.734.528-.75.996-1.32 1.457-1.782.575-.574 1.118-.96 1.563-1.113.129-.043.172-.05.379-.05.219-.005.238 0 .344.05a.7.7 0 0 1 .3.277c.082.157.102.45.055.766-.062.41-.16.746-.46 1.547-.188.492-.294.781-.528 1.453a20 20 0 0 0-.582 2.023c-.137.653-.18 1.274-.117 1.707.035.243.066.356.144.512.266.535.668.762 1.445.824.836.067 1.813-.191 2.739-.722a11 11 0 0 0 1.535-1.114 17 17 0 0 0 1.75-1.832c.176-.214.164-.242.164.38.004.445.012.593.043.831.094.711.281 1.215.59 1.598a2.02 2.02 0 0 0 1.14.73c.297.075.547.094.961.082.656-.015 1.235-.156 1.918-.464.738-.332 1.668-1.008 2.477-1.801a3 3 0 0 1 .23-.207c.008 0 .055.086.106.187.12.25.394.664.62.934a3.93 3.93 0 0 0 1.626 1.148c.27.102.695.207 1.004.25.242.036.351.04.836.04.468 0 .601-.008.859-.044q1.44-.187 2.57-.882c.442-.27.723-.496 1.141-.914.523-.524.785-.891 1.117-1.555a6.1 6.1 0 0 0 .652-2.246c.04-.363.04-1.23 0-1.508a6.8 6.8 0 0 0-.492-1.738c-.25-.574-.5-1.035-1.285-2.356-.418-.703-.683-1.218-.824-1.61-.07-.198-.145-.472-.133-.5.008-.015.067-.026.23-.034.774-.04 1.465-.297 1.977-.739.684-.585.965-1.648.668-2.5a1.3 1.3 0 0 0-.344-.53 1.6 1.6 0 0 0-.777-.427c-.187-.043-.64-.043-.809.004-.328.09-.507.168-.734.32-.992.66-1.996 2.055-3.258 4.516-.703 1.38-.957 1.864-1.234 2.364-.094.171-.219.402-.277.511-.06.11-.157.266-.215.352-.235.336-.387.55-.418.578a1.4 1.4 0 0 1-.285.09c-.536.137-.965.387-1.422.832-.75.726-1.274 1.777-1.368 2.758l-.03.308c-.012.14-.016.145-.259.301-.363.238-.773.41-1.054.453-.16.024-.48.024-.567 0-.175-.05-.347-.297-.402-.586-.035-.18-.035-.758 0-1.031.094-.754.352-1.844.695-2.945.246-.809.348-1.121.446-1.407.207-.609.418-1.214.48-1.382l.125-.344.121-.34c.035-.094.11-.297.164-.45.133-.37.2-.542.254-.679a1 1 0 0 0 .043-.117c-.012-.008-.898.066-1.355.113-.164.02-.594.059-1.153.11-.105.007-.277.027-.375.035-.097.007-.332.03-.52.043a6 6 0 0 0-.394.039c-.027.004-.238.023-.465.043a4 4 0 0 0-.437.054 1 1 0 0 0-.09.23 113.763 113.763 0 0 0-.445 1.457c-.043.157-.14.497-.219.759-.074.261-.164.574-.195.691a62 62 0 0 0-.43 1.617c-.152.61-.187.727-.266.88-.09.179-.37.581-.75 1.073-.379.489-1.14 1.293-1.476 1.547-.344.266-.649.442-.934.54-.16.05-.183.054-.437.058h-.266l-.062-.07q-.452-.523.414-2.563c.066-.164.152-.355.191-.43.117-.238.477-1.078.64-1.503.438-1.13.626-2.083.54-2.754-.074-.563-.239-.934-.551-1.246-.238-.243-.492-.38-.879-.477-1.254-.32-2.883.352-4.672 1.922a17.5 17.5 0 0 0-1.71 1.781c-.169.2-.333.399-.372.441-.137.168-.535.7-.652.883-.13.192-.192.27-.215.27-.02 0 .008-.078.11-.305.097-.215.124-.289.292-.765.196-.56.29-.88.371-1.278.172-.812.125-1.484-.14-2.031-.246-.516-.637-.8-1.278-.945-.164-.036-.234-.043-.546-.043-.32 0-.387.007-.606.05a4.8 4.8 0 0 0-1.328.473c-.723.36-1.469.887-2.215 1.559a21 21 0 0 0-1.601 1.656c-.543.66-.915 1.144-1.176 1.539-.172.258-.16.242-.168.23-.02-.015.363-1.062.68-1.867.21-.531.707-1.742 1.257-3.074a53 53 0 0 0 .508-1.254c.02-.039.024-.078.02-.086a1.4 1.4 0 0 0-.243.008c-.625.059-.84.078-1.03.094-.114.008-.274.027-.36.035l-.457.043a8 8 0 0 0-.375.039c-.07.008-.426.043-1.16.105l-.387.036c-.04.007-.172.02-.29.027a1.2 1.2 0 0 0-.257.035c-.039.024-.07.11-.152.453a55 55 0 0 1-.883 3.242 28 28 0 0 1-.473 1.45c-.05.097-.148.203-.386.43-.461.429-.844.667-1.29.796-.18.055-.48.11-.496.094a.7.7 0 0 1 .02-.16c.113-.531.2-1.114.238-1.633.035-.465.035-.61 0-1.004-.055-.621-.176-1.027-.414-1.398-.277-.426-.601-.61-1.254-.715l-.086-.016-.043-.125c-.101-.312-.277-.687-.418-.879a2.08 2.08 0 0 0-1.062-.758c-.899-.285-2.328-.07-3.567.54a7.7 7.7 0 0 0-1.984 1.417 8.7 8.7 0 0 0-1.727 2.368c-.316.62-.527 1.21-.773 2.148a5.2 5.2 0 0 1-.71 1.633c-.2.305-.325.457-.614.75-.281.281-.508.453-.766.586-.527.265-1.086.172-1.41-.238-.2-.25-.309-.5-.371-.836-.043-.239-.043-.836 0-1.106.086-.543.281-1.11.625-1.793.398-.8.895-1.504 1.418-2.02a4.1 4.1 0 0 1 .832-.652c.113-.07.238-.164.273-.203.094-.11.961-1.851.938-1.879-.016-.015-.633-.023-2.98-.023-3.532 0-4.848-.012-4.848-.047 0-.012.012-.05.027-.082a136 136 0 0 0 1.067-2.836c.07-.191.19-.516.261-.719.528-1.476 1.07-2.894 1.426-3.722.188-.43.621-1.297.797-1.594a8 8 0 0 1 .625-.906c.203-.243.523-.547.71-.676.192-.13.49-.278.645-.32.149-.043.883-.055 1.536-.028.273.012.878.035 1.347.047l1.266.043c.23.012.644.027.926.035.28.012.734.028 1.007.035.27.012.852.032 1.293.047.825.031 1.438.051 2.227.082l1.086.035c.777.024 1.488.051 1.95.075.19.007.437.015.542.015.11 0 .332.008.496.02.164.008.578.023.918.035.746.023 1.55.047 2.184.07a433 433 0 0 0 3.566.13c.961.038 1.29.05 2.129.077.484.016.965.032 1.066.04.106.003.446.015.754.023l1.028.035c.25.012.836.031 1.3.047.852.027 1.028.031 1.778.066.23.008.648.024.933.031.29.012.973.036 1.52.055s1.234.047 1.527.055c.29.012.735.027.989.035.836.031 1.492.055 2.082.074.32.008.789.028 1.035.035 1.386.055 2.746.102 3.457.125.32.008.773.028 1.004.036.234.011.574.023.754.027.183.008.543.02.8.027.258.012.727.028 1.043.04.938.03 1.817.062 2.594.097.262.008 1.578.055 2.406.078.286.012.72.027.973.035.473.02 1.148.043 2.145.074l1.96.07c.313.012.762.028.985.04l.988.035c.797.027 1.422.047 2.012.07.969.035 1.55.055 2.129.074.324.008.761.024.98.036.219.007.633.023.926.035.29.008.621.02.734.027.184.008.676.027 2.336.082.262.008.688.024.946.031.254.012.726.028 1.05.04.32.011.836.027 1.149.039.308.007.754.023.988.035 1.422.054 2.606.097 3.414.125.36.008.817.027 1.012.039.2.008.375.015.398.011.028-.007.036-.03.055-.16l.04-.27c.116-.75.148-.976.132-.987a3 3 0 0 0-.39-.036c-.208-.011-.47-.03-.583-.039-.113-.008-.422-.035-.683-.05-.262-.02-.63-.047-.817-.063s-.515-.04-.73-.055c-.211-.015-.485-.035-.61-.047l-.628-.043a22 22 0 0 1-.594-.046c-.102-.008-.371-.032-.602-.043-.226-.016-.43-.032-.457-.036a5 5 0 0 0-.36-.027 298.59 298.59 0 0 0-1.078-.082l-.863-.062c-.261-.02-.699-.051-.976-.07l-.574-.048c-.04-.003-.254-.023-.477-.035a51 51 0 0 1-1.312-.101l-.52-.035c-.172-.012-.348-.02-.387-.028l-.57-.043c-.79-.058-1.191-.09-1.426-.11a17 17 0 0 0-.601-.042l-.871-.063-.973-.074c-.524-.035-.996-.074-1.524-.117a24 24 0 0 0-.617-.043c-.156-.012-.492-.035-.746-.055-.258-.02-.637-.047-.844-.062-.207-.016-.52-.04-.691-.055a19 19 0 0 0-.602-.043c-.16-.012-.312-.023-.343-.027a8 8 0 0 0-.477-.04c-.23-.011-.637-.042-.898-.062l-.852-.062c-.207-.012-.457-.035-.558-.043a18 18 0 0 0-.618-.047 12 12 0 0 1-.504-.035 17 17 0 0 0-.449-.04 50 50 0 0 1-.851-.058c-.258-.02-.649-.047-.871-.062-.223-.016-.543-.043-.711-.055-.168-.016-.426-.035-.575-.047a60 60 0 0 1-1.222-.09c-.13-.008-.406-.031-.621-.043-.36-.027-.54-.039-1.41-.11a24 24 0 0 0-.602-.042c-.297-.02-.895-.063-1.211-.09-.117-.012-.383-.031-.594-.047-.207-.015-.59-.043-.851-.058-.262-.024-.64-.051-.844-.067-.203-.015-.48-.035-.613-.047a33 33 0 0 1-.59-.043l-.836-.062c-.266-.024-.707-.055-.98-.074a90 90 0 0 1-1.391-.106c-.121-.008-.352-.027-.524-.035-.164-.012-.386-.027-.492-.04l-.586-.042a58 58 0 0 1-1.433-.11c-.16-.011-.426-.035-.594-.042a15 15 0 0 1-.36-.028 9 9 0 0 0-.457-.035 52 52 0 0 1-1.41-.101l-.578-.043-.707-.051a53 53 0 0 0-1.258-.094l-.316-.027-.465-.035-.52-.036c-.12-.011-.382-.03-.585-.046-.668-.047-1.102-.079-1.43-.106-.176-.016-.445-.039-.602-.047-.152-.008-.488-.035-.742-.055-.258-.02-.695-.05-.972-.07-.278-.02-.532-.039-.567-.047-.031-.004-.25-.02-.484-.035a29 29 0 0 1-.485-.035 10 10 0 0 0-.449-.035c-.55-.04-1.137-.078-1.875-.137-.258-.02-.637-.047-.847-.062-.204-.012-.454-.036-.547-.043a16 16 0 0 0-.602-.047 36 36 0 0 1-.879-.063c-.246-.02-.683-.05-.969-.07-.28-.02-.539-.04-.574-.047a23 23 0 0 0-.488-.035 9 9 0 0 1-.492-.04c-.035-.003-.242-.019-.461-.034-.961-.063-1.16-.078-1.356-.098-.191-.016-.347-.027-1.328-.098-.21-.015-.48-.035-.594-.046l-.574-.043-.601-.043c-.13-.012-.356-.028-.504-.04a54 54 0 0 1-1.293-.097 479.97 479.97 0 0 1-.988-.07c-.168-.016-.422-.036-.567-.047-.867-.059-1.043-.07-1.14-.082l-.583-.043c-.761-.055-1.195-.09-1.445-.11-.129-.011-.402-.031-.613-.047-.203-.011-.59-.039-.852-.058-.261-.02-.652-.047-.87-.067A11 11 0 0 1 20.8.898c-.094-.007-.356-.03-.582-.046a23 23 0 0 1-.469-.036 20 20 0 0 0-.484-.035 95 95 0 0 1-.891-.062c-.43-.035-.871-.07-1.77-.133-.207-.016-.527-.043-.718-.055l-.512-.039a7 7 0 0 1-.367-.027 93 93 0 0 0-1.34-.098c-.211-.012-.52-.039-.691-.054l-.485-.036a7 7 0 0 1-.375-.027c-.11-.008-.363-.031-.566-.043L9.844.082C9.633.066 9.313.039 9.14.027c-.34-.03-.5-.035-.5-.015m26.997 17.972c.164.059.414.196.441.239a.8.8 0 0 1-.152.175c-.567.551-.914 1.239-1.059 2.079-.047.28-.094.863-.082 1.003.067.7.172 1.051.438 1.465.093.149.3.395.43.512.288.273.8.574 1.144.672.07.023.098.039.098.062 0 .036-.172.352-.317.586-.36.57-.902 1.11-1.351 1.336-.344.176-.551.227-.918.227a2.24 2.24 0 0 1-1.063-.242 1.6 1.6 0 0 1-.453-.32c-.547-.528-.8-1.184-.875-2.262-.043-.637.062-1.618.242-2.266.418-1.473 1.227-2.594 2.246-3.105.422-.215.914-.278 1.23-.16m40.707 2.02c0 .043.02.18.047.312.105.555.351 1.395.632 2.168.043.114.118.32.165.461.046.137.113.325.144.414.328.934.477 1.743.43 2.34-.043.555-.16.926-.426 1.32-.356.54-.895.84-1.55.872-.364.015-.669-.04-.934-.176-.34-.168-.66-.578-.79-.996a4.6 4.6 0 0 1-.136-.805c-.016-.195-.043-.156.234-.336.465-.3.883-.703 1.18-1.129.207-.304.379-.726.476-1.183.043-.207.047-.27.047-.602 0-.355 0-.375-.054-.574a1.6 1.6 0 0 0-.227-.52 1 1 0 0 1-.07-.113c-.012-.035.133-.324.418-.832.07-.129.175-.324.226-.43.125-.254.13-.261.16-.261.02 0 .028.02.028.07m0 0"/><path d="M91.855 11.219a8.6 8.6 0 0 0-3.578 1.136 7.4 7.4 0 0 0-1.5 1.18c-.5.5-.808.895-1.172 1.496-.566.942-.937 2.04-1.101 3.235-.035.27-.04.855-.008 1.129.11.914.418 1.617 1.016 2.285.656.738 1.722 1.3 2.832 1.488.422.07.672.09 1.172.09.754 0 1.214-.063 1.918-.262a6.7 6.7 0 0 0 1.875-.867c.16-.11.218-.14.222-.117.012.058-.21.66-.383 1.023a6.4 6.4 0 0 1-1.449 1.942c-.625.543-1.324.949-2.027 1.171-.594.192-1.098.262-1.844.262-.812.004-1.433-.101-2.238-.375-.649-.222-1.137-.46-2.332-1.14-.29-.168-.543-.31-.559-.313-.031-.012-.035-.004-.035.07 0 .051.016.176.027.29.028.18.137 1.081.227 1.84.043.374.125 1.05.203 1.706.035.285.07.586.078.672.008.121.016.16.04.176.07.035.948.121 1.644.16.8.043 1.82-.004 2.68-.129 1.89-.27 3.53-.863 5.144-1.86a11.6 11.6 0 0 0 2.02-1.605c.617-.609.933-.976 1.351-1.558a11 11 0 0 0 1.461-2.852c.246-.734.465-1.64.574-2.367.09-.586.114-.957.114-1.727 0-.644-.004-.761-.04-1.03-.082-.638-.152-.97-.324-1.485a5.5 5.5 0 0 0-1.031-1.887c-.836-1-2.082-1.617-3.578-1.77a11 11 0 0 0-1.399-.007m1.403 1.578c.222.047.375.121.539.277.3.281.492.64.633 1.188.261 1.004.257 2.336 0 4.11-.063.413-.098.593-.137.671-.05.098-.367.535-.555.766-.23.285-.843.886-1.074 1.058a7 7 0 0 1-.883.551c-.27.133-.672.266-.949.312-.297.055-.691.047-.926-.015-.836-.223-1.37-.934-1.52-2.016-.046-.312-.046-1.129-.003-1.48.074-.606.207-1.2.363-1.637a9 9 0 0 1 .305-.684 6.7 6.7 0 0 1 1.148-1.68c.344-.374.64-.628 1.04-.894.671-.445 1.445-.648 2.019-.527m0 0"/></svg>