<svg version="1.1" id="Layer_1" xmlns="http://www.w3.org/2000/svg" xmlns:xlink="http://www.w3.org/1999/xlink" x="0px" y="0px"
	 width="100%" viewBox="0 0 960 720" enable-background="new 0 0 960 720" xml:space="preserve">
<path fill="#000000" opacity="1.000000" stroke="none" 
	d="
M520.968262,632.158447 
	C498.372559,637.948120 476.007904,638.897217 453.302399,635.414673 
	C420.254059,630.345581 392.793518,615.379517 371.871826,589.390991 
	C356.121429,569.826111 347.351135,547.320740 346.809357,521.829712 
	C346.119934,489.392609 357.271301,461.268127 377.113098,436.158661 
	C378.962616,433.818176 380.864655,431.519135 382.957794,428.934784 
	C380.748077,427.649841 378.568390,428.154083 376.528778,428.151550 
	C347.699219,428.115753 318.869476,428.153503 290.040009,428.091888 
	C287.876984,428.087250 285.151642,429.004120 283.896210,426.121246 
	C282.418457,422.727814 284.248718,420.017761 288.255920,419.910156 
	C296.439758,419.690338 304.143768,417.988800 310.684570,412.795990 
	C319.523865,405.778442 324.511505,396.556610 324.714539,385.264923 
	C325.017059,368.438934 324.843628,351.604187 324.850311,334.773163 
	C324.864441,299.277710 324.910919,263.782135 324.850189,228.286789 
	C324.818787,209.926285 317.232300,198.801865 300.469025,192.113800 
	C296.528687,190.541702 292.330444,190.537781 288.191864,190.269928 
	C285.936340,190.123932 283.841278,190.189667 283.670044,187.016190 
	C283.514069,184.124878 284.150665,182.299225 287.406738,181.717484 
	C297.701599,179.878189 307.888885,177.758301 317.594086,173.514084 
	C329.388306,168.356293 340.479095,158.757858 344.793762,148.964874 
	C343.993713,147.303848 342.323303,147.597290 340.922424,147.318436 
	C325.303711,144.209213 313.764893,131.055496 314.119965,115.149940 
	C314.478119,99.105835 321.778992,88.171997 338.822937,83.456680 
	C349.803833,80.418739 361.645752,81.307083 370.240662,90.971947 
	C378.882233,100.689316 383.127716,111.853920 379.568848,125.030090 
	C375.202057,141.197449 364.771973,152.940048 352.231262,163.371048 
	C343.019470,171.033127 332.579468,176.314835 320.714935,181.129898 
	C323.707092,182.489334 325.997528,182.043533 328.146667,182.046829 
	C359.975739,182.095337 391.804962,182.094971 423.634125,182.087280 
	C448.461517,182.081299 473.288910,182.048981 498.116302,182.029327 
	C499.282745,182.028397 500.452240,181.983948 501.614990,182.051590 
	C504.398041,182.213455 507.246246,182.513397 507.055725,186.304062 
	C506.873108,189.938431 504.189514,190.299057 501.308472,190.252335 
	C498.309540,190.203690 495.309387,190.202164 492.309937,190.216431 
	C480.146576,190.274277 475.190430,197.891068 480.544006,208.727127 
	C486.808228,221.406372 493.386383,233.930450 499.819305,246.526443 
	C506.853333,260.299530 513.866577,274.083282 520.922302,287.845184 
	C521.588135,289.143982 522.493103,290.320160 523.216248,291.443237 
	C526.148804,291.396179 527.172241,289.272308 528.451843,287.639282 
	C551.775208,257.874939 575.256042,228.230728 598.261719,198.222321 
	C606.761963,187.134659 617.367981,179.041870 630.634949,176.257568 
	C655.580933,171.022186 681.331299,180.729370 693.219971,207.323685 
	C700.910400,224.526550 700.277527,241.710251 689.439148,257.230682 
	C678.484680,272.917358 666.343079,287.782990 654.552185,302.875946 
	C631.379761,332.537964 608.110107,362.124146 584.843811,391.712708 
	C551.386230,434.261810 517.888550,476.779327 484.422882,519.322083 
	C469.904327,537.778503 455.366913,556.220642 440.951202,574.757263 
	C434.864929,582.583313 435.898651,588.727112 443.850372,594.761108 
	C463.335693,609.546997 485.432556,617.575745 509.664062,619.588745 
	C538.717468,622.002319 571.740295,601.435852 583.730103,574.150940 
	C593.753540,551.340759 595.282837,527.917114 589.519287,503.852600 
	C588.592102,499.981171 590.012146,498.190918 593.848816,499.158691 
	C605.283630,502.043121 616.661926,505.154236 628.044617,508.242035 
	C631.804932,509.262146 631.540039,512.289917 631.030151,515.153503 
	C627.631470,534.241638 620.617798,551.939026 609.774109,567.987671 
	C591.323059,595.295227 566.044312,614.234863 535.969727,627.054565 
	C531.247131,629.067566 526.231873,630.393799 520.968262,632.158447 
M408.451935,406.902191 
	C440.404694,384.020050 476.335327,375.204071 515.985840,377.108673 
	C514.757874,374.449554 513.879761,372.358978 512.848999,370.346588 
	C506.180389,357.327179 499.459686,344.334473 492.791107,331.315033 
	C471.636444,290.013428 450.545380,248.679153 429.293274,207.427780 
	C426.511169,202.027573 423.937592,196.365829 418.042694,193.173660 
	C406.657166,187.008224 388.269562,191.368988 378.599579,202.438492 
	C371.766113,210.260925 370.032196,219.565674 369.993103,229.382126 
	C369.880249,257.696533 369.939880,286.011627 369.932678,314.326447 
	C369.927002,336.645203 369.662354,358.967987 370.007904,381.281311 
	C370.244263,396.544250 375.650238,409.153778 390.653473,415.914185 
	C393.311523,417.111877 395.356140,416.920441 397.547607,415.191254 
	C400.943604,412.511627 404.417328,409.930450 408.451935,406.902191 
M485.876862,504.393829 
	C502.969940,482.683929 520.104797,461.006744 537.133972,439.246857 
	C543.324768,431.336273 542.395386,425.057861 534.208801,419.309662 
	C525.482727,413.182648 516.396606,407.670624 506.374115,403.813721 
	C484.308411,395.322174 462.005737,392.697540 439.125153,400.477966 
	C423.072571,405.936554 410.489410,415.893188 401.179932,429.893188 
	C385.837250,452.966125 383.106842,478.615112 387.837921,505.087524 
	C391.960541,528.155273 401.863434,548.999573 416.175751,567.640564 
	C420.941071,573.847107 428.230011,574.508789 434.007202,569.303650 
	C435.358948,568.085754 436.558838,566.673950 437.693115,565.243958 
	C453.623871,545.159973 469.531097,525.057312 485.876862,504.393829 
M625.333374,326.843506 
	C636.345093,312.827911 647.487732,298.912598 658.326843,284.764709 
	C666.876709,273.604889 669.200134,260.529785 665.902039,247.325806 
	C661.013855,227.755997 648.006348,215.855850 627.779663,212.569214 
	C613.202881,210.200653 599.872742,213.681946 589.775330,224.328064 
	C571.190674,243.922516 555.577820,266.021027 539.458374,287.627808 
	C532.480713,296.980835 532.498962,307.855713 537.302673,318.510498 
	C545.716125,337.171661 555.769958,355.005219 565.061218,373.223419 
	C570.298340,383.492279 579.622986,384.602020 586.804199,375.650482 
	C599.625732,359.668243 612.217163,343.501526 625.333374,326.843506 
z"/>
</svg>