<svg version="1.1" id="Layer_1" xmlns="http://www.w3.org/2000/svg" xmlns:xlink="http://www.w3.org/1999/xlink" x="0px" y="0px"
	 width="100%" viewBox="0 0 400 300" enable-background="new 0 0 400 300" xml:space="preserve">
<path fill="#020102" opacity="1.000000" stroke="none" 
	d="
M252.000000,301.000000 
	C169.333344,301.000000 87.166656,300.972687 5.000188,301.096008 
	C1.575929,301.101135 0.900213,300.424103 0.904390,296.999908 
	C1.023107,199.666748 1.023103,102.333382 0.904408,5.000214 
	C0.900233,1.576305 1.575927,0.902008 4.999982,0.904951 
	C135.666519,1.017259 266.333191,1.017250 396.999725,0.904989 
	C400.423218,0.902047 401.099823,1.575457 401.095642,4.999946 
	C400.976898,102.333115 400.976868,199.666504 401.095551,296.999664 
	C401.099701,300.423309 400.425781,301.107971 396.999908,301.097748 
	C348.833618,300.953857 300.666748,301.000000 252.000000,301.000000 
z"/>
<path fill="#F0032F" opacity="1.000000" stroke="none" 
	d="
M221.828064,116.803772 
	C222.057037,117.007904 222.267349,117.191048 222.280151,117.329895 
	C222.997498,119.423393 224.060684,120.271172 226.036346,118.353775 
	C226.096985,115.334663 226.046509,112.607391 226.076141,109.432556 
	C226.726425,105.554657 228.846863,104.484947 232.182983,104.452164 
	C237.348694,104.401405 242.478180,104.988182 247.630737,104.995880 
	C265.258148,105.022202 282.890228,105.218033 300.511292,104.904076 
	C310.822449,104.720360 321.134644,104.681839 331.442810,104.454575 
	C335.544037,104.364159 337.196808,105.868462 337.038605,109.976532 
	C336.846558,114.963715 337.045410,119.965324 336.979126,124.959557 
	C336.909637,130.198212 336.162628,130.956451 330.773010,130.977127 
	C316.454132,131.032074 302.134949,130.986710 287.815887,131.004776 
	C285.822571,131.007294 283.818237,130.843887 281.391907,131.414368 
	C280.199310,131.700546 279.453644,131.813950 278.329773,131.933655 
	C275.936920,134.597382 275.305145,140.662811 276.779022,143.053482 
	C277.920868,144.905533 279.662872,144.826752 281.575928,144.865402 
	C298.516449,145.207794 315.445984,144.288040 332.384827,144.487961 
	C335.499664,144.524734 337.004333,145.782898 336.990906,148.938751 
	C336.968231,154.262115 336.993286,159.585770 336.979919,164.909393 
	C336.972473,167.881088 335.678131,168.914581 332.625641,168.743454 
	C315.340240,167.774521 298.059052,169.416351 280.771484,168.978348 
	C277.416168,168.893311 275.912659,170.187943 275.967957,173.651611 
	C276.084564,180.952805 275.951874,188.257019 275.892700,195.560028 
	C275.859528,199.657089 274.601013,200.915604 270.599945,200.790787 
	C258.985596,200.428452 247.375748,199.724426 235.767639,201.246109 
	C229.649445,202.048157 229.186340,201.461456 225.582901,192.640533 
	C223.987320,188.272827 224.576035,184.182236 224.723236,179.727585 
	C225.610168,176.813858 225.006805,175.377655 222.080414,174.997055 
	C219.643188,174.680054 217.266907,173.964828 214.461761,174.749817 
	C212.996689,175.089706 211.857758,175.175430 210.388672,174.940582 
	C209.570206,174.849518 209.253708,173.877991 208.417953,174.828201 
	C206.875626,177.113525 205.961853,179.413742 204.262878,181.621460 
	C203.827759,182.231949 203.576736,182.573563 203.155823,183.170502 
	C202.871338,183.592102 202.755814,183.757721 202.456879,184.159409 
	C201.751877,184.985733 201.317719,185.623032 201.133591,186.722321 
	C200.876968,188.317719 200.371765,189.451157 199.067474,190.477173 
	C197.880798,191.180298 197.209412,191.909958 196.821518,193.272034 
	C196.304886,194.418686 195.679825,195.057831 194.614090,195.747833 
	C191.415161,196.722809 189.593643,198.774918 187.835892,201.480942 
	C180.813705,205.106781 174.302460,208.683792 166.742020,210.505814 
	C160.851837,211.925323 155.312393,211.464890 149.589752,211.160568 
	C148.290787,211.091476 146.750946,210.759384 146.717163,209.032318 
	C146.684586,207.366882 148.170807,206.932816 149.444214,206.629715 
	C156.296173,204.998871 162.339432,201.683426 168.447372,197.652725 
	C170.130859,196.800354 172.335159,197.672333 172.856079,195.006180 
	C172.945419,194.472534 172.986313,194.257385 173.119720,193.721710 
	C173.302307,193.195129 173.392395,192.989105 173.661942,192.495117 
	C175.047546,190.857483 175.981277,189.244217 177.928406,188.170807 
	C181.634964,186.704132 182.642426,183.298080 184.635513,180.390198 
	C184.715790,179.390030 184.779480,178.724594 184.822235,177.722687 
	C184.878098,176.947861 184.943695,176.510681 185.116776,175.760284 
	C185.341537,175.037491 185.506897,174.641251 185.842880,173.979187 
	C186.092102,173.526489 186.198486,173.351379 186.482956,172.931793 
	C187.168808,172.091843 187.636215,171.474838 187.758591,170.362885 
	C187.787277,169.433960 187.793167,168.806381 187.751068,167.844421 
	C187.725616,166.124512 187.740662,164.740372 188.004974,163.021790 
	C188.251099,162.009888 188.533524,161.383606 189.016724,160.486542 
	C189.537231,159.672668 189.982422,159.231003 190.723877,158.700333 
	C191.562515,158.181396 191.362640,157.671143 191.110123,156.869812 
	C190.503403,154.023117 191.276138,151.633377 192.030350,148.911346 
	C192.660370,147.602371 192.871002,146.598923 192.128448,145.232422 
	C191.558334,142.910553 191.576065,140.923141 192.152435,138.575851 
	C194.408203,134.040680 192.249115,129.845627 192.321182,125.660263 
	C192.478653,116.515594 188.903412,108.374458 185.114532,99.963226 
	C184.701416,99.546021 184.511444,99.406143 184.036804,99.059326 
	C183.372940,98.575424 182.992401,98.300316 182.317383,97.826141 
	C181.240875,97.049988 180.613556,96.325653 179.831482,95.247177 
	C178.049072,92.645592 175.070297,92.193581 173.310303,90.154106 
	C172.353455,89.045311 170.959183,87.914764 171.891113,86.266174 
	C172.777313,84.698494 174.402191,84.899124 175.905777,85.310387 
	C182.171432,87.024208 188.171875,89.465981 194.466705,92.169838 
	C199.006897,95.888184 204.044846,98.217796 208.648743,101.817963 
	C209.264069,102.111626 209.547379,102.275566 209.884674,102.761826 
	C210.592621,103.696739 210.822815,104.599297 211.346588,105.721237 
	C211.302994,107.427742 210.509720,109.336304 213.636444,108.405380 
	C214.614609,108.659042 215.138626,109.086159 216.028809,109.515091 
	C216.359070,109.578362 216.338638,109.647240 216.373398,109.656319 
	C216.844559,111.452278 218.496780,112.261116 219.761078,113.789459 
	C219.981537,114.019562 220.000000,114.000305 219.989685,114.008224 
	C220.680176,114.776443 220.853867,115.867203 221.828064,116.803772 
z"/>
<path fill="#FAFAFA" opacity="1.000000" stroke="none" 
	d="
M276.958984,198.349289 
	C298.826904,198.211258 320.320190,198.408661 341.807495,198.135208 
	C346.929932,198.070007 348.596863,199.530243 347.939240,204.519516 
	C347.529144,207.631134 347.670349,210.856964 347.923065,214.002701 
	C348.175873,217.149780 346.957947,217.981064 343.941437,217.947067 
	C331.779510,217.809906 319.614838,217.932175 307.451569,217.878250 
	C304.751434,217.866287 302.743927,217.752823 302.678436,221.636688 
	C302.614471,225.433929 304.378571,225.563202 307.212402,225.542435 
	C319.208893,225.454514 331.207977,225.606308 343.202545,225.429520 
	C346.499298,225.380936 347.831055,226.014297 347.838959,229.723175 
	C347.867676,243.208237 348.016479,243.215973 334.376923,243.196960 
	C325.212585,243.184189 316.046326,243.245956 306.885101,243.063812 
	C303.538940,242.997269 302.725616,244.267441 302.695190,247.476151 
	C302.663269,250.840561 303.750824,251.701660 306.984497,251.657700 
	C319.312622,251.490021 331.645233,251.669022 343.974060,251.530426 
	C346.888214,251.497665 348.203217,252.072784 347.950653,255.339813 
	C347.593140,259.963623 349.433167,265.966339 347.149261,268.902740 
	C344.713715,272.034149 338.438690,269.863922 333.857269,269.891296 
	C313.029633,270.015686 292.199585,269.830841 271.373566,270.052765 
	C267.038513,270.098938 265.480957,269.295715 265.555481,264.503632 
	C265.873993,244.015533 265.718903,223.520065 265.722046,202.565460 
	C267.238342,200.396866 269.194153,200.573532 271.166321,200.897629 
	C273.501343,201.281357 275.362427,200.637146 276.958984,198.349289 
z"/>
<path fill="#F9F9F9" opacity="1.000000" stroke="none" 
	d="
M263.567017,76.676613 
	C258.176666,88.415718 247.747849,91.876022 236.794571,93.910172 
	C224.054611,96.276161 211.288605,95.631310 198.345901,92.079086 
	C197.147980,92.159210 196.349670,92.121887 195.255829,91.949181 
	C194.764404,91.848099 194.570251,91.796471 194.094528,91.638718 
	C193.448654,91.367264 193.088013,91.194275 192.462540,90.880234 
	C192.019531,90.649010 191.845627,90.549950 191.422607,90.283813 
	C190.687515,89.766121 190.213654,89.398399 189.446732,88.919670 
	C188.138687,88.098648 187.152328,87.366524 186.342178,86.023468 
	C183.487137,82.436882 178.799194,78.708206 180.381760,74.963814 
	C181.617477,72.040047 187.596252,74.037064 191.455185,73.803291 
	C195.271942,73.572083 199.115479,73.827141 202.943405,73.724800 
	C207.265442,73.609253 211.022446,73.610977 214.398911,77.659416 
	C217.326920,81.170174 222.239502,80.665596 226.527832,79.002350 
	C227.785797,78.514442 229.045822,77.695900 229.151779,76.261299 
	C229.282867,74.486328 227.792465,73.704201 226.398911,73.122932 
	C221.744095,71.181358 216.724442,70.946938 211.829742,70.161858 
	C204.623489,69.006020 197.399033,67.902702 190.642731,64.993332 
	C184.382889,62.297741 179.481232,58.339336 178.906616,50.867390 
	C178.356369,43.711811 181.497238,38.372597 187.140717,34.293507 
	C192.814682,30.192383 199.370300,28.233519 206.149307,27.569723 
	C219.234589,26.288424 232.356064,25.629620 244.953262,30.791683 
	C252.511017,33.888691 258.262146,38.858673 261.745728,46.742363 
	C260.864288,49.502708 258.528687,49.313095 256.426422,49.348389 
	C249.292145,49.468151 242.155853,49.383175 235.020447,49.396175 
	C232.057037,49.401573 229.553421,48.588409 227.408325,46.401733 
	C224.588760,43.527534 221.075195,42.863331 217.314575,44.181816 
	C215.286865,44.892738 215.233627,46.165981 217.026321,47.356796 
	C218.443756,48.298359 220.127182,48.496647 221.753189,48.807495 
	C228.922089,50.177998 236.171204,51.095837 243.276810,52.840027 
	C247.681152,53.921154 251.780792,55.631481 255.665421,57.908783 
	C263.155853,62.299934 265.456146,67.560410 263.567017,76.676613 
z"/>
<path fill="#FBFAFA" opacity="1.000000" stroke="none" 
	d="
M261.872131,228.574768 
	C262.403076,233.736984 262.417145,238.707596 262.629517,243.669708 
	C262.761566,246.755707 260.836761,246.609818 258.727753,246.604660 
	C246.590363,246.575058 234.448669,246.773590 222.317688,246.493744 
	C218.221054,246.399246 217.179138,247.797623 217.396515,251.591370 
	C217.681412,256.563721 217.383911,261.566833 217.543304,266.550079 
	C217.623352,269.053162 216.969025,270.052399 214.234436,270.009155 
	C204.260864,269.851318 194.279419,269.780090 184.309525,270.025055 
	C180.868790,270.109619 180.185226,268.918854 180.211868,265.782837 
	C180.358749,248.492340 180.311539,231.200195 180.475983,213.462158 
	C181.029602,212.450607 181.636215,212.221970 182.260208,211.979080 
	C183.251602,211.593140 184.999283,211.875397 184.843811,210.307663 
	C184.705261,208.910492 182.963623,209.344955 181.667816,208.725677 
	C179.813995,207.001221 181.561646,206.254333 182.445236,205.009308 
	C183.010971,204.535309 183.351395,204.296906 183.958694,203.928833 
	C184.378479,203.686401 184.546936,203.596100 184.966766,203.382355 
	C185.381393,203.175552 185.544647,203.092209 186.166977,202.718689 
	C186.772568,202.320602 186.919052,202.212692 187.300827,201.957657 
	C187.694550,201.707352 187.852982,201.604141 188.246399,201.334167 
	C188.947891,200.760117 189.242416,200.213181 189.863892,199.490250 
	C191.411819,198.005096 193.078674,197.489365 195.144547,196.872772 
	C204.969452,196.251785 214.394608,196.338135 224.224121,196.807343 
	C224.872650,196.993896 225.117432,197.090866 225.675858,197.403137 
	C226.491577,199.946091 226.635223,202.715378 230.679718,201.089417 
	C233.153641,200.980240 235.262299,201.001907 237.786102,201.065369 
	C245.546875,202.181244 252.933990,201.398132 260.731506,201.571457 
	C261.449615,201.601196 261.736053,201.635864 262.373718,201.923523 
	C262.668152,206.156952 262.390503,210.150284 262.621796,214.113922 
	C262.820435,217.518600 261.831543,218.713577 258.238678,218.637711 
	C247.288620,218.406525 236.329407,218.451340 225.376083,218.583420 
	C217.210556,218.681885 217.373566,216.867279 217.763474,227.035889 
	C222.935486,228.639664 228.078598,227.816010 233.183594,227.980209 
	C242.598434,228.282990 252.029709,227.546051 261.872131,228.574768 
z"/>
<path fill="#FBFAFA" opacity="1.000000" stroke="none" 
	d="
M103.404968,90.815750 
	C100.418449,85.960518 97.726768,81.190636 95.185875,76.341721 
	C94.038841,74.152771 93.269844,74.156128 91.200500,75.675323 
	C86.364777,79.225410 85.567131,83.929306 86.260666,89.281975 
	C86.645355,92.250969 85.725273,93.345871 82.513611,93.260513 
	C73.863495,93.030632 65.201416,93.081596 56.548069,93.239395 
	C53.728291,93.290817 52.867001,92.443382 52.878357,89.585365 
	C52.953114,70.776054 52.946301,51.964981 52.735195,33.157074 
	C52.688488,28.995947 54.021549,27.832439 58.162979,28.031481 
	C66.302124,28.422659 74.473122,28.307171 82.626595,28.160383 
	C85.516037,28.108366 86.380310,29.095703 86.305878,31.889662 
	C86.142853,38.009415 86.255386,44.136513 86.255386,50.934570 
	C90.567619,48.024536 93.527962,44.316223 95.841805,40.647518 
	C102.304794,30.400169 110.876694,26.281031 122.913773,28.104712 
	C128.444183,28.942600 134.210785,28.221579 140.321381,28.148092 
	C142.494232,30.184290 140.609085,31.422886 139.507126,32.610874 
	C133.733521,38.835270 128.397079,45.458618 122.509850,51.561520 
	C119.740761,54.432045 119.705299,56.746826 121.762054,59.848557 
	C124.338799,63.734451 126.996811,67.573692 129.413483,71.561684 
	C130.601089,73.521492 132.225128,75.332428 132.032532,78.131790 
	C128.565857,80.273842 124.708511,80.007065 121.001450,81.569000 
	C120.008095,81.990211 119.338806,82.250092 118.374542,82.728615 
	C112.735420,84.555405 108.970856,89.007065 103.404968,90.815750 
z"/>
<path fill="#FCFBFC" opacity="1.000000" stroke="none" 
	d="
M89.920128,198.670288 
	C90.267479,214.283142 90.414726,229.596161 90.231583,244.905212 
	C90.186295,248.690933 91.344177,249.722794 95.040359,249.659027 
	C107.186325,249.449493 119.339447,249.678024 131.486969,249.519241 
	C134.491776,249.479965 135.622467,250.209686 135.438110,253.375397 
	C135.129089,258.681763 137.238113,265.641449 134.606567,268.882111 
	C131.879944,272.239838 124.636047,269.848816 119.379425,269.879425 
	C98.742393,269.999664 78.103577,269.848663 57.467266,270.020142 
	C53.937477,270.049469 53.021782,269.056030 53.052082,265.573639 
	C53.224392,245.769882 53.147774,225.963943 53.185116,205.707031 
	C54.352303,203.379608 56.314098,203.891083 57.969498,203.734421 
	C59.881741,203.553452 61.233089,202.578232 62.759388,201.053772 
	C63.228550,200.649353 63.424824,200.493042 63.935898,200.120682 
	C66.740700,198.413467 69.117447,196.590469 72.717834,197.238251 
	C78.587723,198.135666 84.200424,196.560287 89.920128,198.670288 
z"/>
<path fill="#FFFFFF" opacity="1.000000" stroke="none" 
	d="
M347.398651,67.746399 
	C348.300018,71.108788 348.105286,74.213661 347.459717,77.669090 
	C344.124115,79.063759 343.677277,82.108940 342.225342,84.812225 
	C342.065369,85.101768 342.020721,85.014511 342.061920,85.041061 
	C339.558350,86.586929 336.612610,87.426125 334.223999,89.848251 
	C323.466949,95.094582 312.245087,95.456627 300.456055,94.878838 
	C299.524231,94.389458 299.012115,94.138382 298.118591,94.366837 
	C293.690277,94.363564 289.617493,93.752846 285.333191,92.210037 
	C283.546967,90.180466 281.038544,89.739868 279.653351,87.721657 
	C278.781464,86.451309 277.565094,87.515617 276.237610,88.128494 
	C274.663422,87.491409 273.409973,86.756676 271.994568,85.751472 
	C271.576019,84.322350 270.589111,83.906563 269.498505,83.154228 
	C267.732452,81.875412 266.961700,80.247261 266.111298,78.315910 
	C265.640076,75.735260 265.951691,73.868973 268.868713,73.035721 
	C272.245880,72.465073 275.277710,72.499161 278.667053,72.940094 
	C280.460571,73.745163 281.901337,74.421257 283.779694,73.104156 
	C287.258392,72.393547 290.392151,72.418694 293.883331,73.028198 
	C296.399261,74.222305 295.956512,76.411407 296.423279,78.224396 
	C297.429474,82.132423 298.660309,82.455414 302.134949,79.482376 
	C304.399719,78.462761 306.439850,78.602997 308.845154,78.821213 
	C309.523590,78.961090 309.823181,79.082184 310.126129,79.192383 
	C311.990448,79.870605 313.097473,83.050903 315.451263,81.565651 
	C317.753571,80.112892 316.578979,77.492012 316.124420,74.980965 
	C315.500946,72.780251 314.457550,71.459892 312.057251,71.169266 
	C309.953644,70.610695 308.225586,70.449623 306.317474,71.853378 
	C297.187561,72.136353 288.713318,70.489647 280.125336,67.417336 
	C277.753052,63.604565 274.422607,62.330597 270.171204,61.961746 
	C268.808105,61.497307 268.053772,60.846085 267.395142,59.575809 
	C267.004272,55.476212 269.338745,50.978401 263.949219,48.364353 
	C263.491455,47.623074 263.459869,47.137230 263.760834,46.312801 
	C263.949738,45.986195 264.281128,45.891258 264.452881,45.876671 
	C268.618256,44.177269 268.302460,40.118114 269.783203,36.646606 
	C270.015503,36.372417 270.167847,35.959961 270.381287,35.907307 
	C273.504181,34.798916 276.406952,33.554134 279.557587,33.681580 
	C283.172607,33.827808 285.451569,32.333939 286.737183,28.596376 
	C296.293549,26.219582 305.687347,26.693432 315.534454,27.232971 
	C316.453247,27.637985 316.926483,27.901554 317.761047,27.921825 
	C318.477722,27.931923 318.922668,27.956814 319.680298,28.108440 
	C323.354370,31.183838 326.807617,34.004139 330.887573,35.933487 
	C331.639679,36.289139 332.602600,36.550575 332.941406,37.261772 
	C335.176300,41.952980 339.695801,42.573009 344.351501,43.677948 
	C345.637482,45.499146 348.638672,47.675156 343.431366,48.220078 
	C342.577545,48.053780 342.114075,48.037380 341.303223,48.086418 
	C332.936005,48.920643 324.896271,48.405861 316.430969,48.274689 
	C315.163391,47.355049 315.032867,46.167377 313.922241,45.394516 
	C313.720551,45.253723 313.840302,45.130970 313.787842,45.199173 
	C312.408508,39.608406 311.082458,39.039173 304.245880,41.699181 
	C303.604187,42.017063 303.210327,42.110107 302.514526,42.154160 
	C302.058868,42.169518 301.899139,42.301167 301.752319,42.288082 
	C299.598816,42.096291 298.445465,38.300980 296.333252,39.861736 
	C294.126282,41.492508 296.321289,44.146915 296.680573,46.322044 
	C297.149658,49.162075 298.701324,50.835728 301.881714,50.269440 
	C302.705597,50.122746 303.519348,50.547821 304.680847,50.352783 
	C307.402405,50.536808 309.801422,50.834633 312.594727,51.252438 
	C313.448730,51.645317 313.910828,51.912754 314.714264,52.033508 
	C315.738403,52.074181 316.496674,52.087868 317.622650,52.206299 
	C320.131165,54.918388 322.668091,55.964092 326.211487,55.525841 
	C330.897827,54.946224 335.152222,56.949089 339.627808,59.031307 
	C340.875336,59.577991 341.771362,60.092770 342.805664,60.894890 
	C344.270264,63.347149 345.070038,65.868973 347.398651,67.746399 
z"/>
<path fill="#F1032F" opacity="1.000000" stroke="none" 
	d="
M90.491196,162.184921 
	C90.161079,161.562943 90.007507,161.228668 89.830696,160.617767 
	C89.542892,159.559006 89.528976,158.728546 89.262680,157.534241 
	C89.425865,152.958328 90.335564,148.759567 88.591141,144.304443 
	C87.749695,141.944000 88.088089,139.860794 88.070908,137.436188 
	C88.201324,135.734772 89.831505,134.867188 89.196678,132.995178 
	C89.032188,131.785416 89.054405,130.911499 89.432114,129.744507 
	C89.981689,128.440857 90.349884,127.434837 90.057503,125.965836 
	C89.853348,123.880951 90.305077,122.213448 90.758850,120.191673 
	C91.053192,118.852165 91.184669,117.849258 91.428970,116.484421 
	C92.078911,114.654823 93.132423,113.360321 93.054184,111.340683 
	C93.108498,110.555984 93.140472,110.109444 93.288300,109.346329 
	C93.455154,108.596901 93.593094,108.195396 94.041992,107.592804 
	C95.404076,106.602478 95.789314,105.575340 95.304817,103.941269 
	C95.230713,103.192513 95.298088,102.771317 95.556519,102.056152 
	C95.672218,101.751030 95.885849,101.814392 95.782776,101.789040 
	C96.446388,101.666161 96.485695,101.024323 96.822708,100.230904 
	C97.276649,99.840805 97.513252,99.644119 97.825516,99.198044 
	C98.257545,98.770683 98.520988,98.494125 98.772385,97.881149 
	C98.813065,97.594948 98.949417,97.232513 99.111115,97.126007 
	C99.756721,96.565056 100.259209,96.127579 100.811508,95.287354 
	C101.010178,95.020706 100.948936,95.019241 100.942513,94.989296 
	C105.932007,90.473892 111.081642,86.198936 117.464706,83.089355 
	C118.775711,82.913475 119.794426,82.814491 120.657486,83.258614 
	C123.643738,84.795334 125.490952,83.739929 126.873497,80.568176 
	C129.364777,78.776520 131.909058,78.875374 134.793610,79.002792 
	C136.922806,79.689766 138.337128,82.944809 140.935638,79.666138 
	C144.103760,79.825310 147.648071,79.412170 146.075500,84.472458 
	C144.968826,85.303192 144.044617,85.659454 142.730804,86.008873 
	C142.147430,86.126984 141.914642,86.164032 141.336029,86.241798 
	C137.773956,86.470413 134.875900,87.385735 132.414398,90.125549 
	C125.723015,92.390915 120.954727,96.305641 118.208031,102.953575 
	C118.001625,103.497864 117.912292,103.713852 117.674454,104.249466 
	C117.417122,104.778557 117.308311,104.988029 117.019257,105.503235 
	C116.704926,106.003914 116.570831,106.198860 116.211830,106.667290 
	C111.303810,111.611046 111.742767,118.087288 109.930054,124.126778 
	C109.375320,125.394661 108.664162,126.264946 108.994324,127.755577 
	C109.289429,129.709305 109.350906,131.330765 108.838745,133.268600 
	C106.428551,136.031693 103.845772,138.421951 107.535187,142.124908 
	C107.573715,146.688095 107.499146,150.950653 106.790565,155.143463 
	C106.237106,158.418427 106.250267,161.487579 109.166344,163.616867 
	C112.332855,165.929016 115.047531,164.074081 117.958496,162.043350 
	C118.651436,161.548889 119.079773,161.318771 119.866440,160.987976 
	C120.663689,160.686356 121.126518,160.534943 121.947281,160.302155 
	C123.022926,160.061951 123.750793,160.048477 124.839233,160.170563 
	C127.500214,160.771790 129.830734,161.180969 132.518738,161.589447 
	C134.869339,161.767365 136.559708,160.750946 138.729462,160.073364 
	C139.600693,159.870026 140.112091,159.801788 141.027954,159.751801 
	C143.784882,159.853760 145.851547,160.334427 145.867371,163.716522 
	C145.705856,164.357986 145.602280,164.601089 145.233414,165.132263 
	C142.154449,167.065674 138.382889,165.322418 135.546448,168.199280 
	C134.774033,168.592789 134.298645,168.718719 133.439835,168.765121 
	C127.290665,167.243713 123.037453,171.362778 117.790596,173.058319 
	C117.312355,173.392578 117.110161,173.509857 116.581299,173.752258 
	C115.189110,174.455841 113.610542,173.566071 112.927216,175.345978 
	C113.296600,176.391312 113.787964,177.034378 114.476746,177.935211 
	C115.472015,180.019913 116.286438,181.836105 116.962029,184.055222 
	C117.218269,185.841644 117.448204,187.288513 119.049332,188.436707 
	C119.402916,188.850998 119.529228,189.031235 119.812408,189.504150 
	C120.783730,191.985321 122.516327,193.423233 124.435532,195.148132 
	C125.440079,195.972931 126.134277,196.619034 126.919571,197.683640 
	C128.010498,200.099640 130.191406,200.978348 131.550232,202.636795 
	C132.547913,203.854477 133.273148,205.224121 132.257034,206.709915 
	C131.193253,208.265366 129.848663,207.130447 128.673340,206.775330 
	C122.365379,204.869522 117.665672,200.034714 111.452393,197.183807 
	C110.873268,196.760330 110.582687,196.574127 110.157227,196.163315 
	C109.282249,194.968613 108.806564,193.734253 107.186508,193.219254 
	C106.915329,193.065903 106.998611,193.013245 106.968231,193.052048 
	C105.613464,191.384811 104.125443,189.837372 102.216537,188.247986 
	C101.722710,187.799576 101.467583,187.569702 101.124893,187.092651 
	C99.778687,184.802170 98.505760,182.777084 95.439590,182.821167 
	C94.430313,183.336166 93.703468,183.709717 92.679474,184.175171 
	C91.989616,184.292343 91.602577,184.352661 91.235481,184.747894 
	C91.189117,185.202362 91.129608,185.363892 90.972290,185.764420 
	C90.367287,186.845947 90.070419,187.795288 89.565361,188.635712 
	C88.007248,191.228439 86.219551,192.265900 83.892662,189.423599 
	C83.057343,188.403244 82.194557,187.407623 80.390900,187.318787 
	C78.715950,187.241409 77.404877,187.285385 76.201904,188.605576 
	C75.364799,190.408661 76.772110,190.721329 77.528694,191.431015 
	C78.953659,192.767700 79.105499,194.137970 77.266106,195.688202 
	C72.493248,196.610153 67.597321,196.196991 64.287582,200.848053 
	C64.069374,201.139572 64.048721,201.054825 64.090897,201.065933 
	C59.840416,203.834366 55.276611,204.193314 50.063988,202.420410 
	C49.633739,202.221893 49.295013,202.149857 49.165497,202.034943 
	C47.893848,200.317780 47.829571,198.614105 48.813606,196.469574 
	C49.069668,196.103256 49.016277,196.016159 49.059753,196.042969 
	C52.354416,193.807892 56.228443,192.706985 59.746323,190.236603 
	C59.988842,189.983032 60.000305,190.000000 59.992104,189.994141 
	C64.241386,183.701126 67.082138,176.711700 69.842850,169.706177 
	C70.630905,167.706421 68.934502,166.416931 67.522354,165.179916 
	C66.614563,164.384705 66.099091,163.217194 66.956764,162.088943 
	C67.791428,160.990952 69.008537,161.058533 70.088654,161.709564 
	C72.090454,162.916077 74.318237,163.595276 76.730064,164.782181 
	C77.369003,165.068573 77.626961,165.244553 77.915924,165.734512 
	C78.461540,166.428574 78.461128,167.095932 79.008263,167.792648 
	C79.283150,167.937943 79.462204,168.139694 79.455147,168.274384 
	C80.094376,170.835571 80.030998,173.292831 79.877251,175.774918 
	C79.677124,179.005966 81.310143,179.807480 83.790497,178.061401 
	C85.607948,176.781952 87.741539,176.382263 89.704865,174.936462 
	C90.391243,174.151520 90.941765,173.690338 91.736893,173.115829 
	C92.416573,172.596649 92.808510,172.158020 93.130798,171.318207 
	C93.159836,170.274979 93.103058,169.514954 93.051285,168.373825 
	C92.856232,165.894745 91.577545,164.263504 90.491196,162.184921 
z"/>
<path fill="#FBFAFA" opacity="1.000000" stroke="none" 
	d="
M175.617676,209.583908 
	C175.954941,228.467896 175.850220,247.117905 175.955948,265.766724 
	C175.974045,268.961609 175.224243,270.096222 171.830582,270.015350 
	C162.177734,269.785309 152.511337,269.764618 142.859909,270.022552 
	C139.283905,270.118103 138.430954,268.994385 138.460068,265.565002 
	C138.611389,247.749222 138.516800,229.931335 138.494614,211.692352 
	C139.403244,209.942551 140.813568,210.045258 142.066833,210.308990 
	C152.744675,212.556046 163.304352,212.027542 173.790161,209.159180 
	C174.271072,209.027649 174.767273,209.231812 175.617676,209.583908 
z"/>
<path fill="#FBF9FA" opacity="1.000000" stroke="none" 
	d="
M143.114960,28.429245 
	C153.034271,28.201744 162.524689,28.360304 172.006134,28.137289 
	C175.484909,28.055464 176.478973,29.067638 176.443405,32.560955 
	C176.272278,49.369370 176.374649,66.180565 176.384155,83.453751 
	C175.168823,85.237183 173.648102,84.947533 172.198837,84.585587 
	C163.954208,82.526566 155.599106,81.129608 147.151093,80.250725 
	C145.460083,80.074806 143.914764,79.497253 142.432159,77.849884 
	C141.308334,75.407990 141.390839,73.240677 141.386154,71.095924 
	C141.360184,59.187145 141.361618,47.278305 141.384827,35.369522 
	C141.389343,33.059345 141.285751,30.712139 143.114960,28.429245 
z"/>
<path fill="#111111" opacity="1.000000" stroke="none" 
	d="
M295.219635,74.400162 
	C291.295532,74.049995 287.595886,73.967583 283.449768,74.008194 
	C282.297607,74.611343 281.537872,74.783897 280.350281,74.337326 
	C276.290894,74.073318 272.585327,74.007622 268.430359,74.057724 
	C266.710205,74.488800 265.366302,74.725739 265.249512,76.756714 
	C264.657715,77.021500 264.289948,77.045578 263.646271,77.051445 
	C264.765747,67.534142 261.209991,61.246914 252.178207,57.264923 
	C242.486725,52.992069 231.962830,52.305012 221.766022,50.207001 
	C220.316757,49.908810 218.870743,49.562695 217.458389,49.125248 
	C215.555588,48.535904 213.268097,47.941772 213.571869,45.408558 
	C213.860443,43.001732 216.309036,42.570606 218.177658,42.259499 
	C222.325729,41.568890 226.235321,42.266132 228.777130,46.067410 
	C229.673981,47.408669 230.535568,48.528439 232.199768,48.495670 
	C241.981567,48.303074 251.789886,49.141342 261.762543,47.381912 
	C262.465118,46.724499 262.946960,46.451660 263.689270,46.082508 
	C263.967010,46.435581 263.984283,46.884964 264.084595,47.665009 
	C265.943573,51.369518 266.360016,55.186806 267.752686,59.081539 
	C268.283447,59.972317 268.725586,60.496143 269.426239,61.070457 
	C273.097198,62.327057 276.543549,63.459122 279.711487,65.932205 
	C288.293488,69.533043 297.245605,70.005020 306.428772,71.526627 
	C308.573364,70.605751 310.220123,71.441162 312.252502,71.866211 
	C313.925903,72.402344 314.833618,73.275955 315.534180,74.889458 
	C315.640198,78.599968 314.186737,80.309952 310.295166,79.826157 
	C307.598969,79.885910 305.275421,79.809441 302.513489,79.728065 
	C298.359894,80.012062 296.552704,77.798157 295.219635,74.400162 
z"/>
<path fill="#090909" opacity="1.000000" stroke="none" 
	d="
M143.086700,28.139505 
	C142.586533,37.965679 143.266144,47.764999 143.061584,57.549587 
	C142.926178,64.026611 142.972290,70.507431 142.892258,77.447830 
	C139.644623,80.311699 136.206177,79.056725 132.466141,78.233505 
	C128.022064,71.496078 124.103645,64.958168 119.752434,58.722267 
	C117.873528,56.029537 118.483154,54.547817 120.463936,52.414352 
	C126.777794,45.613792 132.892319,38.627472 139.038193,31.672544 
	C139.782318,30.830448 140.247253,29.741621 140.807007,28.427929 
	C141.390305,28.087357 142.008133,28.085999 143.086700,28.139505 
z"/>
<path fill="#C21637" opacity="1.000000" stroke="none" 
	d="
M225.407562,199.385712 
	C225.296066,199.002472 225.269073,198.557404 225.397858,198.375427 
	C224.603577,196.357346 224.407104,194.508774 225.779022,192.303635 
	C227.621048,192.136017 227.981796,193.191406 228.024033,194.450027 
	C228.228287,200.537186 232.259506,200.508270 236.677765,199.892044 
	C248.096176,198.299545 259.548157,198.774109 270.974274,199.621536 
	C273.558502,199.813187 274.896942,199.440674 274.921387,196.784943 
	C274.994293,188.864426 275.128204,180.941101 274.984192,173.023483 
	C274.918854,169.430771 276.087158,167.993515 279.848969,167.953583 
	C295.970673,167.782410 312.088776,167.296143 328.210236,167.065338 
	C336.025696,166.953415 336.027740,167.093765 336.025513,158.952957 
	C336.021729,145.053253 336.016968,145.275543 322.125153,144.980209 
	C313.289368,144.792343 304.545746,145.916321 295.738770,146.038727 
	C290.470703,146.111938 285.250275,143.910538 279.929047,145.818085 
	C279.199493,146.079605 277.940735,145.483826 277.181030,144.933960 
	C274.078400,142.688324 274.343292,134.215591 277.736664,131.699158 
	C276.443085,134.934631 277.087036,138.146149 277.114197,141.266510 
	C277.143005,144.577454 279.755127,144.062225 281.858795,144.063568 
	C298.158234,144.074005 314.457703,144.057236 330.757141,144.056458 
	C337.802338,144.056122 337.773468,144.063980 337.704437,151.277802 
	C337.661469,155.766907 337.457184,160.278152 337.813293,164.740494 
	C338.143311,168.875824 336.429932,169.840088 332.637878,169.804962 
	C316.007324,169.650909 299.373505,169.832672 282.743561,169.649841 
	C278.502228,169.603210 276.683105,170.854416 276.863739,175.313705 
	C277.159668,182.616943 277.025146,189.937622 277.203979,197.718613 
	C277.283417,200.705551 276.252777,202.053268 273.477295,201.868500 
	C271.214722,201.717880 268.928711,201.918716 266.180298,202.033676 
	C264.958527,202.065186 264.209534,202.026749 263.092773,202.082413 
	C262.724945,202.176498 262.370880,202.422089 262.161499,202.371155 
	C254.309570,201.588562 246.646759,202.208771 238.555206,201.955475 
	C235.679855,201.912582 233.246033,201.890610 230.357239,201.901215 
	C228.141678,201.818619 225.955856,202.564423 225.407562,199.385712 
z"/>
<path fill="#C21637" opacity="1.000000" stroke="none" 
	d="
M281.400055,131.722549 
	C282.077850,128.990768 284.403259,130.081894 286.199066,130.071198 
	C301.002777,129.982971 315.808594,129.913315 330.610657,130.093704 
	C334.733429,130.143936 336.320251,128.765869 336.092865,124.611496 
	C335.829620,119.802109 335.843170,114.957199 336.094269,110.146378 
	C336.301910,106.168449 334.683380,105.073357 330.852631,104.954315 
	C317.219574,104.530640 303.651855,106.066956 290.035767,105.977875 
	C276.612061,105.890053 263.186554,106.042793 249.763428,105.918228 
	C244.640488,105.870689 239.502884,105.524216 234.407990,104.978058 
	C230.862778,104.598030 228.396790,105.654114 226.509399,108.921997 
	C224.841446,105.715553 225.596207,103.944199 229.468719,103.947853 
	C264.218140,103.980644 298.967651,103.987396 333.716919,103.917999 
	C336.635101,103.912170 337.963837,104.727684 337.876556,107.860603 
	C337.691284,114.506805 337.670197,121.161728 337.773499,127.810097 
	C337.825104,131.132782 336.357086,132.043839 333.227875,132.018036 
	C316.104340,131.876862 298.979523,131.894745 281.400055,131.722549 
z"/>
<path fill="#C22242" opacity="1.000000" stroke="none" 
	d="
M176.259583,209.593567 
	C163.852493,213.240234 151.597809,213.590027 138.860077,211.253571 
	C130.742447,208.096802 122.440994,206.163239 115.641586,200.918442 
	C114.208832,199.813278 112.789421,198.690796 111.263855,197.261414 
	C113.765594,196.833862 115.956482,197.714203 117.907753,199.457245 
	C121.263504,202.454834 125.345078,204.268372 129.354904,206.177078 
	C130.060593,206.513000 130.881744,207.140823 131.567856,206.284286 
	C132.333069,205.328995 131.753891,204.445511 131.124954,203.642944 
	C129.640808,201.749100 126.555046,201.408508 126.130402,198.129028 
	C128.389267,196.415512 129.896881,197.929626 131.390564,199.218750 
	C133.401169,200.954025 135.324219,202.791550 138.292099,203.706177 
	C147.822922,206.159241 155.652100,203.025589 163.306244,197.652588 
	C165.510437,196.657196 167.212799,195.325455 169.771149,195.665222 
	C170.414047,196.300034 170.508438,196.799515 170.152710,197.635330 
	C163.183319,203.041733 155.844376,206.862549 147.374008,208.350876 
	C147.403000,208.806320 147.431976,209.261780 147.460953,209.717224 
	C152.011688,209.973572 156.657379,210.920074 161.088928,210.310272 
	C166.536743,209.560623 171.825058,207.577164 177.145508,206.002563 
	C180.757141,204.933701 182.931931,200.957611 187.713013,201.013000 
	C188.371185,201.241455 188.425140,201.404327 188.345764,201.787292 
	C188.212402,202.007385 188.056488,202.069977 188.004608,202.136063 
	C187.800232,202.296860 187.647736,202.391556 187.323578,202.693741 
	C187.151947,202.901215 186.987747,202.976624 186.927917,203.044312 
	C186.739319,203.242813 186.610565,203.373642 186.236237,203.629028 
	C185.813736,203.850052 185.636795,203.946503 185.212677,204.216949 
	C184.798965,204.432327 184.632401,204.473694 184.335312,204.736954 
	C183.135971,205.733017 182.067184,206.507202 180.979065,207.616577 
	C180.833206,208.071808 180.706680,208.191895 180.403656,208.118805 
	C178.567032,207.310638 177.433945,208.045593 176.259583,209.593567 
z"/>
<path fill="#C21637" opacity="1.000000" stroke="none" 
	d="
M131.702606,77.968384 
	C135.398758,77.962448 138.681564,78.013367 142.405853,77.986687 
	C153.772339,79.820694 164.844284,80.945450 175.970428,83.967133 
	C179.070236,85.934052 182.558548,85.932915 185.780762,87.684761 
	C187.090042,87.453651 187.870773,87.925346 188.960938,88.457794 
	C190.029846,89.000191 190.843323,89.307045 191.972687,89.617355 
	C192.296509,89.602341 192.137619,89.821320 192.189026,89.696190 
	C192.281357,90.465858 193.000214,90.475700 193.944611,90.615295 
	C194.275513,90.607529 194.319122,90.583954 194.341217,90.572701 
	C194.178528,91.307175 194.921707,91.532738 195.032837,92.575134 
	C188.049393,91.942734 182.472107,87.203323 175.545975,86.310959 
	C174.615036,86.191017 173.655334,86.294456 172.601074,86.294456 
	C173.184296,91.450470 179.422287,90.623871 180.837067,94.977570 
	C179.392410,96.048798 178.095322,95.307388 176.424072,94.875412 
	C175.638763,94.593552 175.195541,94.410797 174.416916,94.072723 
	C173.850632,93.823174 173.624313,93.717827 173.061310,93.439873 
	C165.737747,89.154564 158.170593,86.932991 150.107346,86.330597 
	C148.310410,86.196350 146.408051,86.461189 144.880280,84.576805 
	C146.554367,82.054436 146.554367,82.054436 141.350342,80.042542 
	C139.693970,81.071892 138.285217,81.335571 136.373749,80.263718 
	C133.235001,80.010124 130.427704,79.639000 127.392914,80.933975 
	C124.893494,83.104111 122.652145,84.093147 119.989243,81.429733 
	C123.443489,78.846191 127.466248,78.817368 131.702606,77.968384 
z"/>
<path fill="#FAFAFA" opacity="1.000000" stroke="none" 
	d="
M344.679169,43.362335 
	C339.759460,44.351147 335.631531,44.291142 332.520447,38.815563 
	C330.838013,35.854473 326.284851,34.488792 322.962341,32.511673 
	C321.508942,31.646803 319.954803,31.002144 319.999084,28.591732 
	C330.327057,29.620836 338.948792,33.865311 344.679169,43.362335 
z"/>
<path fill="#D50A2E" opacity="1.000000" stroke="none" 
	d="
M79.799957,186.368958 
	C81.066460,185.975937 82.556175,185.766953 83.111542,186.812210 
	C85.973686,192.198959 88.094910,189.046158 90.593292,186.164642 
	C92.497704,188.077026 87.197990,192.463089 93.595093,193.184082 
	C95.386002,195.392303 94.211678,196.420868 91.976570,197.321503 
	C87.050339,197.444641 82.512840,197.776016 77.649750,196.668945 
	C77.093323,196.236832 76.915817,196.010574 76.884735,195.378571 
	C78.529732,193.398071 78.062996,192.395432 76.073669,192.011871 
	C73.776901,191.569031 73.706223,190.231537 74.760712,188.235992 
	C76.576195,187.514893 79.587074,192.252960 79.799957,186.368958 
z"/>
<path fill="#BD102F" opacity="1.000000" stroke="none" 
	d="
M92.362900,197.387146 
	C92.643669,195.960220 94.229782,195.558334 93.957718,193.622986 
	C100.179596,194.284927 105.685188,196.852951 110.538528,200.835953 
	C111.540932,201.658554 113.087936,202.607803 112.397354,203.982086 
	C111.525551,205.716980 109.691719,204.848480 108.393646,204.330597 
	C103.145866,202.236877 97.956886,199.995758 92.362900,197.387146 
z"/>
<path fill="#BB1033" opacity="1.000000" stroke="none" 
	d="
M76.928467,164.654861 
	C74.423561,165.255203 72.208855,164.302200 70.172119,162.747818 
	C69.347237,162.118301 68.296822,161.663040 67.559662,162.655472 
	C66.979179,163.436966 67.672539,164.205200 68.372017,164.684937 
	C71.740021,166.994797 71.220230,169.787750 69.597061,172.898026 
	C66.633133,178.577499 65.092041,184.996292 60.350395,189.965637 
	C62.743370,183.954010 65.436539,177.888092 68.294357,171.900757 
	C69.467155,169.443695 69.520767,167.620590 66.975937,165.956955 
	C65.484619,164.982025 63.819427,163.253418 64.915260,161.406921 
	C66.143005,159.338165 68.465385,160.022888 70.304153,160.890076 
	C72.518425,161.934357 75.249611,162.037827 76.928467,164.654861 
z"/>
<path fill="#C6AFB3" opacity="1.000000" stroke="none" 
	d="
M262.190521,228.385376 
	C248.856110,228.803360 235.406982,228.844223 221.957825,228.858246 
	C220.653595,228.859604 219.278244,229.074066 217.999359,227.792328 
	C230.811661,227.463837 243.754623,227.474670 256.697144,227.554520 
	C258.487854,227.565567 260.346008,227.124435 262.190521,228.385376 
z"/>
<path fill="#FAFAFA" opacity="1.000000" stroke="none" 
	d="
M304.680725,50.044834 
	C300.693848,53.191730 297.386505,52.474289 295.945343,48.220840 
	C295.475037,46.832821 295.237122,45.367832 294.821930,43.958969 
	C294.179138,41.777828 292.770630,38.751793 295.306183,37.829231 
	C297.806274,36.919567 300.381958,38.932972 301.921143,41.897282 
	C300.987183,43.411587 298.045685,43.311180 298.605560,46.039875 
	C299.225189,49.059460 302.328339,48.732632 304.680725,50.044834 
z"/>
<path fill="#FAFAFA" opacity="1.000000" stroke="none" 
	d="
M286.637665,28.269234 
	C286.918457,34.657574 286.716858,34.780113 280.265198,35.033592 
	C277.339233,35.148548 274.427490,35.625118 271.052002,35.896149 
	C274.789520,31.197861 280.715912,30.097311 286.637665,28.269234 
z"/>
<path fill="#FAFAFA" opacity="1.000000" stroke="none" 
	d="
M339.779419,58.774227 
	C339.404236,59.784096 338.579956,60.239979 337.834198,59.655087 
	C333.760529,56.460114 329.171936,56.303837 324.311737,56.949211 
	C321.318817,57.346630 318.579865,56.810692 317.998535,52.679317 
	C325.496857,53.284698 332.820221,54.898823 339.779419,58.774227 
z"/>
<path fill="#503F42" opacity="1.000000" stroke="none" 
	d="
M91.567123,196.936218 
	C91.979591,196.965271 92.008865,197.300980 92.005432,197.467957 
	C91.588173,198.010223 91.174347,198.385483 90.501350,198.866180 
	C84.408562,198.748352 78.574944,198.525101 72.366692,198.143112 
	C72.048332,194.808243 74.441284,195.691788 76.643692,195.647415 
	C81.751686,196.128555 86.544106,195.404892 91.567123,196.936218 
z"/>
<path fill="#C21637" opacity="1.000000" stroke="none" 
	d="
M118.187256,83.627205 
	C111.774147,86.507690 107.609673,92.048805 101.298294,94.951767 
	C101.579140,93.742165 102.222183,92.524979 102.956932,91.035202 
	C107.911545,88.031868 111.817856,83.772408 117.577438,81.866585 
	C118.323639,82.250397 118.484398,82.738701 118.187256,83.627205 
z"/>
<path fill="#FAFAFA" opacity="1.000000" stroke="none" 
	d="
M304.384338,42.014511 
	C305.743256,36.560898 310.271637,38.977364 313.247345,39.341015 
	C316.836090,39.779579 313.337646,42.770691 313.730103,44.974884 
	C311.110382,43.102047 308.208038,41.883114 304.384338,42.014511 
z"/>
<path fill="#BB1033" opacity="1.000000" stroke="none" 
	d="
M89.464798,174.664871 
	C88.362488,177.670959 85.133125,178.542221 82.493896,179.702606 
	C80.431259,180.609482 78.031136,178.948166 78.576248,176.219147 
	C79.038933,173.902740 78.782761,171.603638 79.317146,168.870972 
	C81.251633,170.040085 81.232010,172.253784 80.947754,174.309296 
	C80.417397,178.144516 81.785225,178.192505 84.584671,176.567612 
	C85.975533,175.760315 87.580673,175.322174 89.464798,174.664871 
z"/>
<path fill="#BB1033" opacity="1.000000" stroke="none" 
	d="
M49.792419,202.520386 
	C54.167850,201.691650 58.832302,202.632797 63.701530,201.045502 
	C62.067215,205.547729 58.075363,205.472534 53.637741,205.299820 
	C52.126652,204.443161 51.038879,203.631027 49.792419,202.520386 
z"/>
<path fill="#E50A36" opacity="1.000000" stroke="none" 
	d="
M88.829697,144.044342 
	C93.006882,147.718857 90.629692,152.095993 90.152878,156.644592 
	C89.709450,157.357864 89.363312,157.488510 88.772392,157.129715 
	C87.518181,153.266586 88.141075,149.561539 88.039261,145.441742 
	C88.146843,144.630142 88.313431,144.342438 88.829697,144.044342 
z"/>
<path fill="#FAFAFA" opacity="1.000000" stroke="none" 
	d="
M269.718933,36.496620 
	C269.550873,40.066296 271.572510,44.951370 265.030884,45.895214 
	C264.662384,41.971001 266.735962,39.136841 269.718933,36.496620 
z"/>
<path fill="#F9FBFA" opacity="1.000000" stroke="none" 
	d="
M180.284454,208.353180 
	C180.227158,207.925644 180.589462,208.046494 180.774597,207.999115 
	C181.945282,207.970291 182.930801,208.003418 183.916367,208.004074 
	C185.501678,208.005112 186.869232,208.172791 186.972305,210.274963 
	C187.084930,212.571564 185.794373,213.074966 183.885544,213.000534 
	C183.065445,212.968536 182.242798,213.002213 181.021179,213.010880 
	C180.527954,211.604050 180.434845,210.192383 180.284454,208.353180 
z"/>
<path fill="#C21637" opacity="1.000000" stroke="none" 
	d="
M208.804718,101.734421 
	C203.838333,100.077309 199.289215,97.211517 194.982117,93.447189 
	C194.880676,93.122971 194.970428,93.025993 195.013763,92.976143 
	C195.625732,92.381386 196.274261,92.343948 197.182037,92.903336 
	C201.311005,95.716400 205.424637,97.985085 208.804718,101.734421 
z"/>
<path fill="#F9F9F9" opacity="1.000000" stroke="none" 
	d="
M276.105408,88.516968 
	C277.434143,84.680550 279.476624,83.362762 281.225739,87.800186 
	C282.048920,89.888596 285.581207,88.311867 284.996338,91.662872 
	C281.829987,91.666534 279.085938,90.171799 276.105408,88.516968 
z"/>
<path fill="#FAFAFA" opacity="1.000000" stroke="none" 
	d="
M342.395142,85.008690 
	C342.371155,83.340813 342.923157,81.580650 342.928802,79.818741 
	C342.938873,76.660904 344.691864,77.392097 346.868164,77.984222 
	C346.930664,81.097824 344.555267,82.828110 342.395142,85.008690 
z"/>
<path fill="#BB1033" opacity="1.000000" stroke="none" 
	d="
M59.631165,190.040009 
	C57.956253,194.257660 53.258209,194.084778 49.475586,196.065216 
	C51.655632,192.652466 55.780972,191.913498 59.631165,190.040009 
z"/>
<path fill="#FAFAFA" opacity="1.000000" stroke="none" 
	d="
M347.605103,67.676086 
	C344.274292,67.341125 342.495544,65.502556 342.953918,61.566704 
	C345.369873,62.576748 346.821503,64.712128 347.605103,67.676086 
z"/>
<path fill="#BB1033" opacity="1.000000" stroke="none" 
	d="
M89.056366,143.537537 
	C88.962082,144.287781 88.779694,144.552109 88.314316,144.876862 
	C86.819832,141.919632 87.121780,138.784210 87.923737,135.342621 
	C88.615929,134.933823 88.966171,135.058197 89.147743,135.719818 
	C89.053635,138.378098 89.043602,140.737381 89.056366,143.537537 
z"/>
<path fill="#FAFAFA" opacity="1.000000" stroke="none" 
	d="
M334.364014,90.114197 
	C334.855774,86.121796 338.294525,85.860474 341.719971,85.047592 
	C340.182800,87.538712 337.467651,88.847809 334.364014,90.114197 
z"/>
<path fill="#C21637" opacity="1.000000" stroke="none" 
	d="
M225.753601,118.197067 
	C227.312927,119.320625 227.227615,120.472275 225.495102,120.854683 
	C223.595032,121.274063 221.897919,120.933289 222.210846,117.886581 
	C223.283966,117.867538 224.123352,118.805000 225.753601,118.197067 
z"/>
<path fill="#C22242" opacity="1.000000" stroke="none" 
	d="
M95.554306,183.131073 
	C97.876381,181.186890 99.140442,181.867462 101.028351,186.482147 
	C99.092873,186.020874 98.176743,183.721359 95.554306,183.131073 
z"/>
<path fill="#C21637" opacity="1.000000" stroke="none" 
	d="
M211.147827,106.274284 
	C210.110916,105.459946 210.016037,104.573013 209.985611,103.323608 
	C212.468063,104.557556 214.628372,106.456787 216.295990,109.258301 
	C215.713181,109.559502 215.067276,109.540642 214.207748,109.262657 
	C213.078598,108.203430 211.641617,107.976402 211.147827,106.274284 
z"/>
<path fill="#C22242" opacity="1.000000" stroke="none" 
	d="
M102.027657,188.359192 
	C104.694778,188.257996 106.287849,189.766769 106.929443,192.729919 
	C104.668121,192.340805 103.396400,190.488815 102.027657,188.359192 
z"/>
<path fill="#BB1033" opacity="1.000000" stroke="none" 
	d="
M90.279602,162.244141 
	C92.625328,163.096542 93.440407,165.141495 93.295868,167.793152 
	C91.572250,166.476807 90.949570,164.512512 90.279602,162.244141 
z"/>
<path fill="#BB1033" opacity="1.000000" stroke="none" 
	d="
M95.365814,101.909775 
	C95.770409,102.244896 95.868607,102.738754 95.969826,103.611565 
	C95.942459,105.168022 96.142914,106.380417 95.202812,107.715912 
	C94.573204,108.243759 94.189789,108.513367 93.605255,108.906364 
	C92.973709,106.475792 93.484131,104.145554 95.365814,101.909775 
z"/>
<path fill="#BB1033" opacity="1.000000" stroke="none" 
	d="
M90.648293,120.108238 
	C90.941399,121.935959 90.961082,124.016853 90.975677,126.540878 
	C90.699539,127.272095 90.363411,127.398361 89.733170,127.232872 
	C88.916962,124.726280 89.436516,122.516418 90.648293,120.108238 
z"/>
<path fill="#C21637" opacity="1.000000" stroke="none" 
	d="
M219.939301,113.691498 
	C217.847305,113.714310 216.492676,112.597710 216.301559,110.023277 
	C218.095459,110.403397 219.053329,111.829567 219.939301,113.691498 
z"/>
<path fill="#BB1033" opacity="1.000000" stroke="none" 
	d="
M92.819290,111.232384 
	C94.931480,113.059143 93.205544,114.409279 91.827576,116.003464 
	C91.056175,114.388290 92.037262,112.975212 92.819290,111.232384 
z"/>
<path fill="#F9F9F9" opacity="1.000000" stroke="none" 
	d="
M265.193390,77.177490 
	C264.704071,75.266144 264.213531,73.417717 267.562469,74.056137 
	C265.241760,74.602631 269.025787,77.375496 266.354279,77.954002 
	C265.722107,77.905830 265.483582,77.698547 265.193390,77.177490 
z"/>
<path fill="#BB1033" opacity="1.000000" stroke="none" 
	d="
M48.743912,196.222351 
	C49.055832,197.765411 49.041992,199.427567 49.032066,201.504868 
	C45.871178,200.388184 46.739799,198.409653 48.743912,196.222351 
z"/>
<path fill="#E50A36" opacity="1.000000" stroke="none" 
	d="
M89.383095,135.963470 
	C88.966148,135.724854 88.806633,135.469666 88.383102,135.150452 
	C88.191971,134.607513 88.202858,134.167389 88.320656,133.412872 
	C88.677048,132.724350 89.026497,132.545563 89.719788,132.765686 
	C91.228592,134.069092 91.409889,135.072556 89.383095,135.963470 
z"/>
<path fill="#55232B" opacity="1.000000" stroke="none" 
	d="
M189.353394,89.214287 
	C188.199234,88.832092 187.357132,88.520912 186.332458,88.028717 
	C186.150894,87.495438 186.151886,87.143181 186.189484,86.264229 
	C187.315643,86.416283 188.405182,87.095032 189.743835,87.984329 
	C190.140381,88.635437 190.031204,88.998909 189.353394,89.214287 
z"/>
<path fill="#863340" opacity="1.000000" stroke="none" 
	d="
M197.588287,92.926712 
	C196.809860,93.117828 196.228500,93.053650 195.352142,92.957886 
	C194.788010,92.350296 194.518890,91.774292 194.306549,90.879868 
	C195.421265,90.881119 196.479218,91.200790 197.743256,91.784012 
	C197.894684,92.255524 197.840027,92.463478 197.588287,92.926712 
z"/>
<path fill="#BB1033" opacity="1.000000" stroke="none" 
	d="
M89.976349,132.572418 
	C89.622482,133.001114 89.281258,133.032898 88.683800,133.081573 
	C88.004112,131.836792 88.465004,130.692795 89.103432,129.239227 
	C89.459877,128.855515 89.613304,128.777969 89.976227,128.850739 
	C90.120155,130.059204 90.054573,131.117355 89.976349,132.572418 
z"/>
<path fill="#E50A36" opacity="1.000000" stroke="none" 
	d="
M90.460632,128.961853 
	C90.185738,129.001068 89.747360,128.944839 89.526909,128.938934 
	C89.297813,128.513794 89.289162,128.094559 89.387680,127.377602 
	C89.824623,127.083382 90.152428,127.059784 90.724434,126.996567 
	C92.000565,127.764610 91.971771,128.416824 90.460632,128.961853 
z"/>
<path fill="#FAFAFA" opacity="1.000000" stroke="none" 
	d="
M313.695496,45.696213 
	C315.281067,44.929367 315.948547,45.730610 315.990784,47.695477 
	C314.415863,48.296234 314.402130,46.836380 313.695496,45.696213 
z"/>
<path fill="#C22242" opacity="1.000000" stroke="none" 
	d="
M107.015656,193.364594 
	C108.525642,192.939270 109.906761,193.143173 110.011108,195.571686 
	C108.667206,195.673706 107.995636,194.535599 107.015656,193.364594 
z"/>
<path fill="#F9F9F9" opacity="1.000000" stroke="none" 
	d="
M269.340088,83.234131 
	C270.508484,83.035431 271.787109,83.060677 271.854309,85.119522 
	C271.017273,84.836540 270.201935,84.192070 269.340088,83.234131 
z"/>
<path fill="#C21637" opacity="1.000000" stroke="none" 
	d="
M222.032516,116.686493 
	C220.564270,116.979691 219.993668,116.103973 219.971863,114.373489 
	C221.093170,114.421219 221.562057,115.383240 222.032516,116.686493 
z"/>
<path fill="#FAFAFA" opacity="1.000000" stroke="none" 
	d="
M317.858521,27.674438 
	C317.377960,28.932762 316.728882,29.080404 316.039246,27.621689 
	C316.554657,27.380060 317.119446,27.410955 317.858521,27.674438 
z"/>
<path fill="#FAFAFA" opacity="1.000000" stroke="none" 
	d="
M341.137390,48.261307 
	C341.382538,47.359745 341.918213,46.983234 342.890381,47.859482 
	C342.465820,48.201691 341.891815,48.300449 341.137390,48.261307 
z"/>
<path fill="#FAFAFA" opacity="1.000000" stroke="none" 
	d="
M314.775909,51.868591 
	C314.258881,53.042213 313.623047,53.004948 313.032776,51.636700 
	C313.516541,51.473843 314.044128,51.575268 314.775909,51.868591 
z"/>
<path fill="#BB1033" opacity="1.000000" stroke="none" 
	d="
M92.966652,171.207184 
	C94.211411,172.094421 93.647598,172.629471 92.270508,172.995331 
	C92.226562,172.461472 92.471626,171.920425 92.966652,171.207184 
z"/>
<path fill="#F9F9F9" opacity="1.000000" stroke="none" 
	d="
M298.073975,94.659607 
	C298.365753,93.367645 298.950317,92.664597 299.949066,94.439972 
	C299.438477,94.773438 298.869568,94.808662 298.073975,94.659607 
z"/>
<path fill="#BB1033" opacity="1.000000" stroke="none" 
	d="
M88.534111,157.183304 
	C88.915222,156.897522 89.220703,156.935623 89.755188,157.006500 
	C89.976715,157.855103 89.967422,158.685425 89.882797,159.928421 
	C89.358398,159.391647 88.909340,158.442169 88.534111,157.183304 
z"/>
<path fill="#E50A36" opacity="1.000000" stroke="none" 
	d="
M100.734077,95.096741 
	C100.964577,95.856247 100.754578,96.591263 99.565079,96.962791 
	C99.667862,96.403931 100.062920,95.788353 100.734077,95.096741 
z"/>
<path fill="#BB1033" opacity="1.000000" stroke="none" 
	d="
M79.263290,167.617126 
	C78.863152,167.494263 78.443153,167.050583 78.017868,166.279602 
	C78.422859,166.400299 78.833145,166.848312 79.263290,167.617126 
z"/>
<path fill="#C22242" opacity="1.000000" stroke="none" 
	d="
M91.488220,184.994659 
	C90.246162,183.908081 91.352959,184.227722 92.125488,184.203705 
	C92.283760,184.609100 92.065590,184.836258 91.488220,184.994659 
z"/>
<path fill="#BB1033" opacity="1.000000" stroke="none" 
	d="
M96.693802,100.053513 
	C96.768997,100.545334 96.538277,101.101662 95.993629,101.710846 
	C95.915764,101.215134 96.151825,100.666580 96.693802,100.053513 
z"/>
<path fill="#C21637" opacity="1.000000" stroke="none" 
	d="
M98.552170,97.747551 
	C98.694824,97.962601 98.576576,98.330246 98.199905,98.847519 
	C98.058083,98.631485 98.174675,98.265816 98.552170,97.747551 
z"/>
<path fill="#070102" opacity="1.000000" stroke="none" 
	d="
M175.954407,93.542564 
	C177.512589,94.019760 178.825134,94.568939 180.477112,95.229980 
	C181.259125,95.859962 181.701706,96.378075 182.359375,97.038452 
	C182.994919,97.214935 183.347610,97.391373 183.663391,97.994972 
	C183.684433,98.300491 183.659103,98.346298 183.654053,98.371979 
	C186.902603,101.664787 188.131668,106.056427 189.703262,110.133026 
	C193.057495,118.833603 192.521591,128.217789 193.582230,137.695679 
	C193.426132,140.413010 193.417145,142.734894 193.514465,145.478409 
	C193.745560,146.386230 193.784058,146.879837 193.651611,147.741180 
	C192.989929,151.116226 192.424377,154.129974 191.868530,157.570892 
	C192.030960,158.172546 192.183701,158.347015 192.037003,158.698425 
	C191.344604,159.269974 190.951645,159.664581 190.326904,160.215302 
	C185.163193,161.257324 180.154633,160.711655 175.326096,160.167908 
	C163.399719,158.824799 151.497787,159.634750 139.153366,159.673004 
	C137.608932,160.130005 136.467072,160.303619 134.891632,160.363831 
	C131.564041,160.380066 128.709488,161.211121 125.385017,161.024506 
	C124.226486,161.107925 123.462448,161.178391 122.343437,161.400223 
	C121.785095,161.554703 121.581726,161.557816 121.158119,161.772064 
	C120.516586,162.052185 120.095306,162.121216 119.384979,162.331696 
	C118.476944,162.720688 119.258316,162.418625 118.639702,162.667145 
	C109.283455,166.425934 107.081963,165.019318 107.040695,154.617096 
	C107.006233,145.925949 107.753578,137.258987 108.999725,128.212402 
	C109.003944,127.211540 109.035545,126.646210 109.263687,125.704514 
	C110.973511,118.938446 111.204796,112.128784 115.669083,106.283440 
	C115.913895,105.970276 116.150032,105.740616 116.181061,105.578857 
	C116.222946,105.019371 116.370026,104.677193 116.873596,104.221283 
	C117.113243,104.059898 117.007904,104.032829 117.051041,104.065948 
	C119.696251,98.625397 123.609421,94.489914 129.672852,92.035568 
	C133.420303,91.370056 136.805420,91.584953 140.622665,91.588310 
	C141.659225,91.582565 142.256897,91.577164 143.317017,91.547668 
	C153.596710,91.801376 163.477722,90.267113 173.659241,92.759682 
	C174.094727,92.956223 174.380096,93.207336 174.566788,93.243011 
	C175.096466,93.320816 175.416275,93.428841 175.954407,93.542564 
z"/>
<path fill="#050102" opacity="1.000000" stroke="none" 
	d="
M138.552887,204.503616 
	C133.260681,204.499222 131.104507,199.443375 126.486832,197.800140 
	C125.441772,197.304337 124.750023,196.840500 123.817780,196.158630 
	C123.486198,193.108871 120.621307,192.292786 119.381813,189.925690 
	C119.320671,189.600220 119.214272,189.282959 119.108192,189.153564 
	C117.798264,187.995728 117.091919,186.632767 116.396362,184.902252 
	C115.386337,182.650894 114.429039,180.724426 113.254448,178.506363 
	C113.029480,177.450226 113.026001,176.685822 113.224632,175.554565 
	C113.806175,174.163177 114.788345,173.795441 116.083313,173.279846 
	C116.461533,173.216354 116.771652,173.218018 116.878464,173.105621 
	C121.852478,170.643875 126.918907,168.911118 132.654907,168.077026 
	C133.471832,168.082214 133.902420,168.065231 134.639496,167.940979 
	C137.840378,165.951523 141.250702,166.145798 144.825699,165.482391 
	C145.205765,165.491486 145.275162,165.446762 145.315887,165.453506 
	C145.275650,164.979996 145.446579,164.640518 146.237457,164.419525 
	C147.617996,164.430756 148.677567,164.725281 150.035202,164.212021 
	C151.637405,163.699326 152.929718,163.294418 154.640274,163.176361 
	C157.122284,163.284897 159.208069,162.707352 161.697693,162.711899 
	C162.794724,162.676361 163.528915,162.698013 164.636902,162.682983 
	C165.763260,162.656921 166.515839,162.683044 167.648895,162.663513 
	C168.791809,162.663147 169.554047,162.685287 170.699524,162.661407 
	C173.131531,162.663879 175.150986,162.887115 177.469025,163.610184 
	C178.957336,164.068726 180.032669,164.633316 181.606216,164.680405 
	C182.888794,164.740005 183.819809,164.801453 185.100159,164.892090 
	C185.677750,164.976089 185.906357,165.024704 186.463608,165.195312 
	C187.711945,165.724167 188.118820,166.569504 188.804504,167.626114 
	C188.988083,168.581039 188.927475,169.295090 188.826080,170.365845 
	C188.679489,171.539581 188.230194,172.134506 187.434235,172.847382 
	C187.294342,173.099045 187.032318,173.423141 186.992355,173.627655 
	C186.820816,174.023361 186.689224,174.214554 186.387833,174.709702 
	C186.045197,175.310638 185.872345,175.607651 185.659485,176.160980 
	C185.354034,178.219467 183.974411,179.387466 182.905457,181.104630 
	C182.015564,182.200592 181.330887,183.042709 180.616089,184.274124 
	C178.763351,187.513931 175.650970,189.344604 173.876770,192.494415 
	C173.536728,192.496185 173.462372,192.569000 173.410522,192.573334 
	C173.716690,193.244614 173.148773,193.612885 172.673065,194.287796 
	C171.887802,195.028625 171.271317,195.508804 170.244598,195.843658 
	C168.074188,196.197784 166.829849,198.104950 164.427887,198.085541 
	C158.328568,200.554138 152.290787,199.288452 146.380676,199.403915 
	C142.665756,199.476501 139.873672,200.240143 138.552887,204.503616 
z"/>
<path fill="#080103" opacity="1.000000" stroke="none" 
	d="
M226.061584,191.509521 
	C225.981094,193.751205 225.835464,195.534363 225.608246,197.755493 
	C215.254822,198.209396 204.982986,198.225311 194.233002,198.157593 
	C193.249359,197.312012 193.201431,196.512970 193.833649,195.361832 
	C194.665527,194.524811 195.224564,194.006866 195.887421,193.219849 
	C196.758652,192.253922 196.887375,191.145477 197.851990,190.232391 
	C199.224442,189.392090 199.805908,188.326767 200.300888,186.852188 
	C200.305695,185.593460 201.060638,185.094925 201.766144,184.218231 
	C201.983551,183.991501 202.204727,183.781876 202.218597,183.630127 
	C202.216156,183.074936 202.335693,182.716812 202.813889,182.212753 
	C204.545303,179.429749 206.053864,176.838013 207.810913,173.998886 
	C208.059387,173.751511 208.479492,173.630981 208.693466,173.586578 
	C210.287476,173.825882 211.667496,174.109589 213.471497,174.399292 
	C218.137680,174.293015 222.526672,173.542282 225.976959,177.571686 
	C226.028473,182.334076 226.012451,186.692551 226.061584,191.509521 
z"/>
<path fill="#0D0103" opacity="1.000000" stroke="none" 
	d="
M216.984772,141.318573 
	C225.938217,142.896317 225.939819,142.896317 225.964233,151.676849 
	C225.976730,156.169998 225.901215,160.665253 226.017181,165.155655 
	C226.107269,168.643784 225.242203,170.009644 221.346069,168.751648 
	C209.299835,164.862137 209.264236,164.988419 209.886444,152.122620 
	C209.974838,150.294724 209.998199,148.463303 210.029724,146.633133 
	C210.139130,140.281937 210.135452,140.281876 216.984772,141.318573 
z"/>
<path fill="#C41031" opacity="1.000000" stroke="none" 
	d="
M137.923096,159.410049 
	C138.449356,158.881134 138.861282,158.431610 139.282883,158.422379 
	C155.975555,158.056305 172.665268,157.841461 189.682068,160.243134 
	C189.884216,160.836105 189.673294,161.300797 189.237091,161.900452 
	C184.401154,163.122116 179.748245,162.589844 175.152405,162.118408 
	C172.007172,161.795776 168.880264,161.456329 165.262573,161.459290 
	C157.115631,161.509262 149.411636,161.901123 141.365784,160.755432 
	C140.522003,160.973862 140.089752,160.980774 139.333313,160.989426 
	C138.461166,160.696777 137.989624,160.331940 137.923096,159.410049 
z"/>
<path fill="#E80A32" opacity="1.000000" stroke="none" 
	d="
M164.755142,160.333984 
	C172.750793,160.551544 180.500992,161.115967 188.631500,161.857910 
	C189.016495,163.702301 189.021179,165.369186 189.037277,167.451538 
	C188.421402,167.512512 187.794113,167.158005 186.977081,166.605377 
	C186.804504,166.020660 186.611771,165.805359 186.141632,165.972870 
	C184.966629,166.103851 183.889847,165.998215 182.438019,165.734177 
	C180.993698,164.931549 179.744797,164.945679 178.299881,164.721130 
	C175.939316,164.580048 173.865448,164.345169 171.399689,164.036133 
	C170.272797,163.280823 169.389297,163.514389 168.263336,163.739807 
	C167.235489,163.952118 166.480530,163.985352 165.359070,163.920212 
	C164.129730,162.882751 164.007782,161.829742 164.755142,160.333984 
z"/>
<path fill="#C21637" opacity="1.000000" stroke="none" 
	d="
M193.761505,137.954391 
	C192.924438,134.833908 192.038940,131.584351 191.972153,128.318069 
	C191.757706,117.831055 188.597412,108.240715 183.712860,98.739731 
	C185.200485,97.918152 186.156540,98.553650 186.804977,99.968178 
	C191.286575,109.744713 194.159286,119.919258 193.909805,130.750320 
	C193.855072,133.127167 196.282425,135.432220 193.761505,137.954391 
z"/>
<path fill="#C21637" opacity="1.000000" stroke="none" 
	d="
M226.314026,177.748657 
	C222.986557,174.098053 218.185181,176.526810 214.214966,174.599396 
	C218.838715,171.662643 225.845383,173.383591 226.314026,177.748657 
z"/>
<path fill="#E50831" opacity="1.000000" stroke="none" 
	d="
M179.801468,184.345703 
	C180.530182,183.170242 181.041504,182.264297 181.823853,181.193420 
	C183.041946,180.292526 184.060165,179.725311 185.627426,179.811172 
	C184.758194,183.913635 182.895660,187.354858 178.366516,188.983917 
	C177.567291,187.176758 179.350540,186.182220 179.801468,184.345703 
z"/>
<path fill="#C22242" opacity="1.000000" stroke="none" 
	d="
M193.741623,195.057526 
	C193.969696,195.797531 193.832916,196.552292 193.725479,197.690521 
	C192.493118,198.757385 190.987228,199.055786 189.917313,200.623535 
	C189.512894,201.270752 189.201462,201.472656 188.472717,201.318069 
	C188.192429,201.189468 188.023895,201.025467 187.937408,200.943359 
	C187.999344,197.315048 190.490677,196.005264 193.741623,195.057526 
z"/>
<path fill="#C22242" opacity="1.000000" stroke="none" 
	d="
M179.716263,184.210876 
	C180.269760,185.843399 179.369736,187.144333 178.125885,188.673920 
	C176.561111,190.027115 176.160812,192.111038 173.884033,192.561432 
	C174.856018,189.318085 177.538895,187.123169 179.716263,184.210876 
z"/>
<path fill="#E70731" opacity="1.000000" stroke="none" 
	d="
M169.967346,196.214249 
	C170.429001,195.311249 170.907059,194.753220 171.635361,194.071777 
	C172.303619,193.636917 172.771988,193.507095 173.618149,193.741928 
	C173.493439,195.818954 175.684235,199.830917 170.270416,197.990677 
	C169.926804,197.476166 169.955276,197.017700 169.967346,196.214249 
z"/>
<path fill="#E80A32" opacity="1.000000" stroke="none" 
	d="
M210.843765,106.310730 
	C211.914093,106.811516 212.829407,107.623528 213.869415,108.719528 
	C212.222260,108.581337 211.427322,112.231461 209.537552,110.303535 
	C208.184158,108.922806 209.995605,107.777107 210.843765,106.310730 
z"/>
<path fill="#C22242" opacity="1.000000" stroke="none" 
	d="
M185.956512,179.502441 
	C184.896469,180.300934 183.835648,180.657364 182.434875,181.021149 
	C182.687912,179.329498 183.704544,177.922318 185.334122,176.579071 
	C185.731567,177.298340 185.843643,178.179367 185.956512,179.502441 
z"/>
<path fill="#C22242" opacity="1.000000" stroke="none" 
	d="
M197.736862,190.068100 
	C197.581665,190.932495 197.077988,191.825516 196.282776,192.834656 
	C196.031708,191.791275 195.895340,190.545181 197.736862,190.068100 
z"/>
<path fill="#C22242" opacity="1.000000" stroke="none" 
	d="
M201.625153,184.054260 
	C201.616379,184.725998 201.249222,185.460510 200.618591,186.371719 
	C200.082626,185.521851 200.088898,184.599808 201.625153,184.054260 
z"/>
<path fill="#C21637" opacity="1.000000" stroke="none" 
	d="
M193.783417,148.024811 
	C193.475281,147.604813 193.395065,147.107147 193.467834,146.254745 
	C194.747406,146.392288 195.218964,147.009521 193.783417,148.024811 
z"/>
<path fill="#C22242" opacity="1.000000" stroke="none" 
	d="
M187.605225,173.009659 
	C187.624710,172.410797 187.955078,171.722565 188.535370,170.878433 
	C188.978012,171.645935 188.854752,172.444336 187.605225,173.009659 
z"/>
<path fill="#C22242" opacity="1.000000" stroke="none" 
	d="
M173.847427,193.567062 
	C173.488174,193.945572 173.030762,193.966095 172.229462,193.967499 
	C172.206940,193.535217 172.528259,193.122055 173.104126,192.643280 
	C173.488861,192.788116 173.619049,192.998596 173.847427,193.567062 
z"/>
<path fill="#C41031" opacity="1.000000" stroke="none" 
	d="
M191.939087,158.847168 
	C191.737579,158.875366 191.679062,158.416199 191.778656,158.207153 
	C192.057510,158.174255 192.242447,158.345688 192.402786,158.537659 
	C192.413010,158.549896 192.232407,158.721512 191.939087,158.847168 
z"/>
<path fill="#C21637" opacity="1.000000" stroke="none" 
	d="
M183.656555,97.994690 
	C183.382370,98.101891 183.080307,97.903290 182.676361,97.442703 
	C182.925873,97.350113 183.277283,97.519508 183.656555,97.994690 
z"/>
<path fill="#C22242" opacity="1.000000" stroke="none" 
	d="
M208.802368,173.439453 
	C208.907440,173.542175 208.513412,173.772644 208.286407,173.762085 
	C208.149826,173.409897 208.362473,173.271637 208.802368,173.439453 
z"/>
<path fill="#C22242" opacity="1.000000" stroke="none" 
	d="
M186.424805,174.878952 
	C186.310593,174.698914 186.403152,174.384186 186.724060,173.950806 
	C186.980652,174.183792 186.873718,174.487839 186.424805,174.878952 
z"/>
<path fill="#C22242" opacity="1.000000" stroke="none" 
	d="
M202.783386,182.183197 
	C202.928848,182.390213 202.820938,182.758911 202.472748,183.303009 
	C202.331665,183.100555 202.430832,182.722733 202.783386,182.183197 
z"/>
<path fill="#863340" opacity="1.000000" stroke="none" 
	d="
M189.292725,89.387543 
	C189.311752,88.998657 189.545914,88.809242 189.868393,88.384964 
	C190.669952,88.500542 191.346954,88.806190 192.160233,89.357086 
	C191.383789,90.054871 190.466705,90.100586 189.292725,89.387543 
z"/>
<path fill="#863340" opacity="1.000000" stroke="none" 
	d="
M194.113525,90.352249 
	C193.564789,90.919846 192.907776,90.922188 192.301727,89.923645 
	C192.810791,89.746361 193.381165,89.921661 194.113525,90.352249 
z"/>
<path fill="#C6AFB3" opacity="1.000000" stroke="none" 
	d="
M238.392715,202.223938 
	C245.887955,200.731598 253.685242,201.292252 261.715881,201.974762 
	C254.199554,203.294037 246.435822,202.925186 238.392715,202.223938 
z"/>
<path fill="#C6AFB3" opacity="1.000000" stroke="none" 
	d="
M225.187256,199.321838 
	C226.084869,200.749924 227.465408,201.534195 229.627258,201.714081 
	C227.285767,203.291687 225.009323,203.934082 225.187256,199.321838 
z"/>
<path fill="#C6AFB3" opacity="1.000000" stroke="none" 
	d="
M188.163483,201.394775 
	C188.524445,201.083557 188.856445,200.977646 189.447525,200.872437 
	C189.388153,201.255432 189.069733,201.637726 188.481842,202.013702 
	C188.212402,202.007385 188.134537,201.600082 188.163483,201.394775 
z"/>
<path fill="#C6AFB3" opacity="1.000000" stroke="none" 
	d="
M187.356369,202.888947 
	C187.106064,202.573868 187.231537,202.337631 187.740540,202.197342 
	C187.965683,202.510544 187.835022,202.735397 187.356369,202.888947 
z"/>
<path fill="#C6AFB3" opacity="1.000000" stroke="none" 
	d="
M186.203461,203.767120 
	C185.981277,203.422577 186.132599,203.201950 186.656372,203.101852 
	C186.866013,203.435379 186.715393,203.658264 186.203461,203.767120 
z"/>
<path fill="#C6AFB3" opacity="1.000000" stroke="none" 
	d="
M184.390686,204.964584 
	C184.152527,204.643646 184.276184,204.431061 184.770630,204.356018 
	C184.975250,204.677734 184.845596,204.870850 184.390686,204.964584 
z"/>
<path fill="#E3092F" opacity="1.000000" stroke="none" 
	d="
M118.339157,83.976074 
	C117.964638,83.482880 117.975731,83.012146 117.962769,82.188660 
	C118.420517,81.539612 118.902328,81.243340 119.678787,80.966949 
	C122.033577,83.040771 124.142044,81.612953 126.615356,81.031540 
	C126.854393,89.184639 121.910561,84.176498 118.339157,83.976074 
z"/>
<path fill="#BB1033" opacity="1.000000" stroke="none" 
	d="
M77.041069,195.559250 
	C75.497375,196.362656 73.500519,195.636978 72.152588,197.660065 
	C69.092155,197.815384 67.063522,199.729782 64.418594,201.072556 
	C65.765633,194.494110 71.289253,195.387817 76.596809,194.986588 
	C77.031151,194.972824 77.033188,195.363876 77.041069,195.559250 
z"/>
<path fill="#FAFAFA" opacity="1.000000" stroke="none" 
	d="
M310.197937,80.181992 
	C311.414978,78.711998 313.874878,78.594902 314.530182,75.930161 
	C314.396851,74.488472 314.840332,73.783089 316.541626,73.806473 
	C317.707520,75.319725 318.100494,76.701622 318.008636,78.226646 
	C317.885345,80.273727 318.629669,82.851463 315.749786,83.472229 
	C313.309265,83.998291 311.333099,82.971596 310.197937,80.181992 
z"/>
<path fill="#F9F9F9" opacity="1.000000" stroke="none" 
	d="
M294.993042,74.550713 
	C297.902740,74.945175 298.348846,78.897751 301.828339,79.509483 
	C301.968079,81.523804 302.046936,83.748070 299.625427,83.778191 
	C297.278839,83.807388 295.837006,81.869225 295.203552,79.823143 
	C294.740265,78.326584 295.034363,76.595543 294.993042,74.550713 
z"/>
<path fill="#FAFAFA" opacity="1.000000" stroke="none" 
	d="
M267.917358,59.022888 
	C264.655975,56.581749 263.781952,52.850243 264.006500,48.381836 
	C269.409851,49.279583 270.158630,51.354553 267.917358,59.022888 
z"/>
<path fill="#FAFAFA" opacity="1.000000" stroke="none" 
	d="
M279.902771,65.862808 
	C276.146667,65.775330 273.068909,63.816395 269.866150,61.427464 
	C273.873413,60.742676 277.634796,61.363411 279.902771,65.862808 
z"/>
<path fill="#F9F9F9" opacity="1.000000" stroke="none" 
	d="
M316.961548,73.645538 
	C316.345764,74.333153 315.692780,74.666496 314.867615,75.344986 
	C313.924255,74.968742 313.153076,74.247345 312.190979,73.273010 
	C311.402344,72.333069 311.243744,71.557304 311.764709,70.346779 
	C314.480896,69.841644 316.150177,70.896393 316.961548,73.645538 
z"/>
<path fill="#FAFAFA" opacity="1.000000" stroke="none" 
	d="
M311.621704,69.958420 
	C312.000000,70.756378 312.000000,71.510925 312.000031,72.642776 
	C310.473053,72.665092 308.946045,72.310104 307.139404,71.767609 
	C307.174774,68.007454 309.358459,69.354500 311.621704,69.958420 
z"/>
<path fill="#F9F9F9" opacity="1.000000" stroke="none" 
	d="
M280.049713,74.458984 
	C280.755127,74.051491 281.513824,73.963966 282.637878,74.003830 
	C282.447083,76.185486 281.555664,76.738846 280.049713,74.458984 
z"/>
<path fill="#FCEAF0" opacity="1.000000" stroke="none" 
	d="
M173.926529,92.647156 
	C164.073761,93.003464 154.052811,93.050697 143.578094,93.009460 
	C141.253876,90.906021 141.335556,88.459412 141.858932,85.664932 
	C142.853516,85.089127 143.577621,84.823349 144.540619,84.379089 
	C151.212921,85.157143 157.702377,85.669830 163.922134,87.926758 
	C167.334351,89.164925 170.731415,90.298904 173.926529,92.647156 
z"/>
<path fill="#C41031" opacity="1.000000" stroke="none" 
	d="
M109.409378,126.764618 
	C109.313660,132.876358 109.088226,138.826202 108.557076,144.748642 
	C108.155296,149.228531 108.125999,153.641632 108.745956,158.110992 
	C109.704926,165.024338 109.593925,165.035721 116.420654,162.797623 
	C117.045464,162.592789 117.700043,162.478775 118.718376,162.397858 
	C116.357635,165.451614 113.036240,167.380386 109.171227,165.293762 
	C104.953819,163.016846 104.202957,159.188354 105.584114,154.595276 
	C106.720810,150.815170 105.503410,146.652939 106.979202,142.424591 
	C105.183434,139.446762 106.172043,137.056366 107.682388,134.332794 
	C107.966644,131.950241 107.994202,129.916824 108.023193,127.447540 
	C108.338531,126.709496 108.716095,126.577309 109.409378,126.764618 
z"/>
<path fill="#EA072F" opacity="1.000000" stroke="none" 
	d="
M164.531921,159.983948 
	C164.999252,161.010223 164.997894,162.033325 164.994568,163.439117 
	C164.247498,163.897766 163.502411,163.973709 162.383926,163.995834 
	C159.885910,162.991440 157.777832,163.529678 155.310577,164.066833 
	C153.536392,164.396393 152.120758,164.671677 150.344269,164.918716 
	C149.154297,164.985840 148.313461,164.978531 147.199646,165.276398 
	C146.555725,165.454697 146.207962,165.531006 145.608398,165.533783 
	C144.849731,163.423508 145.399734,160.541229 141.368408,160.979858 
	C145.716583,158.882965 150.721680,160.402252 155.600647,160.016129 
	C158.404877,159.794189 161.241302,159.979019 164.531921,159.983948 
z"/>
<path fill="#C41031" opacity="1.000000" stroke="none" 
	d="
M129.388657,92.847000 
	C124.533379,95.760506 120.775604,99.409309 117.384109,103.933548 
	C118.220901,97.124969 124.094002,91.202621 131.688171,90.185257 
	C132.100220,92.072578 130.852936,92.354103 129.388657,92.847000 
z"/>
<path fill="#D10A2F" opacity="1.000000" stroke="none" 
	d="
M132.783295,167.803070 
	C128.205063,170.523880 122.830597,171.266144 117.376999,172.989304 
	C117.059532,172.671616 117.054367,172.118729 117.219559,172.062012 
	C122.257629,170.332245 126.437126,165.685989 132.783295,167.803070 
z"/>
<path fill="#C41031" opacity="1.000000" stroke="none" 
	d="
M115.570755,106.023697 
	C113.655624,111.990822 111.214104,117.956711 110.167816,124.703720 
	C109.755432,125.115456 109.588707,125.235481 109.167816,125.181259 
	C110.286362,118.452896 109.729439,111.255180 115.570755,106.023697 
z"/>
<path fill="#330309" opacity="1.000000" stroke="none" 
	d="
M79.539726,185.973114 
	C80.104996,187.508881 83.342850,188.371262 81.299240,190.009735 
	C79.299332,191.613129 76.895988,191.039825 75.204086,188.315384 
	C75.840546,186.173065 77.092766,185.228714 79.539726,185.973114 
z"/>
<path fill="#C41031" opacity="1.000000" stroke="none" 
	d="
M125.241150,161.312103 
	C127.609375,159.789871 130.437088,159.482025 133.665192,159.286621 
	C134.912018,160.617188 134.318558,161.575821 133.188721,162.712036 
	C130.446899,162.490845 127.969337,162.038803 125.241150,161.312103 
z"/>
<path fill="#E70731" opacity="1.000000" stroke="none" 
	d="
M107.584778,134.031769 
	C107.629448,136.385681 107.319824,138.787704 106.997589,141.597397 
	C102.824898,138.957672 102.877098,137.272430 107.584778,134.031769 
z"/>
<path fill="#403638" opacity="1.000000" stroke="none" 
	d="
M141.891327,85.258972 
	C143.083206,87.517738 142.999405,89.833443 143.125107,92.519577 
	C142.709320,93.012840 142.294296,93.104698 141.564331,93.142494 
	C139.796722,92.055603 138.846619,90.683052 138.400604,88.572517 
	C138.407883,86.782249 139.276733,85.987061 140.808655,85.287445 
	C141.311829,85.140335 141.482559,85.151688 141.891327,85.258972 
z"/>
<path fill="#C41031" opacity="1.000000" stroke="none" 
	d="
M144.774719,165.331467 
	C142.221786,166.963257 138.943649,167.303619 135.345703,167.892471 
	C137.125977,163.583694 141.025909,165.405060 144.774719,165.331467 
z"/>
<path fill="#C41031" opacity="1.000000" stroke="none" 
	d="
M140.744431,85.101692 
	C140.479446,85.886993 139.817795,86.645012 139.023071,87.678757 
	C137.213562,89.499733 135.175751,90.222435 132.619812,90.436874 
	C132.272339,90.316986 132.086060,90.106865 131.990387,90.002289 
	C133.371704,85.940315 136.959961,85.683006 140.744431,85.101692 
z"/>
<path fill="#E70731" opacity="1.000000" stroke="none" 
	d="
M133.293060,162.959106 
	C133.266251,161.959549 133.608063,160.976227 134.005157,159.684387 
	C135.118393,159.265320 136.176331,159.154770 137.633606,159.084763 
	C138.287872,159.585678 138.542816,160.046051 138.903442,160.748795 
	C137.248657,161.711929 135.723480,163.066757 133.293060,162.959106 
z"/>
<path fill="#A60F29" opacity="1.000000" stroke="none" 
	d="
M119.239235,189.956024 
	C121.364685,191.271866 124.162415,192.348114 123.846741,195.805756 
	C121.897530,194.226547 119.611801,192.988297 119.239235,189.956024 
z"/>
<path fill="#E3092F" opacity="1.000000" stroke="none" 
	d="
M136.040344,80.351791 
	C137.391251,79.995468 138.781357,79.993301 140.588654,80.001419 
	C139.854706,83.726990 138.252411,84.240784 136.040344,80.351791 
z"/>
<path fill="#D10A2F" opacity="1.000000" stroke="none" 
	d="
M116.031914,173.152939 
	C115.849518,173.738724 115.237511,174.261093 114.348991,174.908997 
	C113.598320,175.492355 113.230522,176.080353 112.256042,176.115509 
	C111.664528,175.106018 109.949333,174.643234 110.676796,173.757156 
	C111.942024,172.216049 113.932411,173.263168 116.031914,173.152939 
z"/>
<path fill="#A60F29" opacity="1.000000" stroke="none" 
	d="
M116.249969,184.961807 
	C117.892761,185.363068 118.225090,186.993805 118.981110,188.684525 
	C116.742348,188.812698 115.985435,187.438416 116.249969,184.961807 
z"/>
<path fill="#E50831" opacity="1.000000" stroke="none" 
	d="
M95.303810,107.929314 
	C95.116714,106.802086 95.276810,105.630005 95.704880,104.224220 
	C97.326851,105.409279 97.648880,106.742752 95.303810,107.929314 
z"/>
<path fill="#E70731" opacity="1.000000" stroke="none" 
	d="
M108.629059,125.039276 
	C109.081825,125.010780 109.250000,125.014572 109.670166,125.006897 
	C109.915482,125.435547 109.908813,125.875664 109.786316,126.627045 
	C109.304771,126.955956 108.939056,126.973610 108.298981,127.001480 
	C106.952431,126.170654 107.085129,125.528236 108.629059,125.039276 
z"/>
<path fill="#A60F29" opacity="1.000000" stroke="none" 
	d="
M111.942322,176.230743 
	C112.481895,175.694717 112.998260,175.439850 113.793549,175.109741 
	C113.869774,175.850754 113.667068,176.667007 113.250755,177.849014 
	C112.240402,177.925583 111.917343,177.325363 111.942322,176.230743 
z"/>
<path fill="#C41031" opacity="1.000000" stroke="none" 
	d="
M116.843216,104.189484 
	C116.980919,104.414131 116.848587,104.768364 116.464172,105.269852 
	C116.332458,105.051094 116.452827,104.685074 116.843216,104.189484 
z"/>
<path fill="#C41031" opacity="1.000000" stroke="none" 
	d="
M121.138138,161.984329 
	C121.011551,161.643692 121.219910,161.447037 121.775703,161.472382 
	C121.829224,161.782227 121.612541,161.926865 121.138138,161.984329 
z"/>
<path fill="#ECDDDF" opacity="1.000000" stroke="none" 
	d="
M138.679840,204.955353 
	C138.514801,198.239456 138.514740,198.215240 145.204666,198.196289 
	C151.177322,198.179352 157.150131,198.223862 163.609802,198.231598 
	C156.825638,204.433609 148.656158,207.358475 138.679840,204.955353 
z"/>
<path fill="#403638" opacity="1.000000" stroke="none" 
	d="
M175.976883,93.354553 
	C175.863235,93.511307 175.526459,93.552025 174.971573,93.435715 
	C175.086899,93.265297 175.420319,93.251915 175.976883,93.354553 
z"/>
<path fill="#DE0A31" opacity="1.000000" stroke="none" 
	d="
M122.566933,109.810577 
	C123.458107,110.532387 124.011337,111.010475 124.668327,111.744934 
	C124.719177,112.198059 124.666275,112.394806 124.845375,112.790474 
	C125.373306,113.715965 125.669243,114.442543 126.043259,115.460136 
	C126.227707,116.099693 126.408249,116.402634 126.903107,116.796280 
	C129.347000,117.667328 128.441315,122.101204 132.457321,121.019577 
	C133.136414,120.771454 133.418106,120.573540 133.772079,120.092606 
	C133.874817,119.853714 133.974289,119.970726 133.910126,119.928528 
	C134.200119,119.753410 134.489029,119.536514 134.768341,118.951614 
	C134.922791,118.411530 135.081955,118.193428 135.496857,117.937653 
	C136.080734,117.769791 136.416321,117.582031 136.763763,116.982498 
	C137.725189,115.574280 138.601151,114.451340 139.728531,113.156960 
	C140.579941,112.516701 141.340775,112.218781 141.792557,111.181084 
	C142.846130,109.600502 143.645966,107.451973 145.578964,108.515953 
	C147.016891,109.307426 145.984360,111.275841 145.675308,112.674164 
	C144.636276,117.375542 141.897430,121.186394 138.795486,124.674377 
	C136.226959,127.562576 135.046875,130.222000 137.118713,134.039154 
	C139.574738,138.564072 139.563385,143.637955 139.047272,148.662903 
	C138.889526,150.198730 138.422775,151.890839 136.740952,152.153809 
	C134.884155,152.444138 134.411011,150.612305 133.817230,149.276138 
	C133.143539,147.760178 132.623474,146.176102 131.954590,144.657806 
	C128.780380,137.452866 128.042038,137.347519 123.077042,143.381256 
	C121.611572,145.162186 120.201820,146.988983 118.459518,148.937759 
	C117.684486,149.379028 117.174660,149.497711 116.229248,149.355743 
	C115.835464,149.274551 115.776161,149.248810 115.745453,149.238724 
	C114.503479,146.553207 115.785835,144.149780 116.720657,141.294479 
	C116.904091,140.900528 116.979652,140.978226 116.928513,140.960297 
	C117.433784,140.606003 117.504257,140.020187 117.833572,139.254669 
	C118.454414,138.435852 118.877159,137.827957 119.531227,137.060516 
	C120.145317,136.764999 120.460075,136.535706 120.756714,135.918350 
	C126.598495,130.805115 124.231354,125.529503 121.632530,119.879471 
	C121.354881,118.089928 120.564041,116.842072 119.932205,115.309769 
	C118.568123,113.897957 117.711281,112.553505 118.284721,110.464188 
	C119.534843,108.919098 120.844307,108.995003 122.566933,109.810577 
z"/>
<path fill="#E00832" opacity="1.000000" stroke="none" 
	d="
M176.761246,119.983841 
	C177.833939,117.759537 179.505463,116.472809 181.373810,114.967690 
	C182.056488,114.774399 182.394058,114.597420 182.775940,114.019615 
	C183.549957,112.963379 184.420166,112.639397 185.772324,112.673256 
	C187.315430,114.279427 186.739838,115.815880 186.078796,117.695221 
	C185.567413,118.943359 185.110184,119.848656 184.381363,120.902786 
	C183.416702,121.450005 182.669113,121.786766 182.208038,122.874664 
	C181.667450,123.716072 181.269516,124.291275 180.657410,125.022308 
	C179.962509,125.220398 179.570267,125.423904 179.270996,126.164032 
	C179.073929,127.445930 178.887146,128.379410 178.688950,129.671005 
	C178.661728,130.226105 178.645920,130.423096 178.863525,130.802795 
	C179.096924,130.985519 179.275131,131.205795 179.261124,131.346771 
	C179.207687,131.945694 179.345032,132.336868 179.998291,132.759552 
	C180.854752,133.678711 181.399536,134.489212 182.000870,135.591827 
	C182.605942,136.749863 182.852402,137.783676 183.758301,138.793365 
	C183.967651,139.019440 184.001617,139.001602 183.988800,139.016296 
	C184.684723,140.374680 185.029678,141.762863 184.236313,143.619537 
	C183.979324,143.980194 183.505020,144.098679 183.263367,144.061859 
	C182.613571,143.534927 182.011551,143.498642 181.205719,143.202942 
	C180.956314,143.050186 180.997910,142.999390 180.974686,143.023544 
	C180.535049,142.366745 180.174377,141.633484 179.069519,141.220734 
	C178.489899,141.027298 178.251465,140.860367 177.988541,140.398499 
	C177.599640,139.443878 177.254242,138.728561 176.218506,138.188126 
	C173.133423,134.508774 170.474670,134.582092 167.789078,138.270050 
	C167.044342,139.292740 165.821854,139.967514 164.529312,140.959442 
	C160.985779,142.290192 159.914017,141.001312 160.717041,137.365845 
	C160.913834,136.912170 161.000336,136.968369 160.950180,136.956451 
	C161.228226,136.758179 161.500259,136.510239 161.778992,135.927948 
	C162.745544,134.499496 163.539566,133.232605 164.575470,132.210953 
	C166.729523,130.086502 167.367203,128.109192 165.361267,125.346275 
	C163.160004,122.314301 162.737610,118.638649 163.072311,114.934868 
	C163.195282,113.574257 163.687103,112.271446 165.146835,111.851173 
	C166.798050,111.375801 167.418427,112.801819 168.194733,113.817406 
	C170.184372,116.420418 170.670715,120.436707 175.250397,120.862175 
	C176.026932,120.775902 176.388077,120.610405 176.761246,119.983841 
z"/>
<path fill="#F6DCE0" opacity="1.000000" stroke="none" 
	d="
M132.103363,90.574692 
	C134.409454,89.914825 135.830307,87.787994 138.528931,87.911522 
	C139.692078,89.425720 140.494171,90.896957 141.272827,92.728317 
	C137.529434,93.119972 133.809479,93.151520 129.649506,93.144104 
	C130.117783,92.347572 131.026093,91.589989 132.103363,90.574692 
z"/>
<path fill="#BA1030" opacity="1.000000" stroke="none" 
	d="
M160.616394,137.081238 
	C161.186646,138.628906 160.417923,140.982635 163.834534,141.070847 
	C162.743774,143.256073 160.131760,146.472046 158.439392,144.999573 
	C155.875168,142.768524 159.081116,139.785873 160.616394,137.081238 
z"/>
<path fill="#B21433" opacity="1.000000" stroke="none" 
	d="
M116.602478,141.087006 
	C116.572655,143.391708 116.241219,145.882904 115.812271,148.801361 
	C112.643608,146.336258 115.537483,143.883347 116.602478,141.087006 
z"/>
<path fill="#AA1235" opacity="1.000000" stroke="none" 
	d="
M186.293655,117.830032 
	C185.069046,116.510178 186.530899,115.004578 186.096039,113.113541 
	C189.585648,114.074028 186.951370,115.948700 186.293655,117.830032 
z"/>
<path fill="#AB102C" opacity="1.000000" stroke="none" 
	d="
M122.810913,109.742767 
	C121.656731,110.064262 120.408592,110.074219 118.791565,110.114136 
	C119.452362,107.486465 120.964638,107.735855 122.810913,109.742767 
z"/>
<path fill="#BA1030" opacity="1.000000" stroke="none" 
	d="
M184.326385,143.986786 
	C183.968979,142.605179 183.958649,141.230164 183.962143,139.443085 
	C184.943954,140.581772 187.495361,141.909973 184.326385,143.986786 
z"/>
<path fill="#AB102C" opacity="1.000000" stroke="none" 
	d="
M119.653107,115.536621 
	C121.364906,115.737244 121.658768,117.201828 121.700638,119.137138 
	C120.280151,118.663712 120.096046,117.223213 119.653107,115.536621 
z"/>
<path fill="#BA1030" opacity="1.000000" stroke="none" 
	d="
M183.964142,138.695953 
	C182.451767,138.916153 181.976501,137.966690 182.031677,136.245422 
	C183.113449,136.390991 183.613663,137.323120 183.964142,138.695953 
z"/>
<path fill="#B50A2B" opacity="1.000000" stroke="none" 
	d="
M141.673050,111.046631 
	C141.978867,111.906242 141.702164,112.676453 140.311264,112.960411 
	C140.452423,112.376228 140.924896,111.766937 141.673050,111.046631 
z"/>
<path fill="#BA1030" opacity="1.000000" stroke="none" 
	d="
M182.342911,123.023254 
	C182.040726,122.140930 182.313339,121.338020 183.766998,121.071167 
	C183.613312,121.669617 183.116867,122.287628 182.342911,123.023254 
z"/>
<path fill="#BA1030" opacity="1.000000" stroke="none" 
	d="
M176.052551,138.301849 
	C176.971420,138.058685 177.742676,138.393723 177.902130,139.851974 
	C177.308746,139.662308 176.717087,139.130112 176.052551,138.301849 
z"/>
<path fill="#BA1030" opacity="1.000000" stroke="none" 
	d="
M178.911163,141.383194 
	C179.783829,141.042618 180.625656,141.235291 180.933426,142.704086 
	C180.311081,142.586166 179.670715,142.124619 178.911163,141.383194 
z"/>
<path fill="#BA1030" opacity="1.000000" stroke="none" 
	d="
M181.091980,143.339767 
	C181.526627,143.208420 182.096939,143.366638 182.844482,143.774963 
	C182.423691,143.893143 181.825668,143.761246 181.091980,143.339767 
z"/>
<path fill="#B21433" opacity="1.000000" stroke="none" 
	d="
M117.764656,139.178284 
	C117.831482,139.593674 117.631294,140.143600 117.154236,140.817932 
	C117.084122,140.399170 117.290886,139.855988 117.764656,139.178284 
z"/>
<path fill="#B21433" opacity="1.000000" stroke="none" 
	d="
M115.995102,149.523376 
	C116.347878,149.190002 116.860298,149.105469 117.762604,149.050842 
	C117.677437,149.862686 117.023232,150.127014 115.995102,149.523376 
z"/>
<path fill="#B50A2B" opacity="1.000000" stroke="none" 
	d="
M125.088356,112.715401 
	C124.888618,112.743057 124.699860,112.496719 124.641594,112.125847 
	C124.881165,112.148010 124.990250,112.294708 125.088356,112.715401 
z"/>
<path fill="#AA1235" opacity="1.000000" stroke="none" 
	d="
M182.616760,113.842041 
	C182.675400,114.071236 182.464539,114.397820 181.953339,114.775040 
	C181.884430,114.530258 182.115860,114.234848 182.616760,113.842041 
z"/>
<path fill="#B50A2B" opacity="1.000000" stroke="none" 
	d="
M126.987381,116.722603 
	C126.814651,116.740166 126.498344,116.540199 126.151688,116.045700 
	C126.362167,116.002464 126.602989,116.253777 126.987381,116.722603 
z"/>
<path fill="#B50A2B" opacity="1.000000" stroke="none" 
	d="
M136.585999,116.809723 
	C136.658279,117.036568 136.467300,117.375908 135.978867,117.781631 
	C135.895203,117.539429 136.108994,117.230827 136.585999,116.809723 
z"/>
<path fill="#B50A2B" opacity="1.000000" stroke="none" 
	d="
M134.583832,118.801300 
	C134.685394,119.018585 134.535980,119.355583 134.116272,119.789459 
	C134.008255,119.564552 134.170547,119.242783 134.583832,118.801300 
z"/>
<path fill="#B50A2B" opacity="1.000000" stroke="none" 
	d="
M133.626083,119.946716 
	C133.700485,120.160820 133.526138,120.467934 133.085587,120.846588 
	C133.005356,120.625328 133.191345,120.332527 133.626083,119.946716 
z"/>
<path fill="#B60D2C" opacity="1.000000" stroke="none" 
	d="
M176.588165,119.802696 
	C176.642319,120.026596 176.432327,120.367355 175.910187,120.754875 
	C175.840012,120.507607 176.082001,120.213577 176.588165,119.802696 
z"/>
<path fill="#BA1030" opacity="1.000000" stroke="none" 
	d="
M179.528015,126.360001 
	C179.434738,126.119705 179.608749,125.726967 180.112991,125.256172 
	C180.227249,125.521271 180.011276,125.864410 179.528015,126.360001 
z"/>
<path fill="#BA1030" opacity="1.000000" stroke="none" 
	d="
M179.064880,130.714508 
	C178.878067,130.758682 178.659210,130.531845 178.558929,130.167068 
	C178.795975,130.167236 178.914413,130.305359 179.064880,130.714508 
z"/>
<path fill="#BA1030" opacity="1.000000" stroke="none" 
	d="
M180.217072,132.580688 
	C179.973740,132.625931 179.637527,132.383652 179.274200,131.814545 
	C179.539459,131.756210 179.831818,132.024689 180.217072,132.580688 
z"/>
<path fill="#B21433" opacity="1.000000" stroke="none" 
	d="
M120.557236,135.766846 
	C120.650764,135.982742 120.494743,136.341614 120.050629,136.800735 
	C119.944260,136.570602 120.125969,136.240219 120.557236,135.766846 
z"/>
<path fill="#BA1030" opacity="1.000000" stroke="none" 
	d="
M161.598877,135.799347 
	C161.704330,136.004608 161.566681,136.353882 161.164520,136.823853 
	C161.051941,136.610809 161.203842,136.277100 161.598877,135.799347 
z"/>
<path fill="#C41031" opacity="1.000000" stroke="none" 
	d="
M155.243011,164.284195 
	C156.945023,162.254089 159.223343,163.001175 161.737656,163.676163 
	C159.851700,164.110443 157.692841,164.278854 155.243011,164.284195 
z"/>
<path fill="#C41031" opacity="1.000000" stroke="none" 
	d="
M178.312927,165.004684 
	C179.349319,163.708817 180.645584,163.559753 181.969818,165.275848 
	C180.912888,165.448654 179.762772,165.321548 178.312927,165.004684 
z"/>
<path fill="#C41031" opacity="1.000000" stroke="none" 
	d="
M147.149536,165.521164 
	C147.436188,164.105255 148.332626,163.817322 149.767151,164.645737 
	C149.293274,165.725357 148.360748,165.749252 147.149536,165.521164 
z"/>
<path fill="#C41031" opacity="1.000000" stroke="none" 
	d="
M168.360352,164.020950 
	C168.731216,162.923798 169.622467,162.824432 170.823639,163.717896 
	C170.248596,164.015656 169.489426,164.069336 168.360352,164.020950 
z"/>
<path fill="#C22242" opacity="1.000000" stroke="none" 
	d="
M186.216278,166.308258 
	C186.223907,165.887375 186.322876,165.288620 186.795441,166.196411 
	C186.787308,166.407272 186.389145,166.407028 186.216278,166.308258 
z"/>
</svg>