<svg version="1.1" id="Layer_1" xmlns="http://www.w3.org/2000/svg" xmlns:xlink="http://www.w3.org/1999/xlink" x="0px" y="0px"
	 width="100%" viewBox="0 0 768 480" enable-background="new 0 0 768 480" xml:space="preserve">
<path fill="#000000" opacity="1.000000" stroke="none" 
	d="
M356.065155,282.925842 
	C352.252411,293.648224 348.486420,303.970062 344.923889,314.361633 
	C343.679871,317.990295 341.809601,319.245880 338.234619,317.404266 
	C337.209930,316.876434 336.062775,316.528839 334.932220,316.274261 
	C330.924225,315.371765 330.053528,313.349243 331.481323,309.380005 
	C341.456940,281.648254 351.237610,253.846405 361.090271,226.070419 
	C368.157593,206.146790 375.234253,186.226456 382.325714,166.311417 
	C382.915497,164.655045 383.179962,162.789810 384.598175,161.625076 
	C386.741638,162.032639 386.893433,163.701645 387.374847,165.045532 
	C393.997528,183.532532 400.598175,202.027451 407.194519,220.523895 
	C407.978210,222.721405 408.821960,224.823486 406.883759,227.045670 
	C405.661530,228.446991 406.534760,230.214996 407.098877,231.796387 
	C416.214447,257.349518 425.322449,282.905365 434.432343,308.460510 
	C434.823761,309.558533 435.196564,310.663788 435.613129,311.752258 
	C436.405487,313.822632 436.625488,315.675476 434.015137,316.639374 
	C431.353607,317.622162 430.437469,315.964203 429.697723,313.895752 
	C426.726013,305.586121 423.713837,297.290924 420.738831,288.982452 
	C414.171234,270.640808 407.623444,252.292114 401.048584,233.953094 
	C400.296326,231.854858 400.115753,229.484283 396.691284,229.535339 
	C394.636627,229.565994 394.487823,226.910889 393.878540,225.248398 
	C391.087616,217.632660 388.346771,209.998550 385.058350,200.906738 
	C375.111450,229.040512 365.651672,255.796616 356.065155,282.925842 
z"/>
<path fill="#000000" opacity="1.000000" stroke="none" 
	d="
M490.958740,169.066528 
	C505.451813,192.052963 519.728882,214.748276 534.063477,237.407211 
	C535.800049,240.152267 536.954895,242.931549 536.947266,246.262512 
	C536.894714,269.088898 536.949463,291.915527 536.888855,314.741882 
	C536.882996,316.947601 537.665527,320.113403 534.862732,320.848083 
	C531.211548,321.805145 527.186157,322.035187 523.559143,320.643311 
	C521.861023,319.991669 522.596375,317.665588 522.595947,316.048279 
	C522.589722,294.388031 522.529541,272.727295 522.681091,251.068054 
	C522.708069,247.208572 521.716858,243.983002 519.678894,240.778198 
	C506.003448,219.272644 492.460114,197.683060 478.775635,176.183289 
	C476.875031,173.197220 476.235748,171.157516 479.924774,168.925491 
	C487.673279,164.237350 487.573608,164.072617 490.958740,169.066528 
z"/>
<path fill="#000000" opacity="1.000000" stroke="none" 
	d="
M662.303711,188.318573 
	C647.315002,200.906906 641.444275,217.513977 639.313416,235.909256 
	C639.237610,236.563324 639.050964,237.565048 639.387695,237.852890 
	C645.385986,242.979630 643.129456,250.524796 644.797729,256.850891 
	C651.720459,283.101288 671.333130,301.092407 698.180786,304.915955 
	C699.499512,305.103760 700.821411,305.269714 702.138367,305.468781 
	C710.649841,306.755432 710.543884,306.752777 710.149475,315.496124 
	C709.997314,318.870361 708.718018,320.468597 705.289124,320.113647 
	C680.802673,317.578979 659.380615,308.865051 644.165955,288.600464 
	C634.754700,276.065582 629.975586,261.604004 628.816101,245.976257 
	C628.618958,243.319244 628.668518,241.018234 631.460571,239.063904 
	C633.828674,237.406326 633.220520,233.838364 633.551147,231.120941 
	C637.941956,195.036728 664.536255,169.115173 700.883728,165.640472 
	C702.371704,165.498230 703.841431,165.173859 705.326660,164.991241 
	C707.687744,164.700928 709.810913,164.970230 710.055420,167.950439 
	C710.283875,170.734177 708.294250,171.048767 706.152832,171.330414 
	C698.068420,172.393753 690.053833,173.664749 682.362732,176.660843 
	C675.148010,179.471390 668.494446,183.106140 662.303711,188.318573 
z"/>
<path fill="#000000" opacity="1.000000" stroke="none" 
	d="
M215.012589,166.779175 
	C238.661942,166.779068 261.813141,166.779526 284.964325,166.781860 
	C286.130127,166.781982 287.295929,166.798767 288.461731,166.806931 
	C290.787384,166.823242 292.987183,167.119095 292.870026,170.188080 
	C292.764526,172.952820 290.663300,173.158447 288.566986,173.167297 
	C282.404602,173.193344 276.242035,173.191238 270.079559,173.200439 
	C265.249512,173.207657 260.418335,173.279800 255.589798,173.198029 
	C252.797867,173.150742 251.220108,173.966309 251.244553,177.139297 
	C251.336884,189.130524 251.280594,201.122864 251.309875,213.114716 
	C251.311859,213.929810 251.291809,215.243469 251.736099,215.482986 
	C257.044922,218.344894 255.106827,223.308640 255.125229,227.488556 
	C255.249847,255.802399 255.209976,284.117065 255.168243,312.431366 
	C255.164764,314.789734 256.083435,318.000854 252.731140,318.721283 
	C249.212158,319.477600 245.423920,319.925354 242.018097,318.141083 
	C240.548386,317.371185 240.822067,315.499054 240.821442,314.019958 
	C240.808548,283.207245 240.813797,252.394547 240.820358,221.581848 
	C240.820801,219.548309 240.866745,217.587677 243.200790,216.575073 
	C245.128784,215.738602 244.823959,213.842422 244.826157,212.214264 
	C244.841629,200.721985 244.728943,189.228546 244.866959,177.738007 
	C244.909821,174.170883 243.419617,173.132996 240.089325,173.165405 
	C229.097839,173.272385 218.104294,173.219116 207.112015,173.151764 
	C204.735733,173.137222 201.655090,173.787430 201.813004,169.790405 
	C201.955124,166.193329 204.813400,166.900208 207.020630,166.809418 
	C209.514740,166.706818 212.016174,166.782166 215.012589,166.779175 
z"/>
<path fill="#000000" opacity="1.000000" stroke="none" 
	d="
M90.643753,300.671387 
	C112.124687,290.688202 123.380905,273.710449 126.769043,251.043808 
	C127.063766,249.072113 127.600220,247.105301 127.624130,245.131378 
	C127.664619,241.788345 129.473129,240.787216 132.420532,240.886337 
	C140.151306,241.146362 142.422821,238.921478 141.467941,249.744766 
	C138.411011,284.394501 112.878807,312.977234 78.465248,319.378479 
	C73.888992,320.229706 69.377655,321.344818 64.663071,321.362396 
	C61.474918,321.374268 60.265614,320.019714 60.065842,316.916962 
	C59.563759,309.118958 60.193924,308.089569 67.780312,307.072968 
	C75.586861,306.026825 83.112518,304.067596 90.643753,300.671387 
z"/>
<path fill="#000000" opacity="1.000000" stroke="none" 
	d="
M99.741043,181.680603 
	C112.918777,172.490570 127.225288,167.589996 142.881683,166.613922 
	C145.155197,166.472168 147.928925,165.868240 147.931778,169.554169 
	C147.934387,172.920929 145.353378,172.830795 142.973633,173.037979 
	C122.427017,174.826828 104.466431,182.005371 91.196754,198.493271 
	C82.814186,208.908798 78.762184,221.147064 77.073456,234.261917 
	C76.818382,236.242874 76.610695,238.229950 76.356934,240.211090 
	C76.061195,242.519882 74.577690,243.258286 72.460724,243.034698 
	C70.337433,242.810471 69.700775,241.398804 69.874603,239.503204 
	C71.999527,216.330978 79.977654,196.157379 99.741043,181.680603 
z"/>
<path fill="#000000" opacity="1.000000" stroke="none" 
	d="
M555.682739,206.703400 
	C564.011292,194.415497 572.145874,182.431870 580.288025,170.453445 
	C581.456848,168.734009 582.631836,167.074615 585.102356,168.633759 
	C587.349548,170.051956 587.237427,171.692642 585.883362,173.670563 
	C575.161926,189.331253 564.464661,205.008484 553.754639,220.676956 
	C553.187134,221.507141 552.566284,222.297913 551.187439,222.531235 
	C548.027893,220.468292 547.676147,217.930344 550.036316,214.776855 
	C551.931213,212.244995 553.678528,209.602661 555.682739,206.703400 
z"/>
</svg>