<svg xmlns="http://www.w3.org/2000/svg" width="141.1168" height="157.246" viewBox="0 0 141.1168 157.246"><defs><linearGradient id="b" x1="81.9823" x2="90.2882" y1="147.1449" y2="149.3705" gradientUnits="userSpaceOnUse"><stop offset="0" stop-color="#f69"/><stop offset="0.5195" stop-color="#ff8c99"/><stop offset="1" stop-color="#fc9"/></linearGradient><linearGradient id="c" x1="113.1664" x2="123.0392" y1="139.7131" y2="156.8132" gradientUnits="userSpaceOnUse"><stop offset="0" stop-color="#ffa499"/><stop offset="0.4452" stop-color="#f5bb98"/><stop offset="0.8823" stop-color="#fc9"/></linearGradient><linearGradient id="d" x1="58.4443" x2="79.3095" y1="140.0737" y2="152.1202" gradientUnits="userSpaceOnUse"><stop offset="0" stop-color="#f69"/><stop offset="0.7188" stop-color="#ff6a99"/><stop offset="1" stop-color="#ff9699"/></linearGradient><linearGradient id="e" x1="94.4113" x2="106.9887" y1="142.0054" y2="154.5827" gradientUnits="userSpaceOnUse"><stop offset="0" stop-color="#ff8199"/><stop offset="0.4452" stop-color="#f5bb98"/><stop offset="0.8823" stop-color="#fc9"/></linearGradient><radialGradient id="a" cx="70.5584" cy="64.0576" r="67.3864" gradientUnits="userSpaceOnUse"><stop offset="0.1363" stop-color="#fc9"/><stop offset="1" stop-color="#f69"/></radialGradient></defs><path d="M129.736 57.462a14.473 14.473 0 0 1 1.554-1.36 6.336 6.336 0 0 1 8.317 1.185 7.98 7.98 0 0 1 1.425 4.008c.697 5.297-3.007 9.605-7.442 11.632-.647.297-1.332.515-2.007.75-.38.13-.589.287-.523.768a32.405 32.405 0 0 1-.09 7.965 73.518 73.518 0 0 1-5.34 20.172 56.646 56.646 0 0 1-8.214 14.186 31.026 31.026 0 0 1-11.484 9.242 23.213 23.213 0 0 1-13.138 1.725 18.14 18.14 0 0 1-8.873-4.322c-1.044-.872-2.01-1.838-2.974-2.727-1.249.98-2.447 2.06-3.777 2.94-4.674 3.096-9.764 4.902-15.447 4.408a21.541 21.541 0 0 1-9.67-3.418c-5.528-3.493-8.536-8.705-10.003-14.943a51.16 51.16 0 0 1-.79-15.732 116.862 116.862 0 0 1 2.88-18.062c1.635-6.908 3.466-13.77 5.26-20.64 1.191-4.559 2.468-9.094 3.702-13.641a6.132 6.132 0 0 0 .096-.647c-1.009-.082-1.976-.192-2.946-.233a61.629 61.629 0 0 0-10.481.373c-5.454.704-10.716 2.006-15.487 4.887a25.744 25.744 0 0 0-7.93 8.1c-2.807 4.196-3.63 8.89-3.415 13.839.364 8.378 6.127 14.153 13.488 16.072.687.18 1.403.248 2.216.386a4.61 4.61 0 0 1-.413.466q-5.807 4.829-11.622 9.648c-1.015.84-2.078 1.623-3.084 2.475a1.784 1.784 0 0 1-1.802.35c-5.548-1.623-8.988-5.322-10.69-10.772C-.426 81.872-.155 77.18.714 72.46a53.544 53.544 0 0 1 8.143-20.18 66.94 66.94 0 0 1 11.592-13.016 82.87 82.87 0 0 1 17.953-11.967 60.88 60.88 0 0 1 16.893-5.684c4.763-.823 9.57-1.4 14.359-2.066 5.196-.722 10.398-1.397 15.591-2.134a136.995 136.995 0 0 0 16.34-3.247 51.725 51.725 0 0 0 15.155-6.38 31.478 31.478 0 0 0 7.51-6.853c.206-.26.437-.503.813-.933 0 1.02-.007 1.838 0 2.656a61.717 61.717 0 0 1-1.314 14.357c-1.503 6.626-4.394 12.486-9.546 17.064a30.746 30.746 0 0 1-11.733 6.325 42.272 42.272 0 0 1-9.802 1.796c-3.06.18-6.133.148-9.2.145-1.507-.002-3.013-.177-4.52-.203a1.066 1.066 0 0 0-.785.53q-3.293 7.067-6.522 14.163c-3.09 6.78-5.935 13.66-8.354 20.713a99.778 99.778 0 0 0-3.928 14.615 41.113 41.113 0 0 0-.554 14.297 15.37 15.37 0 0 0 5.188 9.66 8.455 8.455 0 0 0 12.208-.901.855.855 0 0 0 .047-1.19 40.718 40.718 0 0 1-4.446-11.01c-1.399-5.842-1.707-11.704.068-17.534a19.22 19.22 0 0 1 7.094-10.453 14.174 14.174 0 0 1 9.875-2.852c5.737.605 9.872 3.389 11.645 9.477a22.556 22.556 0 0 1-.756 14.09c-2.214 6.348-5.976 11.75-10.343 16.774-.346.398-.681.81-1.063 1.171-.319.302-.301.508-.018.833a7.363 7.363 0 0 0 4.242 2.217c3.315.722 6.26-.325 9.059-1.919 4.053-2.308 6.784-5.853 8.947-9.887a36.843 36.843 0 0 0 3.633-9.943 39.966 39.966 0 0 0-.984-21.273 18.881 18.881 0 0 0-3.547-6.122 23.768 23.768 0 0 1-2.271-3.047 3.948 3.948 0 0 1 .117-4.483c2.542-3.71 5.916-5.989 10.582-5.782a8.356 8.356 0 0 1 5.83 2.931c1.343 1.46 2.504 3.088 3.79 4.604a4.17 4.17 0 0 0 3.52 1.631 1.968 1.968 0 0 0 1.855-2.624 4.715 4.715 0 0 0-2.4-2.83l-.94-.535Zm-46.277 47.07c.304-.363.474-.553.63-.753a31.552 31.552 0 0 0 4.206-7.166 17.428 17.428 0 0 0 1.488-6.543c.026-1.907-.736-3.318-2.076-3.863a3.956 3.956 0 0 0-4.278 1.048 6.38 6.38 0 0 0-1.432 3.247 27.84 27.84 0 0 0 .736 12.015c.165.631.44 1.233.726 2.015Z" style="fill:url(#a)"/><path d="M83.985 139.671h4.3v17.173h-4.3z" style="fill:url(#b)"/><path d="M117.895 152.964v-2.888h5.026v-3.859h-5.026v-2.779h4.978v-3.797h-9.582v17.173h2.99v.008h6.743v-3.858h-5.129z" style="fill:url(#c)"/><path d="M56.877 139.691h-3.334v-.012h-4.235v.012h-3.264v3.775h3.264v13.354h4.235v-13.354h3.334v-3.775z" style="fill:#f69"/><path d="M76.934 139.597c-.513 2.083-2.155 8.813-2.465 10.095-.104-.45-2.54-9.857-2.59-10.035v-.005l-.005-.015h-3.546s-2.487 9.62-2.59 10.07c-.31-1.282-1.953-8.012-2.466-10.095-.741.004-3.783.006-4.564.004.102.384 3.137 11.262 4.905 17.224l3.855-.012s2.409-8.97 2.633-9.816c.226.852 2.637 9.801 2.637 9.801l3.855.012c1.768-5.962 4.803-16.84 4.905-17.224-.78.002-3.823 0-4.564-.004Z" style="fill:url(#d)"/><path d="m109.212 146.046-4.619-.028-.209-.354a4.575 4.575 0 0 0-2.964-1.95 4.26 4.26 0 0 0-2.139.208 4.582 4.582 0 0 0-3.006 4.806 4.638 4.638 0 0 0 3.54 4.041 4.147 4.147 0 0 0 2.888-.307 5.298 5.298 0 0 0 1.457-1.278c.097-.126.54-.719.54-.719l4.463.03a8.612 8.612 0 0 1-8.32 6.75 8.858 8.858 0 0 1-8.929-8.375 8.786 8.786 0 0 1 17.298-2.824Z" style="fill:url(#e)"/></svg>