<svg xmlns="http://www.w3.org/2000/svg" xml:space="preserve" x="0px" y="0px" style="enable-background:new 0 0 2768.5 2342.5" viewBox="0 0 2768.5 2342.5"><g transform="translate(1014.685 1251.216)"><linearGradient id="a" x1="-1009.2761" x2="1747.5789" y1="-373.6176" y2="-373.6176" gradientUnits="userSpaceOnUse"><stop offset="0" style="stop-color:#f4a6d7"/><stop offset="0.5" style="stop-color:#aadce6"/><stop offset="1" style="stop-color:#efe59d"/></linearGradient><path d="M383.4-1247.4c-5.9-.2-11.9-.2-18.2.2-67 4-118.9 44.6-161.1 126.2-29.9 57.9-49 119.1-62.5 200.7C96.5-649 166-279.3 311-19.5L322.3.7l-18.9 25.2C249.9 95.1 172.7 164.6 88.1 185.6c-18.9 4.6-32.9 5.5-62.2 4-62-3-107.5-21.3-163.7-65.9l-8.3-6.6 10.8-33.1c24.5-75.4 34.9-150.9 34.8-253.2-.1-101.5-7.6-167.7-28-247-30-116.7-80-199.9-136.2-227.1-22.9-11-59.7-11.1-84.3-.1-42.5 19-71.3 77-81.2 163.4-20.6 180.1 55.6 448.2 168.4 592.3l16.5 21.1-14.2 21c-50 73.8-124.5 116.7-213 122.4-48.1 3.1-110-12.7-152.8-39-17.2-10.5-16.7-7.2-8.1-59.1 7.5-45.4 8.5-154.1 1.9-206.7-27.3-218-106.3-398.1-202.2-461.5-45.9-29.3-94.3-27.7-134.2 7.4-28.8 28.8-41.7 74.7-41.5 148.2.2 93 21.9 185 70.6 299C-891 77-821 183.3-756.5 241.6l20.1 18.1-8 17.2c-28 60.5-79.1 110.8-140.8 138.8-26.5 12-32.4 19.6-32.4 42 0 18.4 6.2 30.5 18 35.3 15.3 6.2 34 3.5 59.2-8.6 68.9-33 123.4-85.5 158.4-152.7 6.3-12 11.5-22.2 11.7-22.7.2-.5 14.9 6 32.7 14.5 128.2 60.8 282.6 38.8 389.5-55.4 14.6-12.9 50-54.8 58.4-69.2 3.3-5.7 5.9-4.6 32.5 13.1 60.5 40.2 115.7 57.1 187.4 57.3 52.6.1 71.3-2 103-11.8 73.8-22.7 156-82.2 215.4-155.7 12-14.9 22.2-27.1 22.6-27.1.4 0 12.4 14 26.6 31.2C507 228.8 672.8 339.7 891 213.8c17.1-9.9 30.6-19.7 31.2-19.7s5.4 6.4 10.5 14.3c13.6 20.7 60.5 68.1 83.9 84.8 76.9 54.8 191.1 78.1 280.6 57.1 30.2-7.3 60.1-19.4 89.2-31.9 10.6-5.6 19.7-9.7 20.1-9.2.4.5 4.2 7.7 8.4 16 34 67.8 97.8 130.8 165.3 163.2 32.3 15.5 52.9 16.2 66.8 2.2 13-13 15.9-30.2 7.9-46.6-5.1-10.5-11.1-15.2-33.6-26.5-63.5-31.9-114-81.9-140.7-139.7l-7.8-16.8 21.8-20.9c113.8-108.9 218.2-311.9 246.8-484.9 5.9-35.7 8-107.2 4.1-142.1-11.1-100.9-84.6-149.4-163.3-109.5-21.2 10.8-57.6 45.1-79.9 75.3-49.3 66.9-89.8 164.7-114.1 275.6-29.8 135.7-33.7 255.6-11.8 362 2.1 10.1 1.2 11.4-14 21-22.5 14.2-64.9 30.1-97 36.2-69.3 13.2-150.1-8-210.1-54.9-24.8-19.4-66-67.5-69.4-81-1.4-5.3 1.5-11.5 9.9-21.8 35.8-43.8 82.5-129.5 107.6-197.6 24.3-66 51.7-168.9 57.3-215.1 8.6-71.7 9.5-87.2 7.6-139.5-4-114.4-29.5-179.1-81-206-24.5-12.8-59.5-12.7-87.2.2-39.1 18.3-78 68.8-106.4 138.5-37.4 91.6-53.2 178.7-56 309.3-2.5 117.1 7.5 198.7 34 278l11.2 33.5-22.3 16.4c-50.2 37-94.5 53.5-150 56.1-31.1 1.4-41.2.5-63.9-5.7-53.7-14.7-110.4-51.7-161.8-105.4-31-32.5-64-74.8-62.4-80.2 23.4-67.2 85.7-140.5 99.3-216.3 36-101 62.1-207.9 77.5-318 3.9-28 8.4-64.5 12.2-98.7 5.1-38.8 5.2-170.6.2-218.5-15.9-153.8-57.5-271.3-119.1-336.7-36.4-39-68.1-56-109.2-57.7zm-13 79.3c15.9-.2 42.1 11.6 57.1 25.8 25.8 24.5 59.4 88.8 76.4 146.4 38.9 131.6 42.9 289.5 12 478.9-24.6 150.9-77.3 315.7-133.7 418.4-5.6 10.2-10.5 18.9-10.8 19.3-1.4 1.8-52.2-106.7-63.2-135.3-62.5-161.6-99.4-356.3-99.9-526.2-.2-76.8 2.9-114.6 15.1-182 25-138.2 88.7-244.5 147-245.3zM-29-764.1c-11.4-1.1-22.9.6-34.2 5.3-40.7 17-59.2 64.7-59.1 152.7 0 59 5.6 97 23.2 158 24.7 85.7 52 138.6 106.3 205.7l7.4 9.1-9.8 14.1c-12.2 17.6-35.6 37.9-62.2 54.1-11.3 6.8-21.7 12.9-23.2 13.4-1.5.6-3.8 15.2-5.1 32.6l-2.5 31.6 11-2.2c34.8-7 93.3-46.1 121.5-81.3 9.6-12 18.3-21.4 19.3-20.9s14.7 7.2 30.4 15c35.3 17.3 61.2 24.1 102.5 26.9 37.6 2.5 37 3.4 22.9-34.4l-9-24.2-19.5-2c-25.5-2.7-54.5-12.6-79.6-27.3l-20.2-11.9 8.2-24C137.5-386.1 122-570.2 65-680.5c-26.4-51.1-59.8-80.2-94-83.6zm804.9.2c-11.7.4-23.5 2.8-32 6.8-45 21.8-89.9 105.6-108.3 202.1-19.6 102.5-16.8 203 7.6 280l8.1 25.5-17.3 10c-24.5 14.1-50.3 23.2-77.8 27.6l-23.8 3.8-9.4 24.8c-5.2 13.6-8.6 27-7.5 29.6 6 15.8 110.5-6.7 152.8-32.9l11.4-7 12 14.8c27.8 34.4 68.5 65.9 103.5 80.1 26.5 10.8 28.2 10.1 28.1-12.3-.1-33.8-2.8-43-14.6-48.7-19.9-9.5-52.7-36.8-67.6-56.2l-14.9-19.4 11.9-11.4c27.5-26.4 69.2-99.3 90.1-157.6 22.4-62.3 38.8-148.9 38.8-204.8 0-74.3-24.2-135.4-59.6-150.3-8.1-3.5-19.8-5-31.5-4.5zm2 59.6c1.5-.1 2.8.3 3.9 1.2 17.7 14.7 26.5 57.8 23.7 115.4-3.4 69.1-23.6 145.2-56.5 212.5-19.2 39.3-48.8 82.2-51.6 74.8-7-18.4-12.7-59.1-14.2-101-3.5-95.8 12.8-179.8 48.3-248.9 15.5-30.2 35.9-53.4 46.4-54zm-813 1.5c19.2-2.7 60.9 69 76.9 132.5 22.2 88 25.1 181.7 7.9 253.3-2 8.3-4.6 16.1-5.7 17.3-5 5.4-44.9-59-62.9-101.6-35.4-84-53.2-191.4-41.7-252.2 4.8-24.8 16.8-48.1 25.5-49.3zm-605.3 26.9c-29.2 3.3-53.4 26.7-66.3 67.5-6.6 21-7.6 31.3-7.5 79.6.1 63.7 6.5 101.3 28.9 169.7 24.3 74.3 57.6 135.5 101.6 187.1l22 25.7-10.2 15.5c-5.6 8.5-19.4 23.7-30.5 33.8l-20.3 18.4 2.3 24.5c1.3 13.5 3.1 27.1 4 30.4 2.4 8.2 7.7 7.4 25-3.6 22.3-14.2 51-41.7 65.5-62.8 7.1-10.3 14.5-18 16.4-17.1 46.9 20.8 62.7 26.6 84.2 30.7 27.8 5.3 45.4 6.3 45.4 2.6 0-1.3-4.1-14.9-9.1-30.3-9-27.6-9.3-28-22.7-31.4-31.9-8-72.4-26.9-72.4-33.7 0-1.7 3-14 6.7-27.4 9.2-33.7 11.8-59.8 11.8-118.5 0-58.5-2.4-85-12-133.2-19-95.7-62.5-182-106.4-211.1-19.6-13.1-38.9-18.4-56.4-16.4zm2015.7 2.8c-10-.7-20.8.6-32 3.9-15.4 4.6-47.9 33.1-63.3 55.5-23.3 33.8-47.2 92.1-59.9 145.9-22.6 95.5-23.4 212.6-2 283.3 2.7 9.1 4.2 17.8 3.2 19.4-3.4 5.6-37 20.9-61.4 28.1l-24.8 7.3-9.6 26.3c-5.3 14.5-9.6 27.6-9.6 29 0 5.1 35.8 2.7 62.4-4.1 14.6-3.7 36.6-11.8 48.9-17.9l22.4-11.2 17.6 23c18 23.6 43 46.9 63.9 59.5 20.3 12.3 21.9 10.8 25.9-23.9 3.4-29.5 3.2-31.3-3.3-35.8-15.6-10.9-29.2-24.9-41-42l-12.5-18.2 23.9-27.7c100.2-116 157.2-330.8 117.7-443.3-12.6-35-36.4-55-66.5-57.1zm-2004 59.6c10.9 1.2 21.2 11.2 38.6 37.7C-562-533-540.1-469-529-397.7c6.6 42.2 7.3 123.7 1.5 154.6-6.3 33.4-7.3 33.9-24.3 12.3-43.7-55.7-80.9-142.9-97.1-227.8-14.7-76.2-4-157.6 20.2-154.9zm1995 1.8c8.5-1.7 14.5 5.9 20.7 23.5 8.3 23.9 8.2 96.6-.2 136.7-15.5 73.6-55 167-90.2 213.2-9.8 12.8-19.5 23.9-21.6 24.5-5.3 1.7-11.2-33.1-13.6-79.8-5.6-110.4 35-254 86.2-305.2 7.5-7.5 13.6-11.8 18.7-12.9zm-323.2 39.3c13 0 30.7 31.4 39.3 70 10.8 48.4 10 131.6-2.1 201.1-16.7 96-54.9 210.9-93.8 281.5-8.2 15-21 36.1-28.3 47L944.9 47l-5.3-17.9c-32.4-109-31.7-284.9 1.5-417.1 13.3-52.9 34-105.2 53.3-134.7 16.5-25.1 40.5-49.7 48.7-49.7zm-1350.9 0c2.7-.1 5.6 1.7 11 5.1 39.7 21.3 91.1 138.9 106.8 244.5 10.4 69.3 13.9 165.7 8.3 225.9-5.7 62-5.4 59.3-7.8 68.9-1.1 4.6-5.2 22.4-9.1 39.5-3.9 17.1-8.5 31.1-10.2 31.1-4.8 0-30.3-41-50.2-80.6-33-65.7-64-158.6-80.3-240.4-25-125.7-15.2-252.8 22-287.8 4.5-4.1 6.9-6.1 9.5-6.2zM-897.2-430c24.6 2.8 74.4 60.6 108.9 129.6 57.8 115.5 94.5 316.3 80.9 443-1.4 13.4-3.7 24.4-4.9 24.4-6.5 0-45.3-47.2-73.4-89.1-94.4-141.2-156.9-335.4-143-445 3.7-29.4 12.1-52 22.6-60.7 2.4-1.9 5.4-2.7 8.9-2.2zm2538.6 2.8c43.8-7.9 53 88 8.2 250-29.1 101.1-104.3 232.5-164.3 305.5-25.9 31.6-35.5 40.3-38.7 35.1-4.7-7.7-6-125.8-1.8-165.1 8.4-78 30.1-173.2 53.8-236.4 41.1-106.2 108.8-183 142.8-189.1zM368.7 222.1c-73 0-132.1 59.1-132.1 132.1s59.1 132.1 132.1 132.1 132.1-59.1 132.1-132.1c.1-73-59.1-132.1-132.1-132.1zm0 70.5c34 0 61.6 27.6 61.6 61.6s-27.6 61.6-61.6 61.6-61.6-27.6-61.6-61.6c.1-34 27.6-61.6 61.6-61.6z" style="fill:url(#a)"/><linearGradient id="b" x1="-503.8422" x2="1267.3452" y1="799.0226" y2="799.0226" gradientUnits="userSpaceOnUse"><stop offset="0" style="stop-color:#f4a6d7"/><stop offset="0.5" style="stop-color:#aadce6"/><stop offset="1" style="stop-color:#efe59d"/></linearGradient><path d="M300.1 1086.7c-42.8-17.1-18.4-88.4 69.2-163.4 10.3-8.8 31.9-27.5 31.9-27.5 0-6.2 1.7-13.3 1.7-13.3s-7.1 5.9-18.2 11.8c-23.8 12.6-44.1 10.2-62.5-7.3-4.5-4.3-8.2-9.7-8.2-9.7s-7.2 6.4-14.4 9.8c-25.7 12.5-45.1 16.5-57.6 14-15.7-3.2-16-26.8-17.4-67.3-.9-24.9-.5-47.2-.5-47.2s-12.6 26.1-21.2 50.4c-13.6 38.6-23.5 69.9-48.9 63.6-21.6-5.3-22.2-26-16-71.3 2.9-21.3 6.1-47.2 6.1-47.2s-13.7 25.8-28.9 56.4c-30.9 62.4-27.1 63-51 63-8.2 0-16.5-9.4-17.8-16.2-1.1-5.5-2.5-9.9-2.5-9.9s-6.5 3-14.9 8.4c-40.3 25.4-69.2 22.9-84.7-7.5-14.4-28.2-10.9-60.1 14.3-112.3-20.6 8.9-57.3 67.2-75.1 104.8-12.3 26-20.4 37.1-33.2 31.7-14.1-6-18-48.5-11.2-141 11.2-152.1 42.8-234.8 95.8-250.6 74.4-22.1 74.6 57.8.3 206.9-16.5 33-22.1 41.1-27.9 56.4 0 0 15.8-17.3 26.9-29.3 36.1-38.9 58.4-49.6 70.7-39.6 10.8 8.7 8.8 33.3-3.6 71.1-23.3 71.1-13.9 91.2 27.7 59.4 8.4-6.4 17.4-13.5 17.4-13.5s1.2-18.1 3.8-34.5c11.5-70.1 17.7-82.5 41.2-82.5 18.6 0 20.9 7 15.3 45.7-3.4 23.6-2.7 33.3-2.7 33.3s8.7-13 16.5-26.4c22.9-39 37.4-55.8 54.5-52.2 22.9 4.8 21.8 20.9 10.5 63.8-2.7 10.4-1.9 15.4-1.9 15.4s8.4-9.6 20.1-28.7c30.2-49.6 44.1-59.6 63.9-45.7 9.3 6.5 9.6 17.2 2.1 75.5-8.2 63.6-2 77.7 25.7 58.1 3.1-2.2 10.2-8.4 10.2-8.4s.4-12.8 2.4-26.7c5.9-41 22.2-82 35.9-90.4 18.5-11.3 35.6-5.4 39.2 8.7 0 0-3 9-5.3 16.2-24.1 75.9-22.6 128.8 3.4 117 12.7-5.8 22.9-24.6 32.8-74.1 9.9-49.5 17-72.1 49.6-70.8 18.5.7 17.6 8.9 8.8 48.5-18.3 82.9-20.1 117.5-20.1 117.5s7.1-6.4 9.7-7.9c20.4-11.8 42.8-40.5 42.8-40.5s-1.4-21.9-1.1-34.8c3.3-134.5 104.6-251.4 218-251.8 31.3-.1 59 15.8 71.2 40.5 10 20.3 8.1 46.8 1.6 72.4-9.5 37.9-56.1 30.9-48-3 16.8-69.9-11.8-86.4-72.1-56-101.3 51-151.6 242.5-73.7 280.3 35.4 17.1 139.1-2.7 149-28.5 8-20.9 3.4-35.4-20.9-35.4-23 0-36.7-24.5-21.7-39.2 14-13.7 56.8-6.7 73.4 2.6C821 801 797.4 957.6 745.1 1019c-21.2 24.8-56 35.9-88.9 33.4-29.8-2.3-59.2-15.8-52.8-39.3 6.3-22.9 18.6-29.3 46.2-15.7 36.5 18 50.9 6.4 70.9-34.8 15.6-32.2 21.6-62.2 21.6-62.2s-7.3 4.4-11.4 8c-56.8 50.8-169.6 41.4-202.3-19.1-4.7-8.7-11-16.9-11-16.9s-10.2 9.3-20.4 18c-11.4 9.6-27.6 21.9-35.9 27.2-7.1 4.5-16.2 10.8-16.2 10.8s-3.6 15.9-8 35.4c-21.8 96.7-76.5 147.1-136.8 122.9zm51.5-45.7c14-13.2 34.4-56.8 36.9-83.5-23.4 12.2-66.1 69.8-66.1 85.8.1 11 16.4 9.7 29.2-2.3zM-63.9 619.2c21.3-63.3 18.6-91.7-6.8-53.6-23.9 35.9-42.1 130.2-46.5 182.8.1 0 30.8-62.3 53.3-129.2zm-353.8 313.4c-150.1-59.1-90.7-382.3 75.4-401.6 97.5-11.3 158.5 51.6 153.5 167.2-6.9 160.2-121 276.9-228.9 234.4zm82.8-49.7c73.4-33.4 122.1-217.1 74.2-279.9-60.3-79.1-187.1 41.6-187.4 178.3-.1 78.9 54.8 128.2 113.2 101.6zm1172.7 15.2c-22.2-10.1-23.6-44.7-4.9-120.5 15.1-61.3 15.8-62.9 28.7-69 20.6-9.8 35.4-7.9 38.5 3.4 2.7 9.4-3.8 24.6-11.3 52.4-26.1 96.2-21.3 119.1 28.7 77.8 8.3-6.9 19.2-14.1 19.2-14.1s3.6-22.5 8.4-48.6c6.9-37.8 9.6-61.3 19.5-71.2 3.5-3.5 9.5-4 14.7-4.7 22.7-3.1 16.7 25.2 16.4 34.6-.4 13.2-.7 22.2.6 22.8 3.7 1.5 7.4-12.4 13-21.8 17.8-29.8 39.4-39.8 51.8-35.2 18.2 6.8 14.3 18.6 10.7 47.4-4.6 36.6 1.4 46.7 25 41.5 4.4-1 9-3.5 9-3.5s1-6.9 1-15.1c0-113.4 67.8-265.8 128.1-268 40.2-1.5 41.6 55.1 12.6 134.4-13.8 37.7-32 73.7-61.2 123.4-19.1 32.5-26 59.7-22 73.9 5.3 18.5 29.8 15.1 77.9-27l20 43.3c-98.8 68.3-125.8 57.4-144.2-1.2-4.4-14-5.9-18.2-5.9-18.2-50.9 18.9-76.6.6-82.8-42.2-1.1-7.4-4.1-22-4.1-22s-6.7 14.8-17.9 46.4c-25.2 71.2-30 80.9-40.7 83.6-12.3 3.1-25-5.5-27.6-18.6-1.1-5.6-1.8-11.9-1.8-11.9s-15.8 9.5-29.7 16.5c-29.2 14.7-53.8 18.7-69.7 11.4zm355.5-229.4c22.2-49.2 36.1-107.3 25.6-107.3-17.5 0-50.4 85.9-56.3 147-1 10.2-1.6 24.2-1.6 24.2s15.2-26 32.3-63.9zM884.4 676c-41.8-8.9-30-64 13.8-64 25.5 0 36.2 8.5 36.2 28.8 0 25.8-21.9 41.2-50 35.2z" style="fill:url(#b)"/></g></svg>