<svg xmlns="http://www.w3.org/2000/svg" width="3500" height="2020" viewBox="0 0 3500 2020"><path d="M9167.324 156.927c-118.817 15.608-237.938 17.138-354.93 47.935-392.856 103.415-738.422 312.957-996.304 630.068-112.09 137.84-201.668 294.415-273.77 456.338-27.548 61.842-50.534 183.731-115.841 215.699-41.578 20.352-95.73-4.939-135.212-19.954-84.202-32.011-172.225-56.927-260.281-75.712-254.603-54.317-521.24-56.809-777.465-10.3-176.755 32.083-353.07 93.57-510.423 180.663-187.098 103.562-357.904 234.599-499.301 395.8-487.132 555.327-607.944 1377.063-266.975 2038.31 61.082 118.48 135.482 230.603 223.031 331.268 401.916 462.085 1019.933 606.22 1567.47 822.389 173.747 68.62 348.778 135.211 523.944 200.045 41.78 15.448 88.53 27.448 128.451 46.411 16.327 7.741 29.442 20.383 26.265 39.887-7.099 43.302-109.25 54.761-144.575 63.448-151.774 37.251-301.926 84.913-452.957 125.578-459.854 123.82-945.093 219.211-1423.099 186.49-41.544-2.84-83.527 2.23-125.07-.608-147.347-10.074-311.493-49.69-415.47-161.95-86.232-93.093-59.291-223.504-12.035-327.887 62.468-137.983 149.916-264.676 249.33-378.592 50.873-58.343 112.563-110.028 158.265-172.394 59.628-81.363 8.552-205.082-98.4-208.699-48.676-1.622-90.457 34.48-121.995 66.862-48.81 50.096-97.622 100.936-141.667 155.358-186.862 230.907-417.026 534.423-331.538 851.831 100.665 373.86 548.586 428.518 872.383 442.682 335.763 14.704 668.958-39.042 997.183-99.719 284.653-52.597 567.718-121.96 845.07-205.149 689.983-206.974 1349.206-477.296 2001.127-783.008 625.623-293.375 1232.924-634.547 1791.549-1042.073 204.507-149.206 400.09-309.634 588.169-478.919 204.102-183.701 400.158-386.393 532.834-629.307 109.623-200.71 180.372-436.86 56.451-649.014-23.73-40.651-55.268-75.552-89.003-108.034-200.89-193.426-513.769-223.233-777.465-223.233-85.96 0-222.828-16.777-255.921 84.507-5.375 16.472-4.361 33.606-4.361 50.704 0 21.769 2.231 41.35 12.879 60.845 47.088 86.305 183.245 60.845 264.305 60.845 164.822 0 367.335 22.617 513.802 104.079 83.358 46.367 151.809 129.86 145.048 230.569-13.859 206.008-158.096 393.258-289.825 540.845-267.82 300.06-573.262 548.518-899.73 781.825-116.011 82.918-237.16 158.299-354.929 238.614-24.676 16.834-96.034 80.688-124.902 61.623-28.867-19.099-12.067-55.91-3.955-81.499 24.136-76.056 51.719-152.045 80.519-226.479 121.724-314.197 231.448-633.518 347.391-949.859 76.057-207.525 160.902-423.468 196.766-642.253 28.023-171.134 31.403-345.1 10.243-517.183-88.327-718.834-669.059-1301.358-1361.273-1465.947-95.29-22.654-190.074-36.356-287.324-45.613-73.657-7.009-152.519-17.847-226.48-8.133m-64.225 253.05c192.102-22.982 398.468 15.925 581.409 70.804 254.366 76.296 500.146 205.45 689.915 393.448 367.843 364.414 503.527 927.725 376.293 1424.363-50.873 198.625-130.783 389.236-201.6 581.408-99.989 271.355-198.017 543.414-298.31 814.648-49.893 134.94-99.414 270.084-147.617 405.634-27.481 77.307-49.656 167.864-101.34 232.935-44.992 56.687-113.443 86.298-175.37 120.304-113.577 62.298-228.675 121.96-344.788 179.46-300.879 148.968-605.78 289.317-912.676 425.34-189.127 83.83-375.854 187.335-584.789 207.583-207.786 20.113-400.293-57.735-588.169-136.158-164.924-68.788-332.214-134.096-500.281-194.772-221.443-79.943-441.5-163.707-662.536-244.732-209.814-76.901-418.04-155.29-598.31-290.738-247.977-186.287-450.997-458.028-535.47-758.94-118.479-422.16-51.887-906.842 178.614-1281.128 320.35-520.221 929.442-804.209 1533.194-725.783 174.39 22.658 341.984 72.088 507.043 132.25 66.557 24.257 170.13 77.574 240 42.646 75.21-37.6 106.986-147.594 137.915-219.817 72.237-168.635 146.4-335.215 245.544-490.14 253.284-395.804 704.383-633.942 1161.33-688.615M9978.59 4828.53c-36.033 6.119-60.912 33.972-80.484 62.738-42.693 62.806-64.8 139.133-91.606 209.578-75.786 199.335-151.572 398.636-226.546 598.31-26.4 70.343-45.397 189.938-108.71 236.653-34.952 25.792-74.265 12.913-111.245-.27-59.899-21.33-119.121-44.62-179.155-65.68-213.702-74.872-425.611-154.985-638.873-231.075-83.02-29.611-188.586-83.527-273.803-29.78-61.589 38.839-76.935 137.374-19.978 187.132 45.398 39.583 116.383 56.079 172.09 75.887 228.778 81.364 459.347 162.592 686.198 248.857 146.501 55.707 288.845 125.476 449.577 79.808 137.172-38.975 181.318-182.569 225.397-302.096 99.313-269.24 207.347-535.538 306.896-804.507 31.369-84.743 63.279-241.386-62.434-264.946-15.279-2.873-31.977-3.211-47.324-.609M804.507 7086.49c-165.272 21.702-311.32 72-436.056 188.181-286.568 266.907-286.769 729.566-16.597 1006.885 245.854 252.371 599.307 202.952 919.132 202.952h327.887c39.509 0 100.425 11.459 135.212-10.107 64.66-40.158 43.984-153.228-33.803-161.713-75.925-8.248-156.839-.575-233.24-.575h-463.098c-89.544 0-185.838 10.04-273.803-8.991-233.669-50.603-412.395-264.237-412.395-504.811 0-83.223 16.07-163.505 50.235-240 65.797-147.313 214.38-259.302 372.3-287.054 94.196-16.53 195.26-7.03 290.705-7.03h598.31c32.856 0 71.378 4.8 101.408-11.561 69.303-37.724 48.213-154.04-30.422-163.606-43.068-5.206-88.466.406-131.831-.642-118.138-2.907-236.539-3.347-354.93-3.347-133.01 0-277.224-15.853-409.014 1.42m1619.155 0c-133.173 17.51-272.897-16.631-405.634 2.975-59.557 8.788-86.663 75.177-62.353 127.436 20.41 43.876 67.403 47.324 109.677 47.324H2731.268c79.23 0 161.418-6.253 240 4.327 123.302 16.63 236.511 83.696 316.262 178.208 234.69 278.13 110.363 725.104-235.136 841.69-100.661 33.972-209.8 23.662-314.366 23.662h-480c-77.584 0-163.288-10.31-240 1.014-79.068 11.696-97.64 126.423-27.039 163.268 32.654 17.037 82.435 8.113 118.307 8.113h645.634c83.618 0 167.719 4.833 250.14-11.662 169.173-33.837 322.871-129.736 425.409-268.902 201.735-273.87 178.614-675.042-67.15-915.92-112.144-109.928-254.562-175.505-408.963-197.612-94.86-13.589-194.991-5.34-290.704-5.34-78.27 0-162.416-8.756-240 1.419m2207.324 10.276c-84 15.177-94.48 145.69-10.141 169.825 28.834 8.248 61.589 4.395 91.268 4.395h3069.295c61.995 0 174.017 22.208 218.603-30.49 45.194-53.409 9.6-139.91-59.73-144.98-77.983-5.714-158.4-.305-236.62-.305H4908.17c-88.394 0-190.242-14.096-277.183 1.555m9005.07 0c-35.594 6.389-62.704 30.76-71.324 66.05-16.53 67.708-3.042 153.432-3.042 223.1v926.196c0 75.009-15.921 170.975 3.921 243.38 11.121 40.53 51.786 69.026 94.107 62.739 34.851-5.206 63.549-28.462 73.352-62.738 19.234-67.268 4.394-156.71 4.394-226.48v-929.577c0-73.757 15.922-168.912-4.394-240-11.932-41.746-53.544-70.41-97.014-62.67m3018.591 0c-40.732 7.301-69.363 38.467-73.791 79.572-12.271 114.388-.575 236.45-.575 351.549v1389.296c0 128.383-13.115 264.54.575 392.112 4.969 46.276 45.87 84.98 94.073 79.505 39.042-4.429 73.082-33.16 80.011-72.744 6.592-37.487 1.116-80.282 1.116-118.31V7301.408c0-42.321 6.186-90.118-1.116-131.83-8.112-46.31-53.307-81.195-100.293-72.812m-6114.929 50.704c-505.622 89.341-1022.265 259.335-1343.628 688.023-125.544 167.493-215.527 366.93-246.118 574.647-11.798 80.18-38.333 216.541 85.52 209.443 92.958-5.341 70.919-123.955 84.102-185.78 43.031-201.296 120.541-375.38 249.397-537.465 207.651-261.195 531.313-416.755 846.22-504.507 80.485-22.445 164.011-44.08 246.761-56.045 45.16-6.524 110.129-5.68 148.732-31.37 81.837-54.456 18.727-172.8-70.986-156.946m327.887.203c-78.794 16.834-94.749 122.975-23.662 161.679 38.603 20.991 98.738 20.18 141.972 26.873 82.851 12.778 166.073 33.093 246.761 55.606 347.898 96.946 689.104 272.011 904.022 572.112 85.724 119.696 153.262 258.017 185.544 402.254 13.825 61.622 9.701 129.465 25.115 189.296 12.575 48.845 60.845 73.555 108.981 62.433 84.169-19.47 61.487-129.633 52.631-190.884-26.299-181.623-93.905-361.082-196.158-513.803-243.414-363.515-620.011-564.44-1029.431-685.42-98.13-29.002-199.842-50.4-300.845-66.016-36.068-5.544-78.49-21.938-114.93-14.13m-4725.633 337.69c-456.575 59.797-943.606 151.944-1287.583 485.916-122.874 119.324-232.699 286.817-259.572 459.143-10.107 64.699-32.519 180.947 66.591 185.78 41.612 2.029 80.045-18.388 91.504-60.71 13.116-48.371 9.702-99.684 25.42-148.732 39.28-122.467 115.64-237.667 210.964-323.932 229.216-207.414 520.698-309.16 818.028-373.555 82.986-17.983 169.014-33.634 253.52-42.22 41.24-4.191 102.052-.54 138.592-21.093 84.034-47.29 33.668-172.53-57.464-160.597m277.183 3.718c-77.882 16.564-97.724 129.803-20.282 163.505 36.54 15.92 88.901 13.825 128.45 17.848 73.285 7.436 147.618 20.214 219.72 34.952 303.515 62.13 628.157 161.138 855.21 383.662 93.026 91.2 170.434 198.726 208.868 324.473 15.245 49.825 9.701 108.338 28.158 155.493 15.92 40.665 63.177 59.56 104.383 48.642 79.842-21.16 59.087-110.738 51.245-170.332-21.026-159.245-115.876-325.657-227.595-438.862-269.476-273.06-625.453-396.88-993.228-472.158-85.791-17.577-173.172-30.828-260.281-39.414-30.254-2.975-64.36-14.265-94.648-7.809m9082.816 53.916c-79.335 14.975-94.546 137.577-16.901 166.986 58.716 22.242 144.068 7.2 206.197 7.2h591.549c27.11 0 56.62 2.603 81.127-11.392 71.561-40.8 47.459-155.053-33.803-163.808-55.098-5.916-113.577-.575-169.014-.575h-547.605c-35.899 0-76.226-5.07-111.55 1.589m0 682.817c-79.707 15.042-94.411 137.679-16.901 167.56 57.803 22.31 144.777 6.626 206.197 6.626H16286.197c25.96 0 54.388 2.805 77.746-10.919 70.513-41.374 48.135-155.459-33.803-164.281-55.098-5.916-113.577-.575-169.014-.575h-547.605c-35.899 0-76.226-5.07-111.55 1.589m-4766.197 101.374c-94.039 16.834-74.366 127.505-74.366 197.882v615.211c0 72.034-10.851 201.431 101.409 184.902 92.957-13.69 74.366-127.64 74.366-195.042v-621.972c0-68.721 7.842-200.485-101.409-180.98m2900.282 422.737c-97.318 20.755-64.935 121.724-46.107 187.539 43.47 151.74 184.631 260.01 323.29 319.436 194.4 83.29 412.09 69.296 618.592 69.296h1294.647c45.668 0 110.671 12.406 148.665-18.22 50.299-40.563 37.217-132.98-26.974-151.504-35.358-10.209-81.668-2.67-118.31-2.67h-1193.24c-197.239 0-402.929 17.476-594.929-34.784-105.634-28.732-208.733-92.89-265.521-188.315-36.676-61.69-34.243-203.358-140.113-180.778m-7362.253 124.902c-76.902 14.501-70.986 94.04-70.986 153.904 0 165.431-11.257 335.29.304 500.282 3.482 49.656 44.991 94.242 97.724 86.4 79.64-11.899 77.746-87.921 77.746-150.626V9126.76c0-56.552 5.443-116.18-.574-172.394-5.578-51.685-52.226-89.375-104.214-79.538m-4428.17 3.346c-80.825 14.67-70.985 94.817-70.985 157.319 0 167.222-13.153 340.428.314 507.042 3.773 46.682 51.184 84.338 97.714 76.63 80.11-13.25 74.366-92.45 74.366-154.377V9126.76c0-56.518 5.52-116.214-.588-172.394-5.317-48.913-52.158-84.98-100.82-76.192m2802.253 0c-79.842 14.502-94.682 137.544-16.901 167.02 35.02 13.285 78.186 7.2 114.93 7.2h1193.239c38.332 0 79.673 4.394 111.245-22.073 45.566-38.265 33.498-121.352-19.978-145.758-24.202-11.02-51.887-7.944-77.746-7.944H4776.338c-41.34 0-87.718-5.814-128.45 1.555m1923.38.034c-83.46 15.752-91.403 137.95-13.522 167.595 33.736 12.81 76.09 6.591 111.55 6.591h1193.239c35.966 0 77.916 5.037 108.101-18.693 46.851-36.777 39.921-120.676-13.453-148.022-23.73-12.135-52.023-9.06-77.747-9.06H6699.72c-41.24 0-87.888-6.084-128.452 1.59m-6354.929 3.38c-82.029 15.481-92.673 139.639-13.521 167.966 34.047 12.203 75.98 6.22 111.55 6.22h1193.239c35.283 0 78.534 5.307 108.118-18.22 45.85-36.507 41.882-123.076-13.474-148.935-56.549-26.4-151.43-8.62-212.954-8.62H344.789c-41.225 0-87.9-6.085-128.451 1.589m1923.38 0c-82.536 15.583-90.56 137.983-13.52 167.56 33.65 12.947 76.157 6.626 111.548 6.626h1193.24c35.966 0 77.983 5.712 108.169-18.22 47.324-37.521 44.383-122.502-13.521-149.037-56.857-26.096-151.112-8.518-212.958-8.518H2268.169c-41.22 0-87.908-6.085-128.45 1.589m6905.915 270.625c-78.93 18.254-80.248 139.099-6.761 165.363 33.431 11.967 76.496 5.24 111.55 5.24H10394.365c37.352 0 80.315 6.93 111.482-18.22 47.256-38.096 39.143-122.603-16.834-147.718-23.561-10.58-52.564-6.457-77.747-6.457H9174.085c-40.429 0-89.004-7.335-128.451 1.792m1977.464 0c-79.335 18.321-80.991 139.369-6.76 165.904 33.025 11.797 76.867 4.699 111.549 4.699h1243.944c37.453 0 80.214 6.558 111.414-18.693 46.681-37.758 37.96-121.318-16.766-147.211-22.31-10.547-50.367-6.49-74.367-6.49H11151.549c-40.428 0-89.003-7.302-128.451 1.79z" style="fill:#03316d;stroke:none;stroke-width:3.38028" transform="matrix(.20817 0 0 .20817 -6.975 -7.864)"/></svg>